<svg xmlns="http://www.w3.org/2000/svg" width="512" height="512" viewBox="0 0 512 512" fill="none"><metadata><rdf:RDF xmlns:rdf="http://www.w3.org/1999/02/22-rdf-syntax-ns#" xmlns:dc="http://purl.org/dc/elements/1.1/"><rdf:Description><dc:creator>RealFaviconGenerator</dc:creator><dc:source>https://realfavicongenerator.net</dc:source></rdf:Description></rdf:RDF></metadata><path d="M86.3676 30.9178C97.732 31.841 97.7336 31.8433 97.7334 31.8467C97.7331 31.85 97.7311 31.8545 97.7306 31.8606C97.7295 31.8741 97.7272 31.895 97.725 31.9218C97.7205 31.9766 97.7144 32.0604 97.7055 32.1693C97.6878 32.3869 97.6623 32.7117 97.6276 33.1399C97.5579 33.9976 97.453 35.2709 97.3186 36.9306C97.0498 40.2506 96.6561 45.1203 96.1578 51.3119C95.1611 63.6949 93.7468 81.372 92.0686 102.54C88.712 144.879 84.3059 201.185 80.1155 257.06C75.9241 312.948 71.9507 368.358 69.4512 408.927C69.23 412.518 69.0246 415.989 68.8277 419.331C80.8498 394.304 96.1993 361.962 111.449 328.794C102.288 325.977 94.3366 323.405 89.4464 321.149C81.7229 317.586 79.4139 310.165 79.0521 304.645C78.6953 299.2 79.9085 293.196 81.6688 287.447C85.2573 275.727 92.3256 261.296 101.216 246.484C118.982 216.881 145.671 183.048 171.69 162.846C173.432 161.494 175.839 159.872 178.71 159.006C181.836 158.063 187.103 157.674 191.59 161.587C195.311 164.831 196.113 169.117 196.351 171.157C196.63 173.557 196.463 175.997 196.189 178.126C195.125 186.379 191.121 198.986 185.773 213.458C175.877 240.233 159.935 277.108 142.96 314.644C155.506 318.601 169.246 323.21 182.379 328.53C199.804 335.587 217.216 344.298 229.457 355.123C260.384 382.472 264.728 420.842 260.765 472.181L238.03 470.429C241.924 419.99 236.535 391.811 214.341 372.185C205.082 363.998 190.617 356.45 173.814 349.644C160.535 344.266 146.448 339.604 133.437 335.538C102.101 403.813 69.9696 469.368 66.4337 476.411C66.1737 476.929 65.5103 478.194 64.2848 479.459C63.2075 480.571 59.7081 483.657 54.3164 482.874C49.229 482.136 46.7734 478.525 46.1241 477.471C45.2876 476.113 44.9098 474.873 44.7573 474.334C44.207 472.388 44.1099 470.189 44.0642 469.058C43.9418 466.03 44.002 461.488 44.1811 455.917C44.5441 444.627 45.4388 427.868 46.6919 407.528C49.2012 366.799 53.1829 311.262 57.3757 255.355C61.5694 199.436 65.9763 143.097 69.3343 100.741C71.0134 79.5617 72.4318 61.8754 73.4291 49.4847C73.9277 43.2899 74.3208 38.4184 74.5899 35.0951C74.7245 33.4334 74.8291 32.1582 74.8989 31.2988C74.9337 30.8696 74.9591 30.5439 74.9768 30.3254C74.9857 30.2162 74.9918 30.1331 74.9963 30.0779C74.9985 30.0511 75.0008 30.0306 75.0019 30.0167C75.0025 30.0098 75.0044 30.0035 75.0047 30C75.0303 29.9989 75.554 30.0393 86.3676 30.9178ZM167.292 197.433C150.08 214.969 133.237 237.429 120.771 258.2C112.32 272.281 106.291 284.909 103.473 294.111C102.428 297.524 101.978 300.001 101.842 301.642C106.171 303.304 112.673 305.345 120.985 307.885C138.358 269.55 154.543 232.185 164.38 205.568C165.444 202.688 166.408 199.972 167.292 197.433Z" fill="#0066FF"></path><path d="M461.383 187.975L447.441 378L433.99 377.026L441.507 274.544L407.627 276.719C407.277 281.835 406.874 287.994 406.522 293.476C406.271 297.377 406.047 300.928 405.885 303.503C405.804 304.79 405.737 305.833 405.692 306.555C405.67 306.916 405.653 307.196 405.641 307.386C405.635 307.481 405.631 307.553 405.628 307.602C405.626 307.626 405.625 307.646 405.625 307.658C405.624 307.664 405.623 307.668 405.623 307.671V307.676C405.623 307.676 405.579 307.673 398.892 307.262C392.199 306.85 392.16 306.848 392.16 306.848L392.162 306.846V306.828C392.163 306.816 392.164 306.797 392.165 306.772C392.168 306.724 392.174 306.651 392.18 306.556C392.192 306.366 392.208 306.083 392.231 305.722C392.276 304.999 392.342 303.954 392.424 302.665C392.586 300.086 392.811 296.53 393.062 292.622C393.564 284.817 394.171 275.573 394.585 269.92C395.057 263.487 395.627 252.626 396.082 243.307C396.309 238.661 396.505 234.422 396.645 231.344C396.715 229.805 396.771 228.556 396.81 227.693C396.829 227.262 396.844 226.927 396.854 226.7C396.859 226.586 396.863 226.499 396.866 226.441C396.867 226.413 396.867 226.39 396.867 226.376C396.868 226.369 396.869 226.363 396.869 226.36C396.869 226.358 396.869 226.356 396.869 226.355C396.874 226.355 397.049 226.362 403.606 226.644L410.343 226.936V226.957C410.343 226.972 410.341 226.995 410.34 227.024C410.338 227.083 410.334 227.171 410.329 227.286C410.318 227.515 410.303 227.852 410.284 228.286C410.246 229.153 410.19 230.406 410.119 231.95C409.979 235.038 409.781 239.292 409.553 243.956C409.247 250.223 408.881 257.27 408.529 263.227L442.497 261.047L447.93 187L461.383 187.975ZM212.343 241.86C218.865 239.378 226.644 238.295 232.788 241.398C240.983 245.538 245.623 251.867 247.848 259.239C249.966 266.256 249.844 274.031 249.228 281.332C247.218 305.154 224.278 317.419 204.17 317.419C196.303 317.419 189.856 314.463 185.578 308.924C181.511 303.658 180 296.832 180 289.986C180 285.331 181.09 279.28 183.115 273.306C185.146 267.314 188.301 260.861 192.798 255.67C198.407 249.195 205.482 244.471 212.343 241.86ZM323.839 248.303L295.977 250.207L291.061 315.82L277.609 314.825L282.387 251.076C279.085 251.276 275.056 251.519 270.989 251.762C261.554 252.324 251.318 252.925 250.186 252.925V239.52C250.186 239.519 250.724 239.498 252.023 239.43C253.206 239.368 254.812 239.279 256.701 239.171C260.476 238.956 265.353 238.669 270.18 238.381C275.007 238.093 279.78 237.805 283.347 237.589C285.13 237.481 286.613 237.392 287.649 237.329C288.167 237.297 288.573 237.272 288.849 237.255C288.988 237.247 289.094 237.24 289.165 237.235C289.201 237.233 289.228 237.232 289.246 237.23L322.914 234.93L323.839 248.303ZM344.357 231.251C350.402 233.751 350.577 233.825 350.583 233.827C350.582 233.828 350.582 233.829 350.581 233.832C350.579 233.837 350.575 233.847 350.569 233.859C350.559 233.885 350.542 233.924 350.52 233.977C350.476 234.084 350.409 234.248 350.321 234.463C350.144 234.894 349.884 235.536 349.557 236.358C348.902 238.004 347.976 240.375 346.908 243.253C344.766 249.022 342.07 256.761 339.812 264.737C337.531 272.792 335.796 280.746 335.404 287.052C335.208 290.217 335.376 292.602 335.781 294.229C335.84 294.465 335.902 294.669 335.961 294.848C337.09 293.997 338.625 292.497 340.505 290.159C345.03 284.532 350.064 276.029 354.863 267.072C359.628 258.181 363.923 249.299 367.106 242.927C368.643 239.85 370.023 237.147 371.038 235.466C371.301 235.031 371.609 234.547 371.944 234.093C372.135 233.834 372.849 232.848 373.997 232.076C374.522 231.722 376.19 230.684 378.551 230.907C381.511 231.187 383.247 233.145 383.986 234.556C384.607 235.743 384.728 236.826 384.766 237.252C384.814 237.791 384.798 238.262 384.777 238.582C383.969 251.366 382.791 269.227 381.814 283.885C381.325 291.216 380.887 297.748 380.571 302.447C380.413 304.796 380.287 306.687 380.199 307.992C380.155 308.644 380.12 309.15 380.097 309.492C380.085 309.663 380.076 309.794 380.07 309.882C380.067 309.925 380.065 309.958 380.064 309.98C380.063 309.991 380.062 310 380.062 310.006V310.013L366.604 309.116C366.604 309.115 366.606 309.11 366.606 309.108C366.606 309.102 366.607 309.094 366.607 309.083C366.609 309.061 366.611 309.027 366.614 308.983C366.62 308.896 366.629 308.766 366.64 308.595C366.663 308.254 366.697 307.748 366.741 307.096C366.829 305.793 366.957 303.902 367.114 301.554C367.43 296.856 367.868 290.326 368.356 282.998C368.662 278.407 368.983 273.503 369.311 268.54C368.479 270.142 367.632 271.76 366.767 273.374C361.917 282.426 356.398 291.868 351.04 298.53C348.411 301.799 345.42 304.916 342.169 306.846C338.797 308.849 333.781 310.242 329.004 307.085C325.344 304.666 323.551 300.912 322.689 297.45C321.823 293.976 321.702 290.08 321.941 286.227C322.421 278.497 324.462 269.463 326.828 261.106C329.216 252.672 332.04 244.575 334.255 238.612C335.365 235.623 336.326 233.154 337.014 231.426C337.358 230.562 337.635 229.882 337.826 229.415C337.921 229.182 337.995 229.001 338.047 228.876C338.072 228.814 338.094 228.766 338.108 228.732C338.114 228.716 338.12 228.703 338.124 228.693C338.126 228.689 338.126 228.684 338.127 228.682L338.129 228.678C338.129 228.677 338.131 228.675 344.357 231.251ZM466.892 279.225C469.672 276.762 473.935 277.004 476.413 279.768L495 300.498L484.932 309.417L466.344 288.688C463.866 285.925 464.112 281.688 466.892 279.225ZM193.488 289.986C193.488 295.115 194.651 298.655 196.277 300.76C197.691 302.592 199.957 304.013 204.17 304.013C220.33 304.013 234.589 294.422 235.788 280.213C236.374 273.271 236.287 267.592 234.928 263.093C233.677 258.948 231.328 255.699 226.677 253.349C225.569 252.79 222.307 252.422 217.165 254.379C212.361 256.207 207.149 259.648 203.017 264.417C199.997 267.903 197.569 272.657 195.898 277.587C194.221 282.533 193.488 287.116 193.488 289.986Z" fill="#0066FF"></path></svg>