<svg width="103" height="73" viewBox="0 0 103 73" fill="none" xmlns="http://www.w3.org/2000/svg">
<path d="M1.61301 59.0302L2.95227 59.7058L1.61301 59.0302ZM18.071 18.972L18.9881 20.159V20.159L18.071 18.972ZM23.8793 44.6302L24.8703 43.5041V43.5041L23.8793 44.6302ZM45.2639 50.1284L46.7586 50.2544L45.2639 50.1284ZM42.3605 42.5356L41.684 43.8744V43.8744L42.3605 42.5356ZM76.0659 40.4411L74.5689 40.3464L76.0659 40.4411ZM81.3527 47.772L79.8567 47.6623L81.3527 47.772ZM92.1439 47.0792L92.24 48.5762L93.5443 48.4924L93.6399 47.189L92.1439 47.0792ZM98.3927 49.9126C97.8398 49.2957 96.8914 49.2439 96.2746 49.7969C95.6577 50.3498 95.6058 51.2981 96.1588 51.915L97.2757 50.9138L98.3927 49.9126ZM35.1281 45.4156L36.262 46.3976V46.3976L35.1281 45.4156ZM5.66225 0.121094C4.16724 -0.00117084 4.16722 -0.000929996 4.16718 -0.000458404C4.16714 7.06315e-06 4.16709 0.000709422 4.16701 0.00163853C4.16686 0.00349677 4.16663 0.00627432 4.16633 0.00996386C4.16573 0.0173429 4.16483 0.0283699 4.16363 0.0429861C4.16124 0.0722183 4.15769 0.115807 4.153 0.173282C4.14362 0.288233 4.12972 0.458728 4.11164 0.681008C4.07547 1.12557 4.02255 1.77726 3.95552 2.606C3.82147 4.26346 3.63101 6.62912 3.40532 9.4622C2.95396 15.1281 2.36164 22.6645 1.79794 30.1447C1.23437 37.6232 0.698925 45.052 0.36165 50.5C0.193207 53.2209 0.0732495 55.4625 0.0244644 56.9725C0.000390649 57.7177 -0.00784099 58.3246 0.00858259 58.7291C0.0147395 58.8807 0.0277076 59.1731 0.101076 59.4312C0.121433 59.5028 0.171658 59.6667 0.282596 59.8459C0.36964 59.9866 0.693298 60.4584 1.35988 60.5547C2.06513 60.6565 2.52415 60.2549 2.66743 60.1077C2.82953 59.9412 2.91761 59.7745 2.95227 59.7058L1.61301 59.0302L0.27376 58.3546C0.294092 58.3143 0.36856 58.1684 0.517756 58.0151C0.648133 57.8812 1.09495 57.4853 1.7887 57.5855C2.44378 57.6801 2.75664 58.1428 2.83357 58.2672C2.93439 58.4301 2.97519 58.5703 2.9868 58.6111C3.02517 58.7461 3.01396 58.8007 3.00611 58.6074C2.99452 58.322 2.99895 57.8107 3.0229 57.0694C3.07017 55.6064 3.18774 53.402 3.35592 50.6854C3.69189 45.2584 4.22608 37.8462 4.78946 30.3702C5.35272 22.8958 5.94467 15.364 6.39584 9.70043C6.62142 6.86874 6.81179 4.50429 6.94576 2.84784C7.01274 2.01961 7.06563 1.3684 7.10176 0.924283C7.11982 0.702226 7.1337 0.531947 7.14306 0.417205C7.14774 0.359834 7.15129 0.316348 7.15367 0.287217C7.15486 0.272651 7.15576 0.261674 7.15636 0.254345C7.15666 0.25068 7.15688 0.247928 7.15703 0.246094C7.15711 0.245177 7.15717 0.244493 7.1572 0.244034C7.15724 0.243581 7.15726 0.243358 5.66225 0.121094ZM1.61301 59.0302L2.95227 59.7058C3.48826 58.6432 8.93228 47.5893 13.585 37.3039C15.9072 32.1704 18.0531 27.183 19.2885 23.7192C19.888 22.0384 20.3377 20.5456 20.4182 19.5579C20.4392 19.3004 20.445 18.9797 20.3761 18.6568C20.3115 18.354 20.1241 17.7965 19.5488 17.4458C18.9463 17.0785 18.3375 17.188 18.0008 17.3045C17.6638 17.4211 17.3752 17.614 17.1539 17.785L18.071 18.972L18.9881 20.159C19.0968 20.075 19.0875 20.103 18.9819 20.1395C18.8766 20.176 18.4513 20.2902 17.9871 20.0073C17.5501 19.7408 17.4559 19.3473 17.4421 19.2827C17.4241 19.1981 17.4383 19.1899 17.4281 19.314C17.3842 19.8529 17.0762 20.9917 16.4628 22.7114C15.2725 26.0488 13.1719 30.9382 10.8517 36.0674C6.21947 46.3074 0.794343 57.3226 0.27376 58.3546L1.61301 59.0302ZM18.071 18.972L17.1539 17.785C13.6605 20.4843 10.0751 25.007 7.6877 28.9658C6.4932 30.9465 5.54405 32.8751 5.06233 34.4409C4.82599 35.2092 4.6636 36.0101 4.71139 36.7358C4.75998 37.4737 5.06984 38.4548 6.09246 38.9243L6.71831 37.5611L7.34417 36.1979C7.73325 36.3765 7.71671 36.7178 7.70491 36.5387C7.69232 36.3474 7.73554 35.9542 7.9297 35.3231C8.30898 34.0903 9.12031 32.3994 10.2567 30.515C12.5311 26.7435 15.8891 22.5535 18.9881 20.159L18.071 18.972ZM6.71831 37.5611L6.09246 38.9243C6.8403 39.2676 8.07884 39.6519 9.43223 40.0633C10.8378 40.4905 12.4772 40.9777 14.1717 41.5453C17.6285 42.7032 21.0088 44.1021 22.8884 45.7562L23.8793 44.6302L24.8703 43.5041C22.4805 41.401 18.5474 39.8471 15.1245 38.7006C13.3792 38.116 11.6873 37.6132 10.3047 37.1929C8.86986 36.7568 7.86341 36.4363 7.34417 36.1979L6.71831 37.5611ZM23.8793 44.6302L22.8884 45.7562C25.8809 48.3898 26.6034 52.1679 26.0801 58.9142L27.5756 59.0302L29.0711 59.1462C29.6038 52.2779 29.0179 47.1542 24.8703 43.5041L23.8793 44.6302ZM36.5513 56.9356V58.4356C41.1039 58.4356 46.3028 55.6583 46.7586 50.2544L45.2639 50.1284L43.7692 50.0023C43.4958 53.2442 40.2411 55.4356 36.5513 55.4356V56.9356ZM45.2639 50.1284L46.7586 50.2544C46.8985 48.5948 46.9259 46.8297 46.4454 45.2375C45.9408 43.5654 44.8901 42.1332 43.037 41.1968L42.3605 42.5356L41.684 43.8744C42.7504 44.4133 43.2879 45.1585 43.5734 46.1043C43.883 47.1302 43.9023 48.4238 43.7692 50.0023L45.2639 50.1284ZM32.5911 52.2229H31.0911C31.0911 53.7779 31.4341 55.3249 32.3544 56.5169C33.321 57.7689 34.7756 58.4356 36.5513 58.4356V56.9356V55.4356C35.5817 55.4356 35.0562 55.1073 34.729 54.6835C34.3555 54.1998 34.0911 53.3904 34.0911 52.2229H32.5911ZM47.0088 42.2738V43.7738C47.2645 43.7738 49.5881 43.6373 51.7336 43.5093C52.8318 43.4439 53.9175 43.3784 54.7287 43.3293C55.1342 43.3047 55.4712 43.2842 55.7068 43.2699C55.8246 43.2628 55.9171 43.2571 55.9801 43.2533C56.0116 43.2514 56.0357 43.2499 56.052 43.2489C56.0602 43.2484 56.0663 43.248 56.0705 43.2478C56.0725 43.2477 56.0741 43.2476 56.0751 43.2475C56.0757 43.2475 56.0761 43.2474 56.0763 43.2474C56.0764 43.2474 56.0765 43.2474 56.0766 43.2474C56.0767 43.2474 56.0767 43.2474 55.9854 41.7502C55.8941 40.253 55.894 40.253 55.894 40.253C55.8939 40.253 55.8938 40.253 55.8937 40.253C55.8934 40.253 55.893 40.253 55.8925 40.2531C55.8915 40.2531 55.8899 40.2532 55.8879 40.2533C55.8837 40.2536 55.8776 40.254 55.8695 40.2545C55.8532 40.2555 55.8292 40.2569 55.7977 40.2588C55.7348 40.2627 55.6424 40.2683 55.5247 40.2754C55.2894 40.2898 54.9527 40.3102 54.5474 40.3347C53.7367 40.3838 52.652 40.4492 51.555 40.5147C50.4579 40.5801 49.3496 40.6455 48.4916 40.6944C48.0623 40.7189 47.6974 40.7392 47.4285 40.7534C47.1303 40.7691 47.0073 40.7738 47.0088 40.7738V42.2738ZM55.9854 41.7502L56.0877 43.2467L63.7442 42.7231L63.6418 41.2265L63.5395 39.73L55.883 40.2537L55.9854 41.7502ZM55.9854 41.7502L54.4896 41.6381L53.2734 57.8708L54.7692 57.9829L56.265 58.095L57.4812 41.8623L55.9854 41.7502ZM68.4094 38.8702C67.0258 38.291 67.0257 38.2912 67.0256 38.2915C67.0255 38.2917 67.0254 38.292 67.0252 38.2923C67.0249 38.293 67.0246 38.2938 67.0241 38.2949C67.0233 38.297 67.022 38.3 67.0204 38.3038C67.0173 38.3114 67.0127 38.3223 67.0069 38.3364C66.9952 38.3646 66.9783 38.4057 66.9566 38.4588C66.9132 38.565 66.8505 38.7194 66.7724 38.9159C66.6161 39.3086 66.3973 39.8698 66.1451 40.5491C65.642 41.9046 65.0006 43.7448 64.458 45.6616C63.9204 47.561 63.4571 49.6133 63.3481 51.3691C63.2938 52.2442 63.3214 53.1283 63.5176 53.9159C63.7132 54.7017 64.1188 55.5481 64.942 56.0924L65.7693 54.8411L66.5965 53.5898C66.6277 53.6104 66.5218 53.565 66.4287 53.1911C66.336 52.8189 66.2977 52.2752 66.3423 51.5549C66.4314 50.1198 66.8261 48.3103 67.3446 46.4787C67.8581 44.6647 68.4707 42.9049 68.9576 41.5931C69.2005 40.9388 69.4108 40.3995 69.5597 40.0252C69.6342 39.8381 69.6933 39.6924 69.7334 39.5943C69.7534 39.5452 69.7688 39.5081 69.7789 39.4837C69.7839 39.4715 69.7877 39.4625 69.7901 39.4567C69.7913 39.4538 69.7921 39.4518 69.7926 39.4505C69.7929 39.4499 69.7931 39.4495 69.7931 39.4493C69.7932 39.4492 69.7932 39.4492 69.7932 39.4492C69.7932 39.4492 69.7931 39.4494 68.4094 38.8702ZM65.7693 54.8411L64.942 56.0924C66.0104 56.7987 67.1321 56.4888 67.8923 56.0371C68.626 55.6012 69.3031 54.8963 69.9003 54.1534C71.1163 52.6408 72.3698 50.4961 73.472 48.4384C74.5819 46.3662 75.5927 44.277 76.2941 42.8723C76.6571 42.1453 76.9153 41.6463 77.0714 41.3875C77.1083 41.3264 77.1238 41.3053 77.1209 41.3091C77.1193 41.3113 77.102 41.3349 77.0705 41.3693C77.0467 41.3953 76.9689 41.4788 76.8418 41.5643C76.7479 41.6275 76.3991 41.8501 75.8939 41.8023C75.2559 41.742 74.8827 41.3185 74.7267 41.0205C74.5975 40.7737 74.5771 40.5591 74.572 40.5016C74.5646 40.4186 74.568 40.3608 74.5689 40.3464L76.0659 40.4411L77.5629 40.5357C77.5675 40.4633 77.571 40.3574 77.5602 40.2358C77.5516 40.1397 77.5242 39.8961 77.3847 39.6295C77.2184 39.3116 76.8313 38.8776 76.1763 38.8156C75.6539 38.7662 75.2846 38.9962 75.167 39.0753C74.911 39.2476 74.751 39.4682 74.7075 39.5272C74.632 39.6294 74.5625 39.7388 74.5028 39.8376C74.2728 40.2189 73.9594 40.8325 73.6101 41.5321C72.8869 42.9805 71.9103 45.0001 70.8274 47.0219C69.7368 49.0582 68.5921 50.9926 67.5622 52.2738C67.0364 52.9278 66.6285 53.2984 66.36 53.458C66.118 53.6017 66.3202 53.4072 66.5965 53.5898L65.7693 54.8411ZM76.0659 40.4411L74.5689 40.3464C74.3855 43.2472 74.1178 47.3032 73.8959 50.6354C73.7849 52.3012 73.6854 53.7856 73.6137 54.8535C73.5778 55.3875 73.5489 55.8173 73.5289 56.1137C73.5189 56.2618 73.5112 56.3766 73.5059 56.4543C73.5033 56.4932 73.5013 56.5228 73.5 56.5427C73.4993 56.5526 73.4988 56.5602 73.4984 56.5652C73.4983 56.5677 73.4981 56.5696 73.4981 56.5708C73.498 56.5715 73.498 56.5719 73.498 56.5723C73.4979 56.5724 73.4979 56.5725 73.4979 56.5726C73.4979 56.5727 73.4979 56.5727 74.9945 56.6738C76.4911 56.7749 76.4911 56.7749 76.4911 56.7748C76.4911 56.7747 76.4911 56.7746 76.4911 56.7744C76.4912 56.7741 76.4912 56.7736 76.4912 56.773C76.4913 56.7717 76.4914 56.7698 76.4916 56.7673C76.492 56.7623 76.4925 56.7547 76.4931 56.7448C76.4945 56.7248 76.4965 56.6952 76.4991 56.6563C76.5044 56.5785 76.5121 56.4636 76.5221 56.3153C76.5421 56.0188 76.571 55.5888 76.6069 55.0546C76.6787 53.9863 76.7782 52.5013 76.8892 50.8348C77.1112 47.5024 77.3792 43.442 77.5629 40.5357L76.0659 40.4411ZM81.8742 37.8229C80.3757 37.7577 80.3757 37.7577 80.3757 37.7577C80.3757 37.7578 80.3757 37.7578 80.3757 37.7579C80.3756 37.7581 80.3756 37.7584 80.3756 37.7589C80.3756 37.7597 80.3755 37.7609 80.3755 37.7626C80.3753 37.7659 80.3751 37.7709 80.3748 37.7775C80.3742 37.7907 80.3734 37.8103 80.3722 37.8362C80.37 37.8878 80.3666 37.964 80.3622 38.0621C80.3535 38.2584 80.3408 38.5421 80.3249 38.892C80.2931 39.5917 80.2483 40.5555 80.1968 41.6116C80.0935 43.7303 79.9639 46.1997 79.8567 47.6623L81.3527 47.772L82.8487 47.8817C82.959 46.3769 83.0902 43.8717 83.1933 41.7577C83.245 40.6975 83.2898 39.7304 83.3218 39.0284C83.3378 38.6773 83.3505 38.3924 83.3593 38.1953C83.3637 38.0967 83.367 38.02 83.3693 37.9679C83.3705 37.9419 83.3713 37.922 83.3719 37.9086C83.3722 37.9019 83.3725 37.8968 83.3726 37.8934C83.3727 37.8917 83.3727 37.8904 83.3728 37.8895C83.3728 37.8891 83.3728 37.8887 83.3728 37.8885C83.3728 37.8884 83.3728 37.8883 83.3728 37.8883C83.3728 37.8882 83.3728 37.8882 81.8742 37.8229ZM81.3527 47.772L79.8567 47.6623C79.7625 48.9474 79.6246 51.0485 79.5106 52.8229C79.4535 53.7113 79.4023 54.5197 79.3654 55.106C79.3469 55.3992 79.332 55.6369 79.3217 55.8013C79.3166 55.8835 79.3126 55.9474 79.3099 55.9907C79.3085 56.0124 79.3075 56.0289 79.3068 56.0401C79.3065 56.0457 79.3062 56.0499 79.306 56.0527C79.3059 56.0541 79.3059 56.0552 79.3058 56.0559C79.3058 56.0563 79.3058 56.0565 79.3058 56.0567C79.3058 56.0568 79.3058 56.0569 79.3058 56.0569C79.3058 56.057 79.3058 56.057 80.8029 56.1502C82.3 56.2434 82.3 56.2434 82.3 56.2433C82.3 56.2433 82.3 56.2432 82.3 56.2431C82.3 56.243 82.3 56.2427 82.3 56.2423C82.3001 56.2416 82.3001 56.2406 82.3002 56.2392C82.3004 56.2364 82.3007 56.2322 82.301 56.2267C82.3017 56.2157 82.3027 56.1992 82.3041 56.1776C82.3068 56.1344 82.3107 56.0707 82.3159 55.9887C82.3261 55.8246 82.341 55.5874 82.3595 55.2947C82.3963 54.7092 82.4475 53.9021 82.5044 53.0153C82.6185 51.2393 82.7556 49.1513 82.8487 47.8817L81.3527 47.772ZM92.1439 47.0792L93.6399 47.189L94.9716 29.0308L93.4756 28.9211L91.9796 28.8114L90.648 46.9695L92.1439 47.0792ZM93.4756 28.9211L91.9796 28.8114L88.8114 72.0114L90.3074 72.1211L91.8034 72.2308L94.9716 29.0308L93.4756 28.9211ZM97.2757 50.9138L96.1588 51.915L100.383 56.6277L101.5 55.6265L102.617 54.6254L98.3927 49.9126L97.2757 50.9138ZM42.3605 42.5356L43.037 41.1968C41.6552 40.4987 39.901 40.7403 38.4228 41.303C36.8696 41.8943 35.2661 42.9651 33.9943 44.4336L35.1281 45.4156L36.262 46.3976C37.2038 45.3102 38.3925 44.5246 39.4902 44.1067C40.6627 43.6603 41.4179 43.74 41.684 43.8744L42.3605 42.5356ZM35.1281 45.4156L33.9943 44.4336C32.975 45.6106 32.2595 47.0752 31.7983 48.4361C31.3385 49.7928 31.0911 51.1666 31.0911 52.2229H32.5911H34.0911C34.0911 51.5685 34.258 50.525 34.6396 49.399C35.0198 48.2771 35.5728 47.1934 36.262 46.3976L35.1281 45.4156ZM81.3527 47.772L81.4488 49.2689L92.24 48.5762L92.1439 47.0792L92.0478 45.5823L81.2566 46.2751L81.3527 47.772Z" fill="#0066FF"/>
</svg>
