<svg width="1920" height="1080" viewBox="0 0 1920 1080" fill="none" xmlns="http://www.w3.org/2000/svg">
<path opacity="0.2" d="M2.16988 827.636L24.509 838.86L2.16988 827.636ZM318.163 55.4036L333.487 75.1564L318.163 55.4036ZM429.683 550.036L446.237 531.302L429.683 550.036ZM840.266 656.029L865.179 658.122L840.266 656.029ZM784.521 509.658L773.209 531.953L784.521 509.658ZM1431.67 469.28L1456.62 470.851L1431.67 469.28ZM1533.17 610.604L1508.24 608.783L1533.17 610.604ZM1740.36 597.249L1741.97 622.197L1763.71 620.796L1765.3 599.07L1740.36 597.249ZM1857.54 654.522C1848.35 644.222 1832.55 643.326 1822.25 652.521C1811.95 661.716 1811.05 677.52 1820.24 687.82L1838.89 671.171L1857.54 654.522ZM645.66 565.178L664.591 581.507V581.507L645.66 565.178ZM79.9152 -308C54.9977 -310.03 54.9973 -310.025 54.9966 -310.016C54.9959 -310.007 54.9948 -309.993 54.9933 -309.976C54.9904 -309.94 54.986 -309.886 54.9803 -309.815C54.9687 -309.673 54.9514 -309.46 54.9285 -309.179C54.8826 -308.615 54.8143 -307.775 54.7243 -306.667C54.5443 -304.452 54.2775 -301.165 53.9303 -296.88C53.2359 -288.311 52.2198 -275.748 50.933 -259.773C48.3594 -227.822 44.7026 -182.219 40.3695 -127.605C31.7036 -18.3816 20.3315 126.897 9.50916 271.091C-1.31113 415.257 -11.59 558.444 -18.064 663.441C-21.2977 715.888 -23.5977 759.052 -24.5324 788.099C-24.9944 802.458 -25.1474 814.032 -24.8385 821.669C-24.7181 824.647 -24.4715 829.819 -23.2113 834.271C-22.8633 835.501 -22.0192 838.257 -20.1667 841.262C-18.7209 843.608 -13.3189 851.529 -2.16126 853.146C9.65709 854.86 17.3391 848.103 19.7269 845.64C22.4375 842.844 23.9168 840.038 24.509 838.86L2.16988 827.636L-20.1693 816.413C-19.8522 815.782 -18.6342 813.376 -16.1714 810.836C-14.0314 808.629 -6.58354 801.982 5.01403 803.664C15.9509 805.25 21.1455 812.996 22.3971 815.026C24.0554 817.717 24.7185 820.017 24.8985 820.654C25.4867 822.731 25.2691 823.319 25.1206 819.648C24.8917 813.988 24.9817 804.004 25.4418 789.707C26.3513 761.441 28.6118 718.895 31.8413 666.518C38.2937 561.87 48.5517 418.958 59.3689 274.833C70.184 130.736 81.55 -14.4658 90.2129 -123.651C94.5441 -178.241 98.1993 -223.824 100.772 -255.758C102.058 -271.725 103.073 -284.28 103.767 -292.842C104.114 -297.123 104.38 -300.406 104.56 -302.618C104.65 -303.724 104.718 -304.563 104.764 -305.125C104.787 -305.405 104.804 -305.617 104.815 -305.758C104.821 -305.829 104.825 -305.882 104.828 -305.918C104.83 -305.935 104.831 -305.948 104.832 -305.957C104.832 -305.966 104.833 -305.97 79.9152 -308ZM2.16988 827.636L24.509 838.86C34.7798 818.416 139.28 605.373 228.586 407.153C273.17 308.195 314.31 212.18 337.97 145.574C349.499 113.118 357.945 84.812 359.443 66.3713C359.832 61.5868 359.916 55.8439 358.709 50.1647C357.576 44.8329 354.354 35.3217 344.597 29.3488C334.359 23.0821 323.947 24.9128 318.028 26.9694C312.11 29.0258 306.944 32.4662 302.839 35.6509L318.163 55.4036L333.487 75.1564C335.719 73.4254 335.915 73.6866 334.44 74.1992C332.964 74.7122 326.074 76.6344 318.492 71.9934C311.391 67.6461 309.958 61.2947 309.801 60.5556C309.57 59.469 309.816 59.7515 309.607 62.324C308.715 73.3111 302.613 95.7372 290.855 128.837C267.941 193.342 227.55 287.729 182.999 386.614C94.0335 584.079 -10.1539 796.478 -20.1693 816.413L2.16988 827.636ZM318.163 55.4036L302.839 35.6509C236.27 87.2954 167.723 174.054 122.035 250.122C99.1759 288.181 81.1339 325.046 72.0204 354.789C67.5384 369.417 64.5795 384.311 65.4501 397.586C66.3322 411.035 71.8774 428.236 89.7258 436.464L100.192 413.76L110.657 391.056C116.342 393.676 115.62 398.542 115.343 394.314C115.054 389.911 116.043 381.785 119.827 369.437C127.244 345.229 143.004 312.319 164.898 275.867C208.716 202.912 273.483 121.707 333.487 75.1564L318.163 55.4036ZM100.192 413.76L89.7258 436.464C103.799 442.951 127.29 450.28 153.377 458.241C180.335 466.468 211.877 475.88 244.475 486.843C310.798 509.148 376.395 536.312 413.13 568.771L429.683 550.036L446.237 531.302C400.999 491.329 326.179 461.569 260.413 439.451C226.967 428.203 194.546 418.528 167.971 410.418C140.525 402.042 120.912 395.783 110.657 391.056L100.192 413.76ZM429.683 550.036L413.13 568.771C472.085 620.864 485.786 695.478 475.725 825.711L500.651 827.636L525.577 829.562C535.792 697.337 524.371 600.343 446.237 531.302L429.683 550.036ZM672.986 787.258V812.258C759.393 812.258 856.671 759.41 865.179 658.122L840.266 656.029L815.354 653.937C809.862 719.318 744.83 762.258 672.986 762.258V787.258ZM840.266 656.029L865.179 658.122C867.857 626.237 868.321 592.841 859.322 562.903C849.925 531.64 830.425 504.914 795.832 487.363L784.521 509.658L773.209 531.953C794.672 542.842 805.666 558.09 811.439 577.296C817.61 597.828 817.919 623.397 815.354 653.937L840.266 656.029ZM596.949 696.407H571.949C571.949 725.859 578.427 754.703 595.383 776.754C613.117 799.816 639.874 812.258 672.986 812.258V787.258V762.258C653.387 762.258 642.126 755.517 635.019 746.275C627.134 736.021 621.949 719.439 621.949 696.407H596.949ZM873.77 504.611V529.611C878.532 529.611 922.95 526.993 964.266 524.519C985.348 523.257 1006.19 521.994 1021.77 521.048C1029.55 520.574 1036.02 520.18 1040.55 519.904C1042.81 519.766 1044.58 519.657 1045.79 519.583C1046.4 519.546 1046.86 519.518 1047.17 519.499C1047.33 519.489 1047.45 519.482 1047.53 519.477C1047.57 519.474 1047.6 519.473 1047.62 519.471C1047.63 519.471 1047.64 519.47 1047.64 519.47C1047.64 519.47 1047.64 519.47 1047.65 519.47C1047.65 519.47 1047.65 519.47 1046.12 494.516C1044.59 469.563 1044.59 469.563 1044.59 469.563C1044.59 469.563 1044.59 469.563 1044.58 469.564C1044.58 469.564 1044.57 469.564 1044.56 469.565C1044.54 469.566 1044.51 469.568 1044.47 469.57C1044.39 469.575 1044.28 469.582 1044.12 469.592C1043.81 469.611 1043.34 469.639 1042.74 469.676C1041.53 469.75 1039.76 469.859 1037.5 469.997C1032.98 470.272 1026.51 470.667 1018.73 471.14C1003.17 472.086 982.34 473.347 961.277 474.608C940.21 475.87 918.928 477.13 902.449 478.075C894.205 478.547 887.193 478.939 882.022 479.212C879.431 479.349 877.343 479.454 875.809 479.523C874.008 479.606 873.551 479.611 873.77 479.611V504.611ZM1046.12 494.516L1047.83 519.458L1194.84 509.363L1193.12 484.422L1191.41 459.481L1044.41 469.575L1046.12 494.516ZM1046.12 494.516L1021.19 492.656L997.838 805.587L1022.77 807.447L1047.7 809.308L1071.05 496.377L1046.12 494.516ZM1284.66 438.996C1261.59 429.377 1261.58 429.38 1261.58 429.385C1261.58 429.388 1261.58 429.394 1261.58 429.4C1261.57 429.412 1261.56 429.428 1261.56 429.448C1261.54 429.488 1261.52 429.544 1261.49 429.616C1261.43 429.76 1261.34 429.968 1261.23 430.237C1261.01 430.776 1260.69 431.563 1260.27 432.581C1259.44 434.617 1258.24 437.583 1256.75 441.358C1253.76 448.903 1249.57 459.693 1244.74 472.756C1235.1 498.828 1222.82 534.196 1212.44 571.013C1202.15 607.538 1193.34 646.778 1191.28 680.196C1190.25 696.86 1190.79 713.446 1194.42 728.075C1198.04 742.664 1205.43 757.94 1220.14 767.709L1233.97 746.88L1247.8 726.051C1247.31 725.726 1244.88 723.809 1242.95 716.04C1241.03 708.311 1240.31 697.374 1241.18 683.281C1242.92 655.186 1250.59 619.978 1260.57 584.58C1270.46 549.473 1282.27 515.441 1291.64 490.094C1296.31 477.447 1300.36 467.023 1303.23 459.782C1304.66 456.162 1305.8 453.342 1306.58 451.44C1306.96 450.489 1307.26 449.768 1307.46 449.293C1307.55 449.055 1307.63 448.878 1307.67 448.765C1307.7 448.708 1307.72 448.667 1307.73 448.642C1307.73 448.63 1307.73 448.622 1307.74 448.617C1307.74 448.615 1307.74 448.615 1307.74 448.614C1307.74 448.614 1307.74 448.616 1284.66 438.996ZM1233.97 746.88L1220.14 767.709C1238.98 780.213 1258.88 774.865 1272.83 766.547C1286.33 758.495 1298.98 745.333 1310.35 731.131C1333.46 702.273 1357.39 661.203 1378.53 621.564C1399.81 581.684 1419.17 541.5 1432.67 514.362C1439.62 500.384 1444.65 490.612 1447.74 485.464C1448.09 484.888 1448.36 484.446 1448.58 484.119C1448.8 483.783 1448.9 483.642 1448.89 483.648C1448.89 483.656 1448.83 483.732 1448.73 483.86C1448.63 483.985 1448.45 484.206 1448.19 484.491C1447.83 484.882 1446.57 486.247 1444.48 487.657C1442.95 488.69 1437.14 492.422 1428.71 491.621C1418.06 490.61 1411.86 483.516 1409.3 478.596C1407.17 474.518 1406.85 470.991 1406.77 470.091C1406.65 468.764 1406.7 467.87 1406.71 467.709L1431.67 469.28L1456.62 470.851C1456.7 469.572 1456.75 467.749 1456.57 465.678C1456.43 464.033 1455.96 459.947 1453.64 455.486C1450.88 450.184 1444.42 442.888 1433.44 441.845C1424.67 441.013 1418.47 444.886 1416.49 446.226C1412.16 449.148 1409.43 452.92 1408.61 454.028C1407.26 455.86 1406 457.853 1404.88 459.708C1400.56 466.897 1394.62 478.576 1387.9 492.099C1374.04 519.963 1355.24 558.988 1334.42 598.03C1313.46 637.314 1291.34 674.88 1271.32 699.88C1261.13 712.607 1252.96 720.179 1247.21 723.606C1241.92 726.766 1244.17 723.641 1247.8 726.051L1233.97 746.88ZM1431.67 469.28L1406.71 467.709C1403.19 523.637 1398.05 601.833 1393.79 666.071C1391.66 698.185 1389.75 726.801 1388.37 747.389C1387.68 757.683 1387.13 765.969 1386.75 771.682C1386.55 774.539 1386.41 776.752 1386.3 778.25C1386.25 779 1386.22 779.57 1386.19 779.954C1386.18 780.146 1386.17 780.29 1386.16 780.387C1386.16 780.436 1386.16 780.472 1386.15 780.496C1386.15 780.509 1386.15 780.518 1386.15 780.524C1386.15 780.527 1386.15 780.529 1386.15 780.531C1386.15 780.532 1386.15 780.533 1411.09 782.211C1436.04 783.889 1436.04 783.888 1436.04 783.887C1436.04 783.885 1436.04 783.883 1436.04 783.88C1436.04 783.874 1436.04 783.864 1436.04 783.852C1436.04 783.828 1436.04 783.791 1436.05 783.742C1436.05 783.645 1436.06 783.5 1436.08 783.308C1436.1 782.924 1436.14 782.353 1436.19 781.603C1436.29 780.103 1436.44 777.888 1436.63 775.03C1437.02 769.314 1437.57 761.025 1438.26 750.727C1439.64 730.132 1441.55 701.506 1443.68 669.38C1447.94 605.139 1453.09 526.87 1456.62 470.851L1431.67 469.28ZM1543.19 418.807C1518.21 417.724 1518.21 417.724 1518.21 417.725C1518.21 417.726 1518.21 417.728 1518.21 417.73C1518.21 417.734 1518.21 417.74 1518.21 417.747C1518.21 417.763 1518.21 417.787 1518.2 417.819C1518.2 417.883 1518.2 417.98 1518.19 418.107C1518.18 418.362 1518.16 418.741 1518.14 419.239C1518.1 420.235 1518.03 421.705 1517.95 423.597C1517.78 427.381 1517.54 432.853 1517.23 439.599C1516.62 453.092 1515.76 471.676 1514.77 492.041C1512.79 532.878 1510.3 580.531 1508.24 608.783L1533.17 610.604L1558.11 612.424C1560.22 583.472 1562.74 535.226 1564.72 494.466C1565.71 474.033 1566.57 455.394 1567.18 441.863C1567.49 435.097 1567.73 429.607 1567.9 425.807C1567.99 423.907 1568.05 422.43 1568.1 421.426C1568.12 420.925 1568.13 420.541 1568.15 420.283C1568.15 420.154 1568.16 420.056 1568.16 419.991C1568.16 419.958 1568.16 419.933 1568.16 419.916C1568.16 419.908 1568.16 419.901 1568.16 419.897C1568.16 419.895 1568.16 419.893 1568.16 419.892C1568.16 419.891 1568.16 419.89 1543.19 418.807ZM1533.17 610.604L1508.24 608.783C1506.43 633.536 1503.78 674.022 1501.6 708.232C1500.5 725.356 1499.52 740.938 1498.81 752.24C1498.45 757.891 1498.17 762.472 1497.97 765.641C1497.87 767.225 1497.79 768.457 1497.74 769.293C1497.72 769.71 1497.7 770.029 1497.68 770.244C1497.68 770.351 1497.67 770.432 1497.67 770.487C1497.67 770.514 1497.67 770.535 1497.66 770.548C1497.66 770.555 1497.66 770.56 1497.66 770.564C1497.66 770.566 1497.66 770.567 1497.66 770.568C1497.66 770.569 1497.66 770.569 1522.61 772.116C1547.57 773.663 1547.57 773.663 1547.57 773.662C1547.57 773.661 1547.57 773.66 1547.57 773.658C1547.57 773.655 1547.57 773.65 1547.57 773.643C1547.57 773.63 1547.57 773.61 1547.57 773.583C1547.58 773.529 1547.58 773.448 1547.59 773.342C1547.6 773.129 1547.62 772.811 1547.65 772.395C1547.7 771.562 1547.77 770.333 1547.87 768.752C1548.07 765.589 1548.36 761.015 1548.71 755.371C1549.42 744.084 1550.4 728.523 1551.49 711.425C1553.68 677.19 1556.32 636.92 1558.11 612.424L1533.17 610.604ZM1740.36 597.249L1765.3 599.07L1790.87 249.021L1765.93 247.2L1741 245.379L1715.43 595.428L1740.36 597.249ZM1765.93 247.2L1741 245.379L1680.17 1078.18L1705.1 1080L1730.04 1081.82L1790.87 249.021L1765.93 247.2ZM1838.89 671.171L1820.24 687.82L1901.35 778.671L1920 762.022L1938.65 745.373L1857.54 654.522L1838.89 671.171ZM784.521 509.658L795.832 487.363C770.688 474.607 738.24 478.865 710.238 489.569C680.984 500.751 650.723 521.033 626.729 548.849L645.66 565.178L664.591 581.507C683.099 560.049 706.449 544.545 728.091 536.273C750.984 527.522 766.715 528.658 773.209 531.953L784.521 509.658ZM645.66 565.178L626.729 548.849C607.587 571.042 594.064 598.776 585.317 624.692C576.592 650.54 571.949 676.582 571.949 696.407H596.949H621.949C621.949 683.254 625.261 662.696 632.691 640.682C640.099 618.734 650.931 597.344 664.591 581.507L645.66 565.178ZM1533.17 610.604L1534.78 635.552L1741.97 622.197L1740.36 597.249L1738.76 572.301L1531.56 585.655L1533.17 610.604Z" fill="#EAF0F6"/>
</svg>
