<svg width="1388" height="442" viewBox="0 0 1388 442" fill="none" xmlns="http://www.w3.org/2000/svg">
<path d="M749.556 328.087C745.171 328.242 727.545 327.894 719.907 327.956C728.569 326.392 765.365 327.531 749.556 328.087ZM462.454 266.338C456.156 266.945 449.604 267.567 443.39 268.186C453.112 267.963 464.765 267.531 476.288 267.159C485.54 266.861 495.094 266.59 502.611 266.526C505.361 266.503 498.264 267.846 504.774 267.695C511.321 267.545 510.083 266.045 519.422 265.602C530.148 265.087 578.486 264.808 595.342 264.348C658.047 262.589 721.267 260.197 784.057 259.313C719.28 262.017 784.608 261.592 802.755 260.66C806.763 260.446 806.076 257.619 871.069 256.739C912.372 256.164 874.384 261.214 943.17 257.414C890.135 255.911 942.273 254.804 983.747 253.596C990.922 253.397 1048.7 252.236 1074.15 251.322C1082.9 251.015 1095.97 249.116 1107.69 248.7C1115.62 248.419 1121.69 249.04 1133.47 248.599C1147.79 248.064 1162.26 247.506 1176.28 246.941C1215.86 245.213 1259.55 243.881 1292.28 240.465C1288.36 241.772 1285.42 242.543 1285.15 242.932C1284.78 243.32 1286.67 243.327 1289.16 243.12C1290.51 243.002 1291.84 242.847 1293.04 242.661C1293.54 242.584 1294.08 242.481 1294.16 242.452C1294.21 242.438 1294.16 242.436 1293.87 242.494C1293.55 242.563 1293.22 242.616 1291.96 242.982C1291.36 243.158 1290.62 243.392 1289.69 243.731C1288.49 244.167 1286.71 244.869 1284.46 246.024C1282.87 246.875 1277.73 249.436 1271.94 255.144C1266.33 259.488 1252.86 280.531 1256.95 300.9C1257.67 305.533 1258.91 309.53 1260.26 312.824C1261.46 315.742 1262.66 317.992 1263.83 319.95C1266.12 323.762 1268.41 326.453 1269.58 327.771C1272.3 330.777 1273.67 331.836 1274.22 332.337C1275.26 333.141 1274.04 332.509 1269.51 328.112C1268.29 326.883 1266.69 325.18 1264.86 322.83C1263.94 321.638 1262.99 320.321 1261.92 318.656C1260.71 316.758 1259.44 314.52 1258.21 311.839C1255.78 306.445 1253.46 299.466 1253.25 289.981C1252.87 281.031 1256.07 269.863 1259.24 264.105C1265.32 252.199 1273.87 246.047 1276.5 244.122C1280.12 241.512 1283.84 239.619 1285.44 238.865C1293.08 235.409 1295.28 235.149 1298.26 234.28C1301.45 233.388 1303.29 232.803 1303.62 232.748C1306.45 232.305 1304.4 233.303 1298.45 235.044C1297.34 235.335 1296.17 235.665 1294.89 236.064C1294.25 236.263 1293.58 236.481 1292.88 236.722C1292.14 236.975 1290.95 237.399 1289.86 237.83C1287.39 238.874 1285.81 239.316 1280.23 242.626C1278.98 243.4 1277.63 244.295 1276.19 245.363C1274.64 246.545 1273.63 247.256 1270.84 249.876C1265.9 254.918 1260.73 260.216 1256.4 273.326C1252.06 286.73 1254.63 301.673 1258.11 309.519C1261.83 318.205 1265.03 321.711 1267.33 324.535C1269.79 327.349 1271.26 328.661 1272.43 329.73C1273.59 330.772 1274.31 331.353 1274.72 331.683C1275.49 332.282 1275.23 332.16 1273.07 330.156C1271.32 327.295 1264.97 326.502 1258.35 303.778C1255.36 291.707 1258.44 275.77 1264.22 266.555C1270.86 255.976 1273.9 254.549 1277.47 251.48C1279.15 250.197 1280.66 249.203 1282.01 248.391C1282.79 247.923 1283.03 247.79 1283.48 247.539C1283.89 247.312 1284.28 247.103 1284.66 246.908C1286.16 246.132 1287.4 245.585 1288.44 245.159C1288.96 244.948 1289.44 244.766 1289.86 244.611C1290.16 244.501 1290.44 244.403 1290.7 244.314C1291.23 244.138 1291.67 244 1292.06 243.887C1292.82 243.665 1293.38 243.532 1293.61 243.485C1294.18 243.365 1294.37 243.354 1294.36 243.376C1294.36 243.398 1294.24 243.443 1294.06 243.495C1293.29 243.712 1292.35 243.923 1292.49 243.995C1292.55 244.032 1292.88 244.034 1293.34 244.013C1293.71 244.01 1294.64 243.898 1294.44 243.985C1294.31 244.011 1294.05 244.058 1293.25 244.27C1292.78 244.398 1292.16 244.577 1291.34 244.853C1290.9 245.001 1290.54 245.124 1289.86 245.382C1289.1 245.668 1288.23 246.024 1287.2 246.495C1286.16 246.966 1284.98 247.551 1283.6 248.328C1282.23 249.092 1279.34 250.86 1276.54 253.183C1273.52 255.885 1270.86 257.627 1265.49 265.927C1260.81 273.514 1257.38 283.994 1258.03 295.518C1260.67 318.827 1268.76 323.312 1271.08 326.954C1273.98 330.083 1275.15 330.897 1275.52 331.248C1275.87 331.535 1275.44 331.199 1274.16 330.108C1272.78 328.847 1270.75 327.385 1266.53 322.178C1263.58 318.018 1252.81 305.435 1255.45 281.894C1256.14 276.547 1257.94 270.872 1259.86 266.798C1261.51 263.215 1263.45 260.068 1265.43 257.399C1269.22 252.186 1274.14 248.068 1275.81 246.815C1285.91 239.554 1288.71 239.482 1292.23 237.985C1295.01 237.022 1296.75 236.549 1298.7 236.049C1302.32 235.143 1306.52 233.907 1306.79 233.759C1306.65 233.833 1306.43 233.784 1303.67 235.162C1302.19 236.035 1300.25 236.607 1294.44 241.538C1291.8 244.166 1286.76 247.746 1281.3 260.017C1274.81 272.105 1277.64 297.411 1285.17 306.93C1291.59 316.772 1296.5 319.647 1299.3 321.767C1302.38 323.858 1304.05 324.659 1305.46 325.359C1308.14 326.632 1309.13 326.92 1309.89 327.197C1311.25 327.647 1311.12 327.572 1310.82 327.51C1307.51 326.65 1303.19 325.481 1296.92 321.969C1293.81 320.184 1290.18 317.732 1286.35 314.043C1282.55 310.8 1273.95 299.48 1271.7 288.351C1268.91 276.894 1270.65 265.986 1273.14 258.939C1275.18 253.244 1276.71 250.744 1278.42 247.918C1281.77 242.691 1284.44 240.004 1286.49 237.953C1292.06 232.732 1293.9 231.918 1295.27 230.897C1297.99 229.1 1298.68 228.716 1299.2 228.365C1299.64 228.085 1299.55 228.1 1298.78 228.673C1297.98 229.313 1296.47 230.299 1293.39 233.751C1290.67 237.266 1283.72 244.275 1282.07 261.581C1280.66 280.209 1290.86 294.192 1295.41 298.562C1298.38 301.565 1299.79 302.544 1301.41 303.735C1302.94 304.821 1304.25 305.581 1304.93 305.956C1306.5 306.822 1307.45 307.197 1307.74 307.321C1308.12 307.476 1308.12 307.47 1307.95 307.421C1307.78 307.371 1307.43 307.27 1306.91 307.136C1306.01 306.903 1304.59 306.579 1303.07 306.278C1300.05 305.678 1296.5 305.098 1292.38 304.527C1315.17 308.169 1261.22 303.693 1249.04 302.354C1251.95 304.386 1205.56 300.29 1158.65 298.215C1123.16 296.497 1088.41 295.182 1078.22 295.555C1073.26 295.769 1105.51 297.683 1030.9 296.265C1022.89 296.122 1025.92 295.12 1021.71 295.187C1019.2 295.227 1003.74 298.382 987.456 296.511C981.515 295.847 1019.64 293.794 935.738 294.408C969.238 297.74 819.108 296.083 791.472 295.323C796.99 295.765 802.503 296.207 808.04 296.65C780.717 295.464 775.776 296.594 769.614 296.536C744.815 296.304 710.664 295.182 687.528 295.275C660.435 295.378 660.374 297.444 628.764 296.586C636.249 297.056 643.758 297.523 651.257 297.987C629.419 297.849 607.597 297.691 585.787 297.501C636.313 294.937 574.888 297.343 570.817 297.369C564.369 297.439 573.632 296.365 562.859 296.454C561.745 296.47 563.362 297.535 546.669 297.562C511.925 297.593 517.312 296.289 502.78 296.19C501.461 296.182 506.083 297.186 480.824 297.165C400.503 296.944 481.308 296.477 484.305 296.343C488.355 296.189 460.861 292.052 529.067 293.982C506.097 293.376 503.919 291.591 501.33 291.529C498.971 291.488 459.355 291.33 457.131 291.347C437.681 291.699 454.767 293.111 450.977 293.278C447.949 293.438 399.908 291.159 388.763 294.507C365.758 290.71 402.04 291.827 440.393 291.824C445.965 291.235 403.851 289.937 401.594 289.874C347.136 288.824 377.24 292.127 365.329 293.631C359.045 294.41 336.76 291.992 357.3 294.945C307.801 293.94 337.808 293.278 334.675 292.997C329.738 292.561 312.479 292.748 310.324 292.579C307.097 292.337 318.356 291.849 305.633 291.141C303.52 291.03 283.116 291.806 309.382 293.378C274.48 292.005 277.088 293.26 265.474 290.291C264.488 290.445 263.556 290.58 262.674 290.697C241.445 293.391 247.823 286.701 238.769 286.034C213.402 284.132 220.921 288.2 219.482 288.318C210.135 289.145 140.484 283.843 122.628 282.636C130.06 280.707 178.459 286.607 189.297 286.593C225.793 286.956 138.419 282.214 164.963 280.417C153.627 280.623 142.545 280.786 131.446 280.851C110.821 276.825 140.908 279.16 84.2115 273.965C75.1605 274.992 124.151 277.855 114.188 278.269C108.763 278.813 75.3659 275.282 74.2342 275.347C73.8725 276.044 104.251 278.866 99.194 279.097C96.8733 279.309 87.868 278.654 77.1502 277.279C71.3931 276.527 65.5452 275.656 58.8317 274.309C57.0664 273.953 55.3519 273.581 53.6744 273.188C51.6763 272.721 49.638 272.202 47.6461 271.636C42.9847 270.114 38.8857 269.609 27.847 263.323C24.2908 261.14 20.059 258.243 15.2464 253.172C8.4991 246.009 -0.768833 232.351 0.0526047 212.269C0.488155 202.716 3.52347 194.209 6.91693 188.131C10.1222 182.486 12.3185 179.98 14.8464 177.159C19.7071 171.933 23.8706 169.194 25.8329 167.883C30.5504 164.819 34.0513 163.314 35.9238 162.498C38.064 161.585 39.8836 160.924 41.2827 160.449C46.0706 158.876 48.0587 158.542 47.0123 158.972C46.4643 159.211 45.1377 159.665 42.715 160.573C41.6309 160.987 39.688 161.71 37.25 162.781C35.0037 163.847 31.3252 165.206 24.6511 169.871C23.195 170.905 19.9361 173.385 16.9611 176.44C15.4104 178.02 13.754 179.881 12.0476 182.158C11.1954 183.296 10.3322 184.539 9.47501 185.904C8.63002 187.232 7.25474 189.635 6.22902 191.856C1.75148 200.664 -0.496098 215.701 2.51864 227.169C5.1496 238.461 10.9035 246.791 15.7879 252.02C30.5925 266.186 35.4582 265.399 40.4449 267.848C49.5529 270.983 54.4162 271.764 61.1913 273.05C53.4292 271.303 49.1797 271.285 34.1505 264.408C32.0509 263.316 30.0922 262.374 25.8976 259.494C23.974 258.141 21.8716 256.509 19.5971 254.386C19.0289 253.854 18.4505 253.292 17.8636 252.694C17.263 252.077 16.7581 251.557 15.7562 250.427C13.9715 248.4 12.125 246.011 10.352 243.159C6.80599 237.447 3.60093 229.927 2.60032 220.666C1.47446 210.874 3.56172 200.742 6.89245 193.462C10.7087 185.364 13.0267 183.001 15.7968 179.691C18.4629 176.706 20.9282 174.558 23.1306 172.84C27.0891 169.829 29.116 168.764 31.5461 167.443C32.6773 166.847 33.8204 166.294 34.7283 165.883C35.5052 165.534 36.248 165.22 36.9642 164.93C39.8004 163.781 42.4082 162.951 44.1344 162.468C58.7751 158.657 65.9409 158.432 76.6793 155.973C88.6276 153.37 29.7626 158.91 94.2715 148.436C102.022 147.368 111.758 146.095 124.036 144.643C125.618 145.563 107.33 147.781 94.3898 149.326C87.0356 150.199 81.113 150.995 80.7232 151.1C78.9943 151.547 88.2254 154.074 89.5402 154.099C90.1108 154.089 91.9608 153.866 94.942 153.482C116.42 150.281 204.035 138.97 224.437 139.859C215.326 137.92 305.705 134.544 315.247 133.9C317.843 133.613 308.063 132.618 310.838 132.367C328.168 130.762 375.109 131.883 396.604 131.582C420.852 131.197 417.705 130.102 419.084 130.074C420.921 130.056 422.204 130.069 423.093 130.101C427.305 130.262 422.409 130.887 427.782 130.804C437.617 130.59 504.959 130.066 508.33 129.918C509.316 129.859 498.318 128.591 512.988 128.227C515.521 128.175 513.941 129.739 557.341 128.839C609.596 127.792 521.042 127.012 542.746 125.245C576.344 127.467 575.23 125.129 584.333 125.28C587.482 125.336 610.94 127.275 636.375 127.108C618.119 127.464 599.849 127.83 581.576 128.217C599.548 128.505 634.412 128.001 649.193 128.381C656.402 128.565 650.471 130.223 666.127 130.159C669.444 130.137 682.645 126.095 641.607 127.957C638.323 126.526 657.859 127.432 666.908 127.015C668.271 126.95 673.688 124.545 685.239 126.023C688.008 126.384 657.837 133.425 735.713 128.259C738.217 128.091 729.506 127.229 731.955 127.043C733.619 126.919 753.514 127.239 755.688 127.109C757.929 126.971 748.349 126.033 751.017 125.84C764.711 124.843 782.717 128.594 754.45 128.368C763.912 128.818 773.321 129.265 782.786 129.706C772.672 126.875 797.619 128.861 810.648 128.713C894.253 127.692 838.252 126.138 852.616 125.095C875.702 123.369 858.071 128.431 892.328 126.625C895.472 126.416 854.164 124.938 934.861 125.018C922.983 125.29 911.02 125.532 899.145 125.749C906.049 128.459 942.091 124.975 944.914 124.863C960.825 124.385 963.356 124.475 967.852 124.403C972.462 124.318 978.905 124.097 1002.15 122.781C1006.29 122.543 1015.51 122.972 1024.39 122.355C1061.38 119.826 975.455 122.945 972.988 121.737C971.908 121.373 1064.5 118.795 1067.45 118.689C1080.86 119.345 1025.8 120.77 1036.28 121.794C1040.67 122.739 1170.27 115.097 1196.32 111.75C1207.77 110.854 1217.11 110.593 1224.24 110.439C1235.86 110.199 1241.15 110.131 1241.03 107.501C1249.93 110.762 1256.99 107.156 1260.6 106.76C1265.02 106.286 1268.96 105.806 1271.25 105.459C1271.79 105.38 1272.22 105.308 1272.36 105.288C1272.48 105.276 1272.35 105.286 1271.31 105.575C1270.72 105.746 1269.95 105.962 1268.47 106.506C1266.97 107.092 1264.74 107.843 1260.44 110.407C1256.45 113.247 1245.94 118.433 1238.73 137.599C1235.54 146.727 1235.61 156.322 1236.62 162.198C1237.59 168.038 1238.91 171.25 1239.71 173.294C1243.29 181.582 1245.97 184.135 1247.72 186.276C1249.49 188.241 1250.57 189.157 1251.35 189.826C1252.87 191.085 1253.27 191.267 1253.41 191.36C1253.59 191.449 1252.64 190.869 1251.55 190.326C1249.28 189.183 1246.23 187.87 1242.74 186.535C1237.08 184.514 1228.21 179.5 1223.33 175.428C1220.98 173.544 1220.13 172.798 1220.43 173.073C1220.7 173.311 1221.94 174.231 1222.87 174.798C1227.34 177.294 1225.36 175.867 1220.61 175.007C1214.8 173.784 1208.14 171.551 1205.37 171.368C1203.64 171.265 1206.7 173.001 1198.53 172.355C1188.04 170.895 1114.03 164.495 1108.38 163.724C1103.02 162.651 1139.97 165.202 1133.36 163.613C1106.8 161.835 1080.66 160.94 1053.45 159.754C1053.16 159.741 1052.89 159.729 1052.62 159.716C1042.53 159.238 1047.9 158.629 1043.15 158.433C1041.02 158.325 1001.53 157.683 1003.34 158.073C1004.83 158.443 1029.01 159.345 1052.6 160.375C1083.61 161.694 1114.16 163.546 1096.26 163.479C1089.91 163.44 1068.61 160.539 1071.84 163.08C1065.64 162.783 1059.2 162.49 1052.53 162.201C950.953 157.851 848.392 154.693 746.077 151.659C808.714 151.393 879.021 154.821 944.419 156.645C953.404 156.891 983.705 158.089 980.027 156.763C924.307 154.634 855.322 153.371 801.741 151.218C800.038 151.148 806.316 150.221 799.945 149.886C788.018 149.255 748.889 150.041 742.355 149.432C741.208 149.298 763.504 148.41 756.757 147.334C739.416 144.571 734.991 149.643 720.024 149.223C708.54 148.887 631.082 144.594 611.747 145.755C591.187 146.977 668.835 148.021 663.066 149.275C610.496 149.451 557.414 146.81 507.701 145.92C506.826 145.906 514.409 147.148 503.312 147.062C484.103 146.915 478.969 145.275 469.626 144.832C459.587 144.357 423.74 143.824 418.933 143.165C418.321 143.079 425.618 141.712 426.73 141.693C442.378 141.395 447.788 143.481 449.232 143.537C454.557 143.724 459.9 143.081 464.697 143.227C472.666 143.471 477.051 144.263 487.678 144.55C494.935 144.75 487.957 143.259 494.953 143.469C497.495 143.551 525.311 147.211 527.934 144.14C528.782 143.138 301.374 137.126 278.536 137.426C297.869 138.211 317.564 139 336.997 139.783C297.472 138.044 249.879 139.53 246.408 135.754C236.63 135.523 226.116 135.274 216.422 135.039C198.428 134.601 180.295 133.969 161.944 132.868C152.643 132.302 143.433 131.636 133.709 130.657C128.885 130.166 123.833 129.589 118.501 128.805C115.754 128.397 112.943 127.946 109.632 127.287C107.931 126.944 106.177 126.571 103.853 125.973C102.731 125.68 101.405 125.321 99.6595 124.76C97.8336 124.12 96.0489 123.71 91.0182 121.196C88.1105 119.68 85.1503 118.045 81.6786 115.832C78.0814 113.374 74.5536 111.539 67.4519 104.194C65.6814 102.197 63.232 99.6932 59.8611 93.6983C56.7323 88.2149 51.9076 75.7654 54.6345 61.5398C57.3749 47.4098 64.5432 39.5335 68.5878 35.476C72.9519 31.2772 75.9762 29.4308 78.407 27.9294C87.5675 22.7599 90.6982 22.341 94.3974 21.0501C101.809 18.9016 104.76 18.647 108.435 18.0371C111.882 17.5285 114.896 17.1816 117.84 16.8761C123.759 16.2703 129.122 15.8775 134.531 15.5368C145.283 14.872 155.533 14.4907 165.852 14.2029C186.409 13.6465 206.535 13.5182 226.712 13.5533C279.604 13.6326 332.59 12.7754 386.196 11.7955C412.163 11.5616 398.005 14.2557 441.131 12.5975C429.837 12.0969 418.843 11.5848 407.637 11.0701C429.738 11.1535 527.668 9.87269 543.514 9.00328C545.52 8.89189 548.542 6.66741 572.861 5.91016C594.777 5.23283 598.061 6.76979 609.775 6.80814C619.659 6.8351 630.463 6.16789 633.386 6.191C635.61 6.21206 636.507 7.17718 641.876 7.2286C658.859 7.38118 645.105 4.91147 661.867 7.72792C657.788 7.93892 653.794 8.14863 649.67 8.36177C669.924 8.37118 698.014 9.21805 667.882 10.5821C662.728 10.8179 667.134 9.76812 663.292 9.85388C512.611 13.4586 632.864 12.5203 685.822 9.91645C699.297 11.0161 775.445 8.65561 777.977 8.91239C781.516 9.25133 768.456 10.6173 785.622 11.2809C789.084 11.3718 891.004 8.99448 854.335 11.438C846.723 11.9257 797.912 12.3195 786.246 12.5982C813.881 15.0682 878.709 9.80286 886.032 9.83667C915.533 9.90277 829.46 13.2062 895.853 12.6493C946.783 12.2865 898.916 10.8736 918.521 9.78305C929.586 9.14745 987.264 10.8057 985.679 7.9871C1005.52 7.5292 993.918 9.12951 996.367 9.21894C998.799 9.28629 1037.73 8.18922 1050.36 8.75477C1051.89 8.82338 1047.08 10.3249 1048.66 10.4398C1051.72 10.6229 1089.35 10.2292 1090.83 10.1136C1091.79 10.0247 1082.84 8.74004 1086.52 8.41987C1090.78 8.03825 1127 8.3474 1128.97 7.99103C1131.8 7.4189 1087.12 7.78497 1094.57 6.33895C1115.19 6.67423 1148.71 5.77378 1162.3 4.66983C1158.99 4.98676 1138.99 4.97223 1132.07 4.84676C1135.33 2.70966 1178.21 2.89812 1163.55 4.52496C1172.86 3.66174 1166.51 3.15466 1171.76 2.32623C1173.13 2.1151 1186.38 2.14176 1188.94 1.7914C1189.28 1.71841 1175.6 0.84005 1178.34 0.424007C1183.33 -0.346809 1223.44 0.122482 1226.75 0.374378C1236 1.03488 1203.23 1.45031 1200.51 2.33899C1200.11 2.46659 1227.95 4.45039 1228.37 4.61732C1229.98 6.2883 1199.01 4.83495 1202.54 6.36708C1210.19 6.739 1217.85 7.11813 1225.52 7.50472C1195.95 8.71903 1141.32 7.72848 1127.23 9.45962C1171.03 8.98771 1216.84 9.43568 1216.72 13.3266C1216.67 14.9602 1197.78 15.7765 1198.51 16.2011C1201.28 17.7025 1227.51 16.3003 1228.48 16.395C1229.28 16.4933 1229.64 16.5851 1229.64 16.6712C1229.64 16.6712 1229.64 16.6712 1229.64 16.6713C1229.62 17.5298 1192.25 17.8608 1190.39 18.2616C1187.26 18.9476 1203.84 21.9697 1203.81 22.6162C1203.23 22.7346 1176.63 23.2595 1185.6 24.4385C1194.69 25.6204 1217.93 25.8265 1218.75 25.956C1223.18 26.66 1182.51 26.9811 1181.27 27.3918C1180.63 27.5868 1202.48 28.971 1203.11 29.3385C1203.65 29.6999 1187.05 30.3705 1180.49 31.4724C1175.6 32.2879 1189.81 33.0144 1187.31 33.1328C1185.5 33.1951 1147.12 33.0136 1145.19 33.1705C1142.38 33.3816 1151.39 34.4147 1150.08 34.663C1148.21 35.0178 1135.79 34.6238 1137.41 35.001C1138.64 35.2601 1186.7 38.9293 1186.41 39.876C1185.83 41.4414 1134.94 37.5677 1182.29 44.0372C1182.62 44.0787 1194.17 43.7056 1194.48 43.7474C1201.59 44.9452 1164.63 46.4582 1209.8 46.4647C1125.71 47.9331 1199.33 48.7596 1186.88 51.3481C1182.04 52.3316 1149.52 52.6163 1149.34 52.7785C1152.53 54.086 1162.87 53.1168 1166.4 53.7702C1168.34 54.1277 1139.2 55.4026 1145.75 56.3173C1149.18 56.7768 1180.05 56.7451 1181.35 56.8509C1193.6 57.7668 1178.57 58.5909 1181.25 59.2071C1183.05 59.616 1201.7 59.7684 1202.18 59.8477C1202.98 59.9989 1177.62 61.4637 1172.34 62.0174C1168.32 62.4368 1183.38 63.2032 1180.58 63.3811C1163.71 64.4267 1127.87 61.3999 1162.41 65.6153C1164.51 65.8734 1177.58 65.8343 1177.97 65.888C1186.05 67.0913 1161.97 67.0691 1157.67 68.0108C1150.28 69.6195 1184.84 68.8463 1156.1 69.8832C1177.64 71.0388 1189.71 71.056 1214.93 70.959C1145.01 71.3021 1120.37 75.5221 1197.94 75.8005C1173.26 75.5743 1175.97 78.0003 1168.62 78.0039C1164.06 77.9941 1128.25 75.5149 1144.66 80.9022C1146.73 81.5706 1168.44 80.8043 1161.64 82.1447C1109.46 81.6348 1160.57 82.9997 1160.58 83.1903C1159.87 86.1999 1032.51 83.6872 1010.56 84.3423C985.106 84.9232 962.63 87.6204 957.046 87.6779C938.85 87.8603 953.936 86.4502 949.863 86.028C945.762 85.5921 894.066 88.6144 891.513 88.5328C881.452 88.135 891.635 86.5065 890.589 86.4453C878.136 85.6665 808.67 87.9109 789.301 87.94C789.861 88.8919 828.933 88.2999 804.564 90.2717C776.355 92.5771 774.464 88.3574 773.762 88.1797C643.697 90.5854 513.504 94.1908 383.071 96.9673C384.706 99.2401 469.896 95.6266 471.959 95.8566C483.261 97.41 339.318 100.575 321.46 99.892C335.039 100.167 348.246 100.422 361.952 100.65C338.974 103.716 288.009 101.182 254.614 102.514C243.908 102.955 264.506 103.831 264.17 103.894C251.983 105.017 232.471 104.297 247.19 102.877C237.178 103.357 231.184 103.491 226.712 103.471C217.653 103.438 214.578 102.754 199.844 102.82C198.706 102.834 208.185 103.759 190.724 104.422C182.443 104.575 139.509 106.05 134.792 107.676C132.451 108.157 153.483 110.965 156.074 107.428C202.697 107.699 170.943 105.342 189.161 105.01C191.885 105.044 185.853 106.68 226.712 105.89C228.401 105.862 230.18 105.829 232.058 105.789C230.924 106.236 229.074 106.585 226.712 106.853C210.182 108.603 168.571 107.294 160.848 108.1C144.413 109.349 202.671 109.123 226.712 107.834C229.754 107.631 232.244 107.373 233.905 107.058C226.969 109.823 239.859 107.447 257.507 107.437C277.384 107.404 268.513 108.294 279.136 108.195C308.151 107.875 296.055 106.075 319.878 107.481C296.67 102.414 360.651 106.107 379.144 107.111C348.944 107.996 318.736 108.814 288.375 109.455C290.182 109.719 291.841 109.984 293.564 110.248C285.659 110.307 277.391 110.358 269.589 110.389C270.844 110.104 272.105 109.818 273.37 109.532C247.738 110.881 233.951 110.527 226.712 110.101C222.184 109.838 220.11 109.551 218.821 109.546C201.709 109.502 183.521 109.642 165.507 110.186C156.567 110.459 147.527 110.839 139.064 111.403C134.864 111.685 130.693 112.024 127.099 112.414C125.289 112.61 123.61 112.824 122.377 113.015C121.794 113.104 121.274 113.197 121.115 113.23C121.039 113.245 121.043 113.246 121.238 113.2C121.432 113.152 121.826 113.059 122.633 112.813C122.438 112.87 122.432 112.888 122.998 112.672C123.63 112.391 124.581 112.159 127.915 110.202C129.623 109.125 132.012 107.732 135.954 103.902C139.594 100.209 146.625 92.4296 149.171 78.3804C151.686 64.2213 146.823 52.3367 144.037 47.4807C140.99 42.1204 139.075 40.2811 137.921 38.9533C135.63 36.5247 134.67 35.8784 134.067 35.3881C133.487 34.9474 133.337 34.8644 133.355 34.8734C133.413 34.916 134.138 35.3503 134.981 35.7881C135.043 35.8206 135.104 35.8511 135.163 35.8799C133.742 35.1434 132.683 34.6779 131.922 34.3537C131.263 34.0739 130.748 33.8705 130.318 33.7047C129.516 33.3962 129.119 33.2508 128.765 33.114C128.172 32.88 127.946 32.7581 127.868 32.6625C127.754 32.4813 128.185 32.4291 129.916 32.5973C133.338 32.9077 142.247 34.2113 164.07 36.2681C178.372 37.537 164.684 38.1972 181.145 38.8029C202.027 35.9166 201.55 38.7939 207.75 38.9989C211.72 39.1081 215.215 39.1473 218.537 39.1504C229.999 39.153 237.407 38.7433 238.744 38.7647C261.273 39.1086 294.468 39.9658 319.322 40.3472C319.789 40.3428 306.861 38.9153 323.036 39.5964C328.779 39.8401 379.502 45.8334 424.077 45.1573C412.532 44.582 400.917 44.006 389.367 43.4315C403.037 44.1786 498.388 44.9431 475.105 43.1315C460.924 42.0227 425.863 44.4688 422.069 41.3294C453.837 42.8845 629.239 45.3048 642.885 46.3654C644.772 46.5096 633.128 47.239 635.734 47.425C637.748 47.5648 677.946 48.2489 683.269 48.7571C686.439 49.057 668.669 49.2539 670.103 49.6452C671.364 49.9248 721.54 51.5264 724.425 50.356C712.114 50.5585 677.446 49.3122 695.653 48.689C697.999 48.6135 710.096 49.7014 712.931 49.6036C739.3 48.7003 660.579 47.2109 648.401 46.9337C697.854 46.4673 774.347 50.1559 831.652 50.6367C854.738 52.2776 797.325 51.3266 823.487 52.8664C877.813 56.0795 838.005 51.8155 839.661 51.7266C853.256 51.0315 898.951 57.8996 899.218 53.6512C918.831 54.8559 912.625 55.2064 940.298 55.4736C936.694 55.0697 933.067 54.6661 929.419 54.2627C960.469 52.6734 1025.4 61.0903 1020.75 61.4291C1007.42 62.2217 973.563 59.1347 970.543 59.0939C966.086 59.0312 954.208 62.9445 907.209 57.7159C887.761 60.0333 981.924 61.8967 938.959 62.585C957.702 62.9305 1014.28 65.4606 1056.18 67.3185C1079.47 68.3319 1097.96 69.19 1104.29 69.0594C1106.44 69.0206 1096.69 65.5488 1126.41 68.6546C1140.41 70.1506 1106.54 68.2835 1112.85 69.3048C1118.05 70.1072 1138.15 71.344 1167.06 73.7258C1181.57 74.9614 1198.28 76.4233 1216.84 78.9818C1226.27 80.3452 1236.18 81.8008 1248.24 85.0027C1254.4 86.7813 1261.66 88.692 1271.67 94.6239C1276.5 97.4665 1281.78 102.089 1281.71 101.999C1281.75 102.026 1280.66 101.173 1279.51 100.504C1278.94 100.17 1278.4 99.883 1277.88 99.6387C1277.43 99.4221 1277.02 99.2487 1276.7 99.1235C1282.48 101.376 1288.36 103.81 1295.07 107.231C1298.46 108.983 1302.02 110.917 1306.42 113.923C1308.63 115.458 1311.09 117.245 1314.2 120.107C1317.24 123.299 1321.36 125.997 1326.67 137.807C1327.71 140.791 1330.8 146.93 1329.64 159.122C1328.53 171.569 1319.93 182.568 1315.52 186.057C1305.7 193.978 1302.96 193.652 1300.11 194.979C1295 196.703 1292.91 197.005 1290.65 197.495C1286.35 198.338 1283.43 198.74 1280.37 199.171C1274.36 199.992 1269.06 200.592 1263.71 201.187C1253.14 202.352 1243.13 203.359 1233.36 204.341C1194.1 208.483 1159.66 211.672 1144.75 212.656C1141.41 212.893 1142.52 211.917 1139.27 212.148C1129.22 212.933 1092.44 216.32 1074.62 216.59C1111.88 216.636 1039.66 219.909 1021.39 220.093C993.627 220.611 995.366 218.945 983.278 218.907C979.102 218.886 974.634 218.911 969.896 218.97C924.213 219.572 862.284 222.878 829.875 219.853C831.837 223.343 768.073 218.415 739.1 218.406C716.413 218.418 683.519 220.753 714.137 222.119C674.976 222.008 633.815 222.688 597.161 223.001C591.1 223.053 599.44 222.001 589.101 222.124C588.162 222.143 586.873 223.153 577.998 223.289C504.766 224.48 540.399 222.205 526.696 221.64C519.015 221.335 513.375 221.2 509.225 221.173C551.86 220.651 601.145 220.145 614.322 220.088C603.062 217.857 519.657 220.822 495.29 220.491C494.446 220.477 497.376 219.226 496.519 219.224C496.501 219.224 496.483 219.224 496.465 219.225C487.3 219.164 429.143 220.322 441.148 221.646C444.334 221.992 471.125 221.628 502.902 221.25C494.303 221.594 500.736 222.916 499.219 222.987C482.388 223.729 443.325 223.093 424.536 223.08C422.732 223.077 421.124 223.078 419.739 223.085C416.069 223.105 416.358 223.982 415.758 223.994C401.499 224.044 406.999 221.426 392.422 224.309C373.739 222.503 405.852 222.461 424.52 222.074C432.338 221.902 437.864 221.637 436.275 221.057C435.657 220.831 431.339 220.709 424.499 220.686C385.306 220.071 265.056 225.493 265.814 228.099C265.243 227.867 262.865 227.671 258.213 227.575C247.844 227.215 201.947 231.008 194.232 232.368C192.907 232.584 193.663 234.917 192.011 235.099C187.92 235.322 132.102 239.858 110.98 244.295C122.45 243.113 133.843 241.96 145.16 240.901C127.931 243.042 115.585 244.761 107.229 245.948C85.4309 249.283 92.7496 248.68 107.39 247.159C108.315 247.067 109.264 246.971 110.233 246.872C111.385 246.726 112.515 246.668 113.609 246.533C131.507 244.666 154.048 242.416 154.392 242.586C155.013 242.823 131.763 245.91 107.653 249.136C93.9955 250.889 80.0703 253.242 75.841 254.273C74.9156 254.453 74.815 254.532 76.548 253.666C78.2542 252.605 82.9569 251.002 89.9901 242.517C90.7455 241.559 91.4557 240.571 92.0999 239.593C92.4222 239.104 92.7276 238.619 93.0154 238.142C93.2816 237.702 93.736 236.922 94.0567 236.326C95.4237 233.811 96.3205 231.53 96.8315 230.04C97.7987 226.954 97.6673 227.51 96.0813 231.476C95.3257 233.31 93.783 236.338 92.371 238.437C91.0656 240.426 89.417 242.536 87.6411 244.392C85.8671 246.255 83.9877 247.858 82.2832 249.093C80.9515 250.048 79.8593 250.709 78.8163 251.283C78.3094 251.564 77.258 252.129 76.4888 252.481C75.8263 252.79 75.2169 253.034 74.9469 253.132C74.4329 253.314 75.1666 253.044 76.576 252.7C79.4371 251.973 84.7151 250.974 89.4143 250.191C98.789 248.658 105.253 247.615 92.7963 248.692C90.8612 248.857 81.1054 250.474 75.7626 251.991C74.7376 252.252 73.6342 252.76 75.4742 252.01C75.7121 251.906 75.9601 251.794 76.3304 251.615C76.7631 251.404 77.2849 251.136 77.9109 250.782C78.537 250.428 79.2674 249.988 80.1167 249.418C80.5413 249.133 80.9955 248.814 81.4803 248.455C82.1423 247.965 82.8971 247.37 83.6989 246.678C85.3037 245.287 87.1802 243.46 89.1794 240.892C90.2187 239.534 91.0566 238.379 92.3183 236.228C93.6604 233.911 94.9468 231.173 95.9547 228.059C98.0319 221.913 98.6183 213.881 97.3533 207.322C96.244 201.126 93.87 195.959 91.4978 192.209C86.0047 184.14 83.9481 183.432 81.6894 181.46C79.6417 179.902 77.8045 178.874 77.1945 178.543C75.5892 177.678 74.7872 177.368 74.2924 177.166C74.0274 177.062 73.9417 177.033 73.8394 176.997C73.7455 176.965 73.6831 176.946 73.6388 176.934C73.5511 176.911 73.5308 176.913 73.5179 176.92C73.4466 176.974 73.5433 177.081 73.5385 177.158C73.5453 177.239 73.4672 177.297 73.394 177.356C73.3297 177.42 73.2663 177.476 73.5706 177.672C73.6999 177.763 74.0259 177.922 74.7043 178.266C75.0419 178.438 75.4647 178.656 76.0076 178.955C76.6082 179.292 77.0031 179.499 78.3917 180.375C79.6361 181.18 81.2228 182.273 83.2446 184.075C83.7493 184.527 84.2804 185.026 84.8361 185.581C85.404 186.156 85.8991 186.653 86.9009 187.804C88.6884 189.881 90.6732 192.585 92.4743 196.162C94.271 199.738 95.8288 204.146 96.5184 209.263C97.2924 214.804 96.825 220.824 95.3868 225.919C94.0752 230.891 91.3893 235.738 89.9209 237.834C88.3264 240.2 86.7379 242.036 85.3001 243.5C83.8582 244.964 82.5592 246.061 81.4261 246.933C81.1567 247.14 80.8217 247.389 80.648 247.513C80.459 247.649 80.2748 247.779 80.0956 247.903C79.7371 248.15 79.3981 248.374 79.0776 248.578C77.7958 249.393 76.8139 249.902 76.0696 250.258C74.7523 250.869 74.3254 250.958 74.0966 251.003C73.6324 250.943 76.5974 249.875 79.6058 249.068C92.3077 245.627 109.135 242.83 104.391 242.588C95.8064 244.558 85.7017 246.249 77.5973 248.132C75.8121 248.546 73.9257 249.068 73.4599 249.235C73.3014 249.267 73.3837 249.345 75.2775 248.401C75.8339 248.113 76.5399 247.727 77.44 247.16C78.4101 246.523 79.1638 246.095 81.3243 244.29C83.2638 242.616 85.7522 240.223 88.3597 236.248C91.4109 231.862 95.3683 222.215 94.5873 212.469C93.9566 202.916 90.2781 196.022 86.9537 191.538C86.1168 190.415 85.2922 189.436 84.5024 188.574C83.7738 187.784 83.3891 187.404 82.8599 186.891C81.8626 185.933 80.9437 185.155 80.1116 184.502C78.4467 183.201 77.1202 182.38 76.0956 181.792C75.371 181.378 74.7832 181.079 74.3064 180.85C73.3651 180.399 72.8012 180.194 72.6672 180.14C72.4714 180.065 72.4464 180.057 72.5551 180.085C72.9974 180.211 74.8515 180.641 76.6305 180.945C83.8928 182.162 86.694 181.227 87.651 181.369C103.787 183.203 94.8057 183.259 100.129 183.885C103.083 184.372 137.355 184.744 130.548 187.821C245.575 192.623 160.7 188.817 93.5299 181.56C114.088 183 157.767 186.784 177.289 187.609C184.258 187.917 180.566 186.47 192.152 186.894C203.652 187.332 233.849 189.108 266.949 190.793C305.707 192.811 348.022 194.369 364.807 194.928C345.818 194.913 351.329 196.392 365.97 196.641C380.404 196.869 368.315 194.808 371.136 194.678C374.145 194.616 442.451 196.648 453.866 196.491C402.378 196.422 413.936 197.948 457.659 198.666C451.338 198.974 445.09 199.279 438.697 199.576C464.298 199.424 518.18 201.937 533.092 201.405C535.42 201.322 527.062 200.141 528.367 200.095C541.333 199.721 585.621 201.071 587.718 200.685C589.462 200.373 570.551 199.354 577.571 198.917C579.047 198.826 597.232 200.421 615.201 200.09C621.876 199.968 617.859 198.894 619.54 198.836C633.503 198.354 625.23 200.135 650.817 199.885C669.515 199.695 683.485 197.953 709.373 198.534C624.379 196.265 695.816 197.247 731.371 196.553C737.066 196.442 732.187 194.514 766.23 195.437C693.766 198.967 786.9 197.275 805.953 197.3C806.999 197.311 807.365 198.585 816.714 198.601C817.503 198.6 816.372 197.739 825.047 197.669C907.459 197.032 854.777 198.015 870.437 198.863C877.116 199.222 917.163 198.036 928.016 198.033C930.504 198.035 929.373 198.927 938.972 198.913C955.934 198.886 971.201 197.986 982.454 197.958C983.749 197.961 983.905 199.364 1005.07 199.018C1011.12 198.923 1017.87 198.463 1009.32 198.006C981.149 196.49 927.597 198.66 895.798 197.313C866.76 196.064 958.262 196.061 963.132 196.108C964.886 196.109 946.966 196.754 965.162 196.95C980.563 197.114 1009.19 194.802 1032.2 195.507C1034.01 195.556 1052.55 197.778 1051.67 197.894C1050.94 197.967 1022.39 198.198 1026.57 198.83C1026.99 198.899 1045.18 199.024 1047.51 199.493C1050.41 200.059 1058.02 205.452 1061.94 205.624C1071.91 206.054 1065.44 204.774 1071.86 204.926C1085.39 205.211 1133.39 207.515 1134.78 205.729C1127.01 205.478 1119.1 205.237 1111.12 205.008C1155.04 205.536 1136.35 204.47 1142.6 204.226C1149.11 203.994 1147.59 205.461 1160.72 205.985C1161.18 206.004 1161.67 206.021 1162.17 206.038C1165.75 205.99 1227.92 207.782 1226.81 207.245C1192.2 206.812 1204.99 205.434 1203.39 205.303C1197.65 204.961 1189.63 205.817 1181.5 205.562C1171.62 205.249 1164.82 205.012 1160.74 204.801C1152.65 204.375 1155.94 204.045 1160.77 203.754C1166.8 203.422 1174.73 203.168 1168.74 202.815C1166.69 202.697 1163.71 202.772 1160.78 202.888C1157.28 203.042 1153.92 203.262 1152.82 203.212C1146.51 202.921 1146.41 201.664 1142.15 201.682C1132.15 201.728 1143.79 203.727 1142.99 203.805C1134.11 204.725 1099.53 202.802 1121.17 201.209C1108.11 200.303 1106.77 202.639 1096.51 201.558C1076.09 199.434 1106.68 200.299 1114.88 200.13C1134.11 199.713 1144.68 200.039 1160.84 200.488C1170.44 200.759 1180.26 201.034 1195.8 201.442C1210.74 201.816 1229.33 201.527 1236.43 201.86C1240.75 201.862 1283.74 208.972 1285.56 203.164C1294.44 204.373 1305.18 206.716 1317.44 209.996C1323.56 211.676 1329.98 213.472 1337.82 216.384C1339.98 217.185 1342.3 218.119 1344.54 219.14C1347.14 220.326 1349.98 221.717 1353.42 223.87C1357.39 226.515 1361.61 229.072 1367.68 236.788C1373.63 243.565 1379.63 261.24 1376.22 274.284C1369.78 296.573 1363.1 297.646 1360.14 301.568C1356.87 304.534 1355.03 305.869 1353.67 306.971C1351.04 309.048 1350.4 309.741 1350.1 310.284C1349.62 311.274 1350.68 311.282 1350.1 311.699C1349.98 311.788 1349.79 311.916 1349.64 312.016C1349.51 312.106 1349.36 312.212 1349.6 312.059C1349.92 311.797 1350.17 311.888 1353.54 308.954C1354.15 308.394 1356.04 306.738 1358.46 303.677C1359.68 302.107 1361.13 300.098 1362.67 297.214C1363.44 295.77 1364.23 294.101 1364.99 292.14C1366.12 289.187 1367.24 285.264 1367.71 280.669C1368.89 271.541 1365.99 258.941 1360.13 250.806C1358.72 248.747 1357.22 246.917 1355.73 245.335C1354.82 244.367 1353.91 243.485 1353.02 242.68C1351.22 241.07 1349.49 239.772 1347.88 238.703C1341.37 234.506 1337.12 233.465 1334.2 232.676C1335.48 232.993 1336.91 233.353 1338.96 233.97C1341.2 234.725 1343.21 235.063 1349.46 238.187C1352.61 240.453 1357.34 240.414 1367.79 254.859C1373.27 262.279 1377.35 279.665 1373.48 291.628C1370.03 303.531 1365.16 308.408 1361.98 311.966C1355.83 318.088 1352.97 319.29 1350.56 320.801C1348.28 322.094 1346.69 322.834 1345.31 323.463C1335.7 327.511 1332.8 327.92 1329.9 328.949C1325.13 330.47 1324.72 330.91 1322.74 331.761C1322.92 331.783 1323.19 331.781 1323.77 331.671C1324.29 331.558 1325.28 331.399 1328.09 330.206C1329.03 329.778 1332.44 328.353 1336.9 324.865C1338.96 323.269 1344.33 318.645 1348.28 311.509C1352.75 305.037 1355.99 287.645 1352.81 277.981C1350.2 267.843 1345.92 262.675 1343.88 260.047C1341.46 257.128 1340.15 256.024 1339.33 255.259C1338.52 254.531 1338.33 254.38 1338.62 254.604C1338.95 254.87 1339.74 255.456 1341.55 257.118C1342.98 258.488 1344.51 259.819 1347.43 263.584C1350.19 267.581 1354.36 272.45 1356.72 285.349C1359 298.285 1354.48 312.353 1348.58 320.3C1345.26 324.874 1343.76 326.168 1341.76 328.091C1339.87 329.839 1338.09 331.208 1336.47 332.338C1325.63 339.222 1323.62 338.644 1320.7 339.812C1315.77 341.247 1313.49 341.592 1311.29 342.01C1307.02 342.761 1304.23 343.066 1301.87 343.306C1297.11 343.768 1294.02 343.834 1292.17 343.769C1288.16 343.653 1287.3 343.114 1285.91 343.156C1250.79 343.973 1266.2 345.99 1258.68 346.749C1254.05 347.217 1214.79 348.783 1180.23 349.908C1159.48 350.614 1140.36 351.276 1132.7 351.841C1140.96 351.113 1149.49 350.367 1157.76 349.621C1142.69 348.761 1126.96 351.567 1126.54 349.067C1123.58 353.232 1092.72 351.508 1083.33 351.891C1079.62 352.047 1080 352.727 1075.44 352.895C1057.46 353.566 1017.26 354.15 1007.57 354.76C965.716 357.424 1072.89 356.973 1081.37 356.809C1064.48 357.325 968.999 360.858 1012.91 361.6C1019.72 361.714 1031.75 359.561 1035.51 359.383C1061.4 358.175 1041.08 360.384 1043.11 360.481C1046.61 360.631 1063.44 358.568 1068.02 358.618C1069.5 358.632 1059.96 360.398 1084.53 359.685C1072.5 361.51 1003.2 362.31 994.118 362.87C990.879 363.071 1011.28 365.6 951.971 364.192C952.666 364.458 953.361 364.723 954.056 364.988C921.092 365.962 888.143 366.901 855.205 367.827C858.771 367.086 877.233 365.321 853.945 366.172C840.534 366.661 850.495 367.871 849.271 367.944C837.197 368.656 624.402 373.27 583.194 374.632C569.177 375.052 530.348 377.324 527.235 377.446C518.61 377.758 498.954 378.192 479.995 378.672C460.064 379.171 440.425 379.755 434.253 380.082C426.365 380.497 433.891 381.417 426.875 381.638C420.436 381.842 427.051 380.4 425.139 380.428C410.365 380.421 284.375 387.635 269.304 392.314C276.202 388.954 365.318 380.942 363.119 380.481C362.631 380.376 341.734 380.699 337.384 381.45C330.221 380.87 306.062 385.741 293.928 386.547C292.807 386.698 296.823 384.08 276.828 386.693C273.784 387.164 270.011 388.041 264.43 389.702C260.952 390.715 257.187 391.871 254.277 392.844C252.858 393.312 251.615 393.774 251.405 393.796C251.325 393.787 251.499 393.688 252.451 393.077C253.447 392.349 255.074 391.635 259.452 387.346C271.196 375.405 273.124 362.368 273.171 355.12C273.246 350.261 272.706 346.085 271.166 341.147C270.344 338.632 269.325 335.926 267.128 332.156C264.494 328.384 262.651 323.216 249.815 315.053C248.05 314.031 247.351 313.721 246.877 313.487C246.41 313.265 246.228 313.187 246.135 313.144C245.976 313.072 246.213 313.165 246.591 313.298C247.353 313.57 248.685 314.016 250.23 314.494C253.352 315.465 257.402 316.605 261.958 317.775C271.13 320.134 282.352 322.619 294.529 324.95C340.975 332.934 421.686 332.264 427.84 331.695C428.175 331.61 404.787 330.536 420.54 330.061C441.684 329.4 422.714 332.53 447.372 333.194C448.887 333.233 460.518 333.352 474.491 333.432C495.276 333.556 520.98 333.576 522.235 333.457C543.105 331.7 482.893 330.431 483.724 330.187C485.83 329.667 535.893 329.741 537.949 329.87C540.026 330.023 498.901 332.287 548.14 331.658C542.427 331.317 536.932 330.976 531.262 330.631C554.327 330.197 556.515 331.963 562.134 332.105C579.506 332.542 598.375 329.954 626.244 333.35C633.613 334.25 621.374 335.188 622.304 335.323C631.143 336.533 642.441 333.402 655.803 335.788C656.781 335.962 625.807 337.328 679.978 337.419C676.253 337.188 672.537 336.957 668.788 336.725C676.423 336.245 731.318 335.967 738.698 336.067C760.264 336.395 741.462 338.041 763.137 337.817C749.234 335.626 815.124 335.19 811.363 337.101C820.561 334.678 876.48 336.29 902.855 336.134C919.444 336.057 953.254 334.684 958.52 334.741C964.807 334.822 963.09 336.485 974.586 336.713C977.036 336.76 997.648 335.846 1020.42 335.864C1027.77 335.867 1035.27 335.974 1042.58 336.25C1048.42 336.472 1060.89 339.024 1049.95 339.922C1041.85 340.588 1030.66 340.66 1020.5 340.659C1007.51 340.654 996.208 340.493 996.47 341.423C996.743 342.261 1007.86 342.306 1020.53 342.088C1034.55 341.848 1050.68 341.326 1057.35 341.321C1116.56 341.244 1082.45 343.767 1083.94 344.31C1087.97 345.613 1120.29 344.902 1121.62 344.99C1127.23 345.421 1104.3 346.998 1104.02 347.84C1103.54 348.95 1134.87 350.251 1127.76 350.771C1117.61 351.524 1088.95 350.465 1087.11 350.576C1063.51 352.1 1095.92 353.994 1104.92 355.043C1107.64 355.369 1096.85 356.219 1099.1 356.284C1133.47 357.267 1106.2 352.592 1129.06 352.45C1149.43 352.309 1123.28 354.552 1124.06 354.624C1125.04 354.707 1149.44 354.25 1153.17 354.744C1155.1 355.021 1091.96 359.618 1094.59 360.99C1114.74 360.264 1134.96 359.51 1155.1 358.713C1156.74 360.569 1127.63 359.844 1124.7 360.096C1118.67 360.618 1135.48 361.206 1134.82 361.816C1134.35 362.207 1114.75 363.991 1132.55 364.159C1138.73 364.212 1151.61 362.611 1173.93 363.402C1096.24 366.977 1150.1 366.764 1152.43 367.384C1154.77 367.998 1117.51 370.443 1162.67 369.104C1164.69 372.728 1161.76 370.292 1148.94 371.237C1133.22 372.383 1169.59 372.802 1112.14 373.136C1115.39 374.803 1161.63 373.64 1164.01 373.7C1166.1 373.774 1155.95 374.865 1159.59 375.064C1202.95 377.308 1173.13 376.534 1185.76 378.334C1186.82 378.515 1227.82 378.126 1196.69 379.324C1139.95 381.408 1116.19 379.361 1106.75 384.791C1148.8 386.21 1199.6 381.525 1212.33 381.053C1231.86 380.369 1211.67 382.057 1214.09 382.279C1214.86 382.358 1231.79 381.727 1231.97 381.797C1244.08 385.482 1157.06 384.096 1129.67 385.273C1137.03 385.707 1144.39 386.135 1151.72 386.559C1141.74 386.817 1131.85 387.062 1121.85 387.301C1169.29 387.443 1123.58 387.729 1111.79 391.186C1109.2 391.965 1140.21 390.069 1104.79 392.825C1131 392.738 1122.63 393.577 1146.39 392.133C1145.81 393.454 1092.43 396.067 1071.34 397.111C1145.78 397.061 1103.28 393.246 1167.7 394.254C1179.63 392.365 1148.81 393.427 1151.37 393.096C1160.35 391.935 1181.46 392.953 1206.8 388.896C1210.91 388.227 1193.39 387.076 1219.25 386.378C1222.19 386.306 1238.7 387.183 1238.5 387.286C1236.26 388.5 1220.04 388.613 1219.27 389.099C1218.77 389.567 1236.8 388.705 1237.01 388.811C1237.56 390.207 1221.76 389.865 1224.09 390.226C1229.06 391.042 1294.92 391.765 1209.09 393.787C1280.25 389.843 1218.18 392.069 1190.48 393.368C1183.39 393.71 1181.67 394.598 1171.59 395.143C1158.68 395.846 1143.41 395.793 1136.81 396.094C1129.61 396.419 1170.59 397.515 1111.36 398.21C1141.56 399.568 1194.7 396.208 1224.41 396.61C1284.45 397.37 1182.66 401.412 1172.24 401.757C1169.43 401.901 1178.89 402.798 1177.02 402.914C1173.93 403.132 1116.4 403.926 1110.74 404.959C1105.1 406.018 1131.85 404.467 1133.6 405.402C1134.85 406.059 1065.47 408.648 1103.05 408.332C1128.94 408.131 1176.65 404.346 1184.73 406.958C1146.65 408.189 1108.52 409.225 1070.49 410.192C1091.28 410.877 1112.27 411.534 1133.07 412.157C1093.57 413.345 1058.88 412.975 1021.8 414.7C1018.88 414.837 1015.89 414.988 1012.84 415.152C1016.13 415.215 1019.1 415.275 1021.81 415.335C1067.77 416.288 1047.67 417.197 1021.85 417.873C1002.59 418.377 980.367 418.635 979.659 418.818C979.32 419.065 1012.01 421.031 1021.92 421.618C1022.76 421.669 1023.45 421.711 1023.93 421.743C1023.28 421.775 1022.61 421.807 1021.92 421.839C986.066 423.605 887.397 424.983 946.863 427.862C935.991 427.192 909.168 429.348 909.634 429.488C913.036 431.025 971.158 429.463 961.636 430.936C950.774 432.667 935.15 430.637 918.391 430.947C831.776 432.453 855.572 440.343 768.72 439.309C770.45 439.591 772.179 439.874 773.908 440.156C679.509 439.863 585.216 439.236 490.683 437.911C486.003 438.186 479.811 438.427 473.328 438.641C428.356 439.898 350.026 440.549 302.637 435.832C298.556 435.426 286.381 433.876 274.761 431.365C257.533 427.851 237.278 422.442 234.755 421.579C227.756 419.598 267.34 428.534 249.686 423.708C248.832 423.468 243.295 422.201 235.241 420.096C231.211 419.037 226.526 417.764 221.201 416.145C218.531 415.33 215.704 414.435 212.459 413.299C210.818 412.722 209.126 412.109 206.994 411.26C204.617 410.231 203.202 409.959 196.627 406.296C177.016 393.171 176.476 385.649 172.801 379.157C170.047 372.695 168.71 367.157 168.006 360.922C166.956 349.388 167.396 330.402 184.995 312.19C194.841 302.959 199.31 301.464 203.51 299.07C207.538 297.02 210.616 295.735 213.342 294.632C218.758 292.473 222.766 291.147 226.012 290.059C232.389 287.957 235.471 286.974 233.967 287.063C230.769 287.907 225.566 289.375 218.731 291.81C215.268 293.061 211.425 294.514 206.583 296.774C201.483 299.516 196.42 300.712 184.53 311.721C163.24 335.03 166.665 354.168 168.028 365.464C169.174 371.605 170.885 377.037 174.09 383.3C177.722 389.463 181.015 397.175 196.314 406.832C200.628 409.287 201.796 409.692 203.266 410.395C204.531 410.97 205.378 411.336 205.989 411.61C210.477 413.589 211.222 413.932 210.379 413.788C209.915 413.688 208.926 413.4 207.183 412.78C206.32 412.471 205.262 412.081 203.736 411.45C202.117 410.734 200.729 410.314 195.872 407.591C179.819 397.41 176.817 389.682 173.12 383.47C169.911 377.162 168.206 371.737 167.052 365.58C165.765 354.228 161.877 335.217 183.814 310.998C193.578 301.762 198.691 299.796 203.473 297.17C208.117 294.851 211.947 293.309 215.646 291.915C222.964 289.193 229.664 287.213 236.58 285.339C319.273 267.772 421.485 270.473 431.747 268.14C426.275 267.905 420.474 267.691 415.106 267.466C430.867 267.037 446.573 266.67 462.454 266.338ZM686.066 331.976C695.48 330.612 719.01 331.654 732.939 331.258C752.162 330.712 784.842 325.349 770.775 330.684C742.541 331.155 714.31 331.585 686.066 331.976ZM284.376 319.044C301.445 323.105 287.31 323.57 273.833 319.327C272.397 318.815 261.88 313.224 284.376 319.044ZM472.076 330.212C471.201 330.244 454.993 329.968 454.388 329.911C443.466 328.869 468.487 329.116 474.533 329.63C475.927 329.757 476.19 329.904 474.528 330.057C473.944 330.108 473.134 330.16 472.076 330.212ZM919.921 363.6C899.053 364.255 914.215 366.569 927.209 365.129C928.033 365.038 921.277 363.559 919.921 363.6ZM905.06 363.904C888.76 361.9 856.162 367.597 882.166 366.461C884.691 366.349 905.803 364.003 905.06 363.904ZM342.931 326.983C340.813 327.838 322.363 326.368 315.411 325.408C315.406 324.656 335 326.788 342.931 326.983ZM586.841 373.362C587.752 372.59 519.713 374.535 515.334 375.658C525.877 374.906 586.156 374.019 586.841 373.362ZM761.04 367.972C759.343 367.887 735.815 368.649 736.537 369.274C748.016 369.837 768.81 368.353 761.04 367.972ZM1107.98 358.86C1109.22 358.652 1091.5 355.163 1133.4 356.469C1139.6 356.656 1117.53 358.46 1119.8 358.528C1124.26 358.668 1128.06 358.675 1130.94 358.603C1111.44 359.597 1091.25 360.376 1089.28 360.189C1080.09 359.304 1107.29 358.955 1107.98 358.86ZM1292.63 347.339C1294.63 346.817 1300.79 346.334 1310.75 344.776C1313.68 344.249 1316.05 343.992 1322.23 342.198C1323.99 341.639 1325.17 341.322 1328.66 339.851C1330.23 339.172 1331.97 338.341 1333.96 337.215C1336.23 335.94 1340.23 333.432 1344.2 329.658C1347.04 327.245 1356.16 316.916 1358.81 304.265C1362.33 291.019 1358.04 275.69 1354.72 269.869C1347.48 256.899 1344.1 255.933 1342.27 253.846C1340.5 252.305 1340.04 251.956 1340.6 252.409C1341.26 253.065 1342.8 253.875 1347.1 259.206C1348.93 261.628 1352.37 266.248 1354.93 274.136C1357.53 281.435 1358.42 294.586 1354.63 304.916C1347.63 323.292 1338.14 327.563 1335.63 329.737C1333.75 330.982 1332.2 331.837 1330.9 332.497C1329.9 333 1329.2 333.317 1328.52 333.617C1327.2 334.189 1326.13 334.567 1325.56 334.766C1324.5 335.133 1323.95 335.285 1323.65 335.378C1324.76 335.13 1325.61 334.941 1326.31 334.789C1326.89 334.664 1326.03 335.352 1326.69 335.623C1327.48 335.831 1329.03 335.986 1336.96 333.529C1340.35 332.448 1342.23 331.597 1342.67 331.247C1343.17 330.871 1342.51 330.877 1342.4 330.691C1342.33 330.472 1342.46 330.282 1345.86 328.749C1346.71 328.353 1347.95 327.797 1349.73 326.893C1351.83 325.724 1353.77 325.136 1360.15 320.295C1363.56 316.842 1368.85 315.452 1376.67 297.817C1380.48 288.815 1381.34 273.303 1376.9 262.228C1372.68 251.036 1367.04 245.484 1363.45 242.028C1355.79 235.265 1352.22 234.105 1349.23 232.551C1346.26 231.183 1344.39 230.526 1342.62 229.911C1338.69 228.597 1336.96 228.19 1335.41 227.76C1338.72 228.632 1343.49 229.88 1350.37 234.26C1352.07 235.371 1353.89 236.702 1355.77 238.321C1357.73 240.101 1359.15 241.194 1362.68 245.656C1368.87 253.367 1373.15 265.54 1373.04 275.637C1373.09 280.69 1372.37 285.165 1371.4 288.869C1370.91 290.718 1370.34 292.433 1369.79 293.895C1369.42 294.858 1369.05 295.754 1368.67 296.59C1367.17 299.935 1365.68 302.349 1364.38 304.26C1361.77 308.042 1359.87 309.956 1358.46 311.393C1356.3 313.51 1355.52 314.087 1354.73 314.748C1354.02 315.33 1353.58 315.666 1353.33 315.864C1352.89 316.217 1352.77 316.337 1352.71 316.425C1352.65 316.506 1352.67 316.538 1352.75 316.533C1352.83 316.525 1352.97 316.48 1353.28 316.311C1353.54 316.172 1354.19 315.791 1355.59 314.71C1356.33 314.123 1357.14 313.493 1358.66 312.055C1360.68 309.971 1363.83 307.298 1368.16 299.291C1368.68 298.273 1369.22 297.158 1369.74 295.927C1370.01 295.289 1370.24 294.742 1370.55 293.925C1370.95 292.856 1371.34 291.712 1371.7 290.486C1373.15 285.616 1374.21 279.246 1373.62 272.022C1373.09 264.834 1370.68 257.033 1367.04 250.785C1365.23 247.647 1363.19 244.875 1361.11 242.518C1359.9 241.157 1359.45 240.714 1358.78 240.042C1358.15 239.412 1357.52 238.817 1356.89 238.255C1346.59 229.428 1339.72 228.145 1335.62 226.906C1337.14 227.196 1338.94 227.563 1341.53 228.288C1344.23 229.138 1347.24 229.749 1354.22 233.498C1357.82 235.706 1362.78 238.075 1370.25 247.149C1377.95 255.102 1384.17 277.533 1380.61 289.83C1377.64 302.959 1374.27 306.263 1372.84 308.914C1372.12 310.015 1371.89 310.326 1371.93 310.273C1372.02 310.155 1372.35 309.738 1373.36 308.174C1375.06 305.294 1377.56 301.889 1380.08 292.622C1382.65 284.208 1382.21 268.037 1376.74 257.394C1364.9 235.71 1355.8 234.838 1351.47 231.766C1342.38 227.523 1339.36 227.289 1335.77 226.301C1338.55 227.026 1342.34 228.029 1348.03 231.128C1350.86 232.704 1354.2 234.871 1357.81 238.171C1358.71 239 1359.61 239.879 1360.54 240.877C1362.05 242.477 1363.55 244.287 1364.99 246.314C1367.87 250.353 1370.45 255.324 1372.12 260.685C1375.62 271.52 1374.74 282.855 1372.51 290.289C1372.23 291.239 1371.94 292.145 1371.64 293.007C1371.49 293.438 1371.34 293.858 1371.19 294.268C1371.06 294.601 1370.98 294.805 1370.88 295.068C1370.48 296.072 1370.07 297.01 1369.66 297.889C1368.84 299.646 1368.01 301.165 1367.21 302.499C1363.97 307.797 1361.4 310.394 1359.54 312.288C1354.33 317.198 1353.73 317.053 1353.22 317.499C1353.01 317.638 1352.99 317.64 1353.06 317.593C1353.13 317.545 1353.29 317.438 1353.53 317.285C1354.01 316.974 1354.66 316.561 1355.53 315.998C1359.01 313.485 1364.17 311.176 1373.25 300.639C1377.69 295.132 1384.08 285.624 1385.84 271.246C1387.65 256.29 1382.72 243.53 1378.37 236.362C1370.6 224.187 1366.44 222.385 1367.47 222.636C1368.17 223.581 1372.52 225.083 1380.5 238.827C1384.53 246.147 1388.51 259.033 1386.49 272.684C1384.63 285.872 1378.81 295.064 1374.54 300.519C1365.78 311.107 1360.38 313.746 1356.65 316.415C1355.75 317.002 1354.93 317.515 1354.38 317.86C1353.79 318.226 1353.41 318.47 1353.56 318.369C1353.89 318.078 1354.06 318.316 1358.39 314.588C1359.18 313.857 1361.51 311.855 1364.54 307.951C1366.07 305.958 1367.87 303.398 1369.73 299.73C1370.2 298.813 1370.67 297.824 1371.12 296.756C1371.59 295.651 1371.99 294.74 1372.74 292.476C1374.06 288.464 1375.16 283.484 1375.34 277.722C1375.99 266.194 1371.04 251.964 1364.07 243.64C1363.22 242.571 1362.36 241.572 1361.5 240.639C1361.4 240.523 1361.29 240.407 1361.18 240.293C1361.09 240.192 1361.04 240.144 1360.97 240.07C1360.84 239.933 1360.71 239.797 1360.58 239.662C1360.32 239.393 1360.06 239.13 1359.8 238.872C1358.75 237.843 1357.72 236.909 1356.71 236.06C1354.69 234.361 1352.76 233 1350.98 231.877C1343.82 227.475 1339.21 226.342 1335.97 225.474C1339.26 226.459 1341.23 226.295 1351.31 230.845C1354.27 232.43 1357.56 233.621 1364.84 239.996C1368.2 243.222 1373.27 247.893 1378.01 258.437C1382.72 268.163 1383.79 284.705 1380.12 295.232C1372.46 316.095 1365.37 318.364 1361.62 322.209C1357.94 325.077 1355.59 326.404 1353.6 327.532C1346.68 331.219 1344.47 331.719 1342.09 332.65C1339.88 333.441 1338.44 333.904 1337.29 334.281C1325.77 337.83 1337.3 335.783 1324.59 339.092C1324.92 339.005 1325.47 338.861 1326.47 338.535C1326.86 338.404 1327.81 338.086 1328.97 337.621C1329.56 337.385 1330.23 337.102 1331 336.747C1331.39 336.569 1331.81 336.373 1332.25 336.155C1332.68 335.941 1333.52 335.514 1334.25 335.106C1335.73 334.287 1337.42 333.262 1339.29 331.916C1340.22 331.243 1341.2 330.488 1342.22 329.636C1343.24 328.798 1345.18 327.054 1346.75 325.367C1350.03 321.885 1353.54 317.159 1356.24 311.282C1359.58 304.305 1361.54 294.561 1361.04 286.567C1360 270.334 1353.73 262.083 1351.17 258.277C1348.3 254.349 1346.21 252.425 1345.18 251.432C1342.88 249.327 1342.58 249.256 1342.77 249.457C1343 249.711 1343.93 250.531 1345.11 251.673C1347.68 254.138 1351.65 258.332 1355.07 264.115C1358.31 269.546 1359.88 274.648 1360.28 276.414C1360.67 278.192 1360.06 276.545 1359.1 274.336C1358.06 271.932 1357 270.02 1356.32 268.935C1355.66 267.922 1355.51 267.763 1356.6 270.15C1357.01 272.267 1362.3 278.375 1361.38 297.319C1360.99 301.432 1360.12 306.872 1357.23 313.571C1354.68 319.957 1348.59 327.634 1345.83 330.095C1342.31 333.565 1338.45 336.306 1335.22 338.179C1332.95 339.502 1330.76 340.566 1328.73 341.432C1327.76 341.846 1326.54 342.317 1325.94 342.54C1325.26 342.79 1324.59 343.023 1323.94 343.242C1322.63 343.68 1321.36 344.06 1320.11 344.399C1318.26 344.911 1316.33 345.359 1314.64 345.711C1308.2 347.025 1303.76 347.574 1299.24 348.093C1290.78 349 1285.32 349.139 1292.69 347.341C1292.67 347.34 1292.65 347.34 1292.63 347.339ZM1136.2 358.325C1134.75 358.451 1133.03 358.55 1130.94 358.603C1132.71 358.513 1134.47 358.418 1136.2 358.325ZM631.358 332.865C621.508 332.139 650.745 331.327 661.792 332.257C661.991 332.998 632.982 332.982 631.358 332.865ZM1154.22 355.856C1183.19 355.369 1161.95 356.953 1136.2 358.325C1144.24 357.625 1144.51 356.01 1154.22 355.856ZM337.384 381.45C338.553 381.542 339.321 381.756 339.443 382.181C336.33 381.91 336.073 381.674 337.384 381.45ZM403.438 378.705C426.209 376.385 379.819 378.493 380.246 379.468C380.505 379.797 402.433 378.789 403.438 378.705ZM946.744 363.042C944.653 362.966 977.345 358.147 929.8 362.355C955.209 362.173 928.437 363.293 928.828 363.63C929.918 364.608 972.492 362.543 982.043 362.715C989.395 360.73 953.773 363.289 946.798 363.04C946.78 363.041 946.762 363.041 946.744 363.042ZM1089.05 191.721C1095 190.742 1113.25 191.328 1125.83 191.608C1119.94 192.553 1101.61 191.934 1089.05 191.721ZM338.741 39.5892C423.599 40.3899 434.376 44.8887 356.959 41.5839C355.436 41.5167 333.559 39.9142 338.741 39.5892ZM1067.42 59.1849C1071.73 60.3807 1065.93 60.686 1056.44 60.4853C1049.12 60.3402 1039.01 59.8354 1031.24 59.2075C1027.38 58.8947 1012.84 56.494 1029.47 56.7146C1028.87 58.4149 1044.08 59.8695 1056.47 59.7594C1060.59 59.7343 1064.4 59.5572 1067.42 59.1849ZM1170.56 354.07C1172.8 353.656 1176.27 353.346 1180.35 353.107C1192.3 352.425 1208.52 352.274 1218.81 351.95C1211.96 353.057 1194.33 353.691 1180.38 353.951C1176.65 354.018 1173.24 354.056 1170.56 354.07ZM617.403 47.7628C626.34 48.1038 632.419 46.6207 630.877 46.451C623.973 45.6765 607.239 46.613 617.403 47.7628ZM1086.8 356.686C1085.6 355.988 1119.97 354.189 1122.3 355.939C1115.09 356.05 1087.67 357.13 1086.8 356.686ZM1112.49 192.601C1117.79 193.053 1090.21 193.328 1081.8 192.868C1082.36 192.076 1109.12 192.293 1112.49 192.601ZM761.415 50.5818C769.419 50.9183 789.424 51.4621 791.672 50.8647C794.439 50.1138 765.085 49.6583 761.415 50.5818ZM923.181 95.0311C924.141 95.3099 893.413 97.8025 879.58 97.4649C853.493 96.7928 922.057 94.8081 923.181 95.0311ZM532.74 46.7408C507.575 44.6581 535.51 46.7516 534.455 45.1063C517.544 44.6815 475.231 43.7015 504.226 45.9148C509.885 46.3442 524.842 46.4652 532.74 46.7408ZM556.026 47.7879C558.733 47.3208 576.985 46.0621 561.239 45.8371C553.964 45.7358 542.24 47.3231 556.026 47.7879ZM731.741 98.8387C709.117 97.8275 812.667 96.6224 815.639 96.8756C817.219 96.982 818.255 97.09 818.846 97.1862C822.711 96.6642 842.117 96.2708 844.435 97.3886C838.543 97.3833 822.662 97.7421 820.754 97.6473C819.948 97.6064 819.347 97.5654 818.932 97.5205C811.986 98.6058 736.119 98.9982 731.741 98.8387ZM560.146 101.167C585.779 98.442 590.686 101.934 588.396 102.103C560.134 104.24 578.527 101.151 577.645 101.047C575.632 100.887 555.789 102.588 560.227 101.165C560.2 101.165 560.173 101.166 560.146 101.167ZM696.57 98.9687C697.599 98.8983 719.35 98.5588 720.276 98.5987C738.085 99.4407 676.631 100.406 696.57 98.9687ZM1283.64 202.53C1267.54 200.716 1283.19 200.672 1294.64 202.479C1295.41 202.644 1298.67 204.38 1283.64 202.53ZM568.465 47.702C572.067 48.02 664.375 51.0328 658.869 48.9156C651.023 48.9554 546.12 45.6041 568.465 47.702ZM1284.47 95.834C1281.88 93.6337 1277.82 90.7069 1275.64 89.3342C1273.18 87.7579 1271.88 87.0155 1271.28 86.6C1270.15 85.8537 1271.81 86.3553 1275.73 88.5083C1279.25 90.2714 1286.17 95.6271 1286.61 95.9469C1286.87 96.0933 1285.31 94.796 1283.63 93.8146C1281.94 92.8107 1280.44 92.185 1279.51 91.8945C1279.85 92.0469 1280.18 92.198 1280.5 92.3471C1281.88 93.001 1281.09 92.9047 1279.3 92.4365C1280.11 92.9219 1282.15 93.9975 1284.22 95.5396C1285.19 96.2583 1285.85 96.8639 1285.85 96.9099C1285.87 96.9797 1285.24 96.4758 1284.47 95.834ZM1040.47 356.341C1023.62 357.856 1026.98 354.281 1041.7 355.056C1042.28 355.086 1041.14 356.281 1040.47 356.341ZM1129.66 63.7565C1187.36 66.5424 1172.52 70.8535 1099.01 64.9531C1101.38 64.8009 1103.72 64.6493 1106.02 64.4984C1021.04 59.796 1099.95 63.5971 1121.14 64.5383C1129.02 64.8532 1122.43 63.4778 1129.6 63.7461C1129.62 63.7495 1129.64 63.753 1129.66 63.7565ZM1250.91 208.814C1230.54 209.264 1232.18 208.467 1243.47 207.187C1249.17 206.533 1257.35 205.748 1266.82 204.774C1271.55 204.281 1276.6 203.754 1282.32 203.003C1285.25 202.605 1288.23 202.212 1292.57 201.341C1294.98 200.795 1297.2 200.502 1303.03 198.378C1306.35 196.672 1310.23 196.915 1321.32 186.311C1326.86 181.04 1334.02 167.958 1334.11 156.216C1334.39 144.81 1331.69 139.27 1330.6 136.206C1323.75 121.383 1319.09 119.226 1315.6 115.61C1312.08 112.542 1309.38 110.684 1306.95 109.073C1302.12 105.926 1298.37 103.974 1294.91 102.234C1288.06 98.8509 1282.68 96.7125 1278.29 95.0399C1278.91 95.2945 1279.58 95.598 1280.47 96.072C1279.55 95.5424 1278.91 95.2204 1278.33 94.9413C1284.97 97.1857 1291.96 99.8263 1299.65 103.701C1303.53 105.685 1307.54 107.895 1312.38 111.406C1317.16 115.664 1323.28 117.491 1332.01 135.631C1332.98 138.11 1334.52 141.849 1335.37 148.485C1336.3 154.926 1335.44 165.172 1331.86 173.157C1324.01 189.69 1316.02 192.939 1312.11 195.81C1304.29 200.289 1302.38 200.387 1300.12 201.274C1299.19 201.586 1298.4 201.831 1297.75 202.029C1297.18 202.206 1296.7 202.349 1296.3 202.469C1295.91 202.589 1295.59 202.685 1295.36 202.761C1295.16 202.83 1295.03 202.883 1294.96 202.919C1294.74 203.045 1295.39 203.039 1298.31 202.341C1300.1 201.821 1301.61 201.722 1307.75 199.027C1311.18 196.939 1315.68 196.784 1326.46 184.17C1331.62 178.086 1337.02 164.914 1336.7 154.463C1336.63 143.979 1334.17 138.424 1332.99 135.228C1323.35 115.075 1316.58 113.304 1310.95 108.328C1305.27 104.236 1300.15 101.353 1294.68 98.5423C1299.29 100.751 1303.89 103.118 1309.33 106.676C1312.08 108.512 1315.05 110.594 1318.78 113.95C1322.47 117.747 1327.39 120.855 1333.74 134.924C1334.99 138.654 1340.15 149.06 1335.94 166.814C1331.03 184.473 1320.53 192.005 1316.08 195.313C1306.16 201.778 1303.59 201.665 1300.63 202.829C1295.59 204.355 1293.42 204.679 1291.18 205.129C1287.09 205.882 1284.4 206.231 1281.92 206.56C1277.16 207.169 1273.88 207.487 1271.32 207.717C1266.33 208.152 1264.67 208.14 1264.46 207.981C1264.1 207.655 1269.83 206.641 1268.44 206.73C1264.68 207.005 1253.24 208.769 1250.91 208.814ZM1205.12 71.0934C1201.57 70.7156 1177.24 67.4814 1168.37 67.0036C1180.45 66.1656 1227.19 72.8276 1205.12 71.0934ZM379.837 106.269C381.804 105.09 386.638 104.161 405.222 104.189C399.394 104.886 387.807 105.621 379.837 106.269ZM703.903 337.973C716.687 338.063 742.12 338.476 734.32 337.284C733.469 337.186 703.953 337.305 703.903 337.973ZM836.626 54.9897C839.485 55.1867 909.705 57.2186 885.512 55.2942C878.273 54.6969 814.015 53.1498 836.626 54.9897ZM472.033 46.4094C477.91 46.5451 501.877 46.8405 502.37 46.5824C504.029 45.6872 474.61 45.5731 472.033 46.4094ZM768.354 339.094C770.049 339.216 809.065 338.908 804.757 338.364C796.647 337.352 762.585 338.701 768.354 339.094ZM1224.61 201.208C1221.35 201.097 1217.14 199.679 1215.96 199.616C1212.55 199.287 1152.73 198.065 1175.7 197.122C1179.57 196.631 1266.79 200.898 1279.55 202.976C1283.78 204.917 1245.62 200.352 1236.49 200.218C1234.86 200.169 1233.94 201.523 1224.64 201.202C1224.63 201.204 1224.62 201.206 1224.61 201.208ZM476.743 102.924C479.33 101.79 549.637 99.4082 548.837 100.734C524.925 101.462 500.81 102.199 476.743 102.924ZM441.066 103.568C426.001 103.147 461.028 102.1 471.544 102.188C471.673 102.912 443.147 103.635 441.066 103.568ZM605.338 53.3224C612.414 53.2159 590.698 51.1603 595.57 50.9627C598.699 50.8412 614.471 51.7818 619.516 51.4031C620.942 51.2784 604.896 49.4408 600.216 49.4013C593.59 49.3398 599.987 50.6454 592.762 50.4934C568.826 49.9894 547.545 48.6968 525.078 48.233C523.053 48.1935 538.738 49.3527 521.471 48.9698C518.819 48.9127 502.733 47.3429 482.018 47.0852C436.145 49.904 402.824 45.4883 344.644 45.6411C346.935 46.0462 390.267 47.9076 392.755 47.9952C441.402 49.6311 528.091 51.5285 578.988 52.6614C592.007 52.9511 585.703 52.01 591.317 52.1044C595.758 52.1811 590.439 53.5486 605.338 53.3224ZM697.12 338.791C703.201 340.28 724.574 339.345 738.214 339.41C733.414 338.077 710.456 339.13 697.12 338.791ZM128.966 108.561C127.56 108.713 125.442 108.916 123.409 109.161C122.381 109.285 121.439 109.413 120.794 109.513C120.483 109.561 120.267 109.598 120.283 109.588C120.31 109.571 120.548 109.528 121.529 109.224C121.197 109.309 121.147 109.36 122.165 108.934C123.286 108.275 125.041 108.283 131.705 102.714C134.905 99.7628 140.58 94.2932 144.123 83.3156C147.79 72.2703 145.549 60.0486 143.192 54.5091C138.2 43.1594 136.148 42.9471 135.232 41.4429C134.609 40.7369 134.276 40.3792 134.106 40.1657C133.77 39.7493 134.046 39.841 135.455 41.2364C136.443 42.7304 138.618 42.844 143.779 54.6211C146.226 60.3489 148.345 73.0939 144.472 84.1468C140.722 95.1912 135.092 100.462 131.892 103.41C125.296 108.893 123.527 108.948 122.415 109.61C121.399 110.051 121.435 110.012 121.746 109.931C120.525 110.304 120.396 110.302 120.449 110.296C120.527 110.278 120.874 110.206 121.311 110.125C122.182 109.963 123.421 109.758 124.52 109.573C126.775 109.195 128.728 108.843 128.966 108.561ZM885.439 196.399C884.79 196.438 868.303 196.352 867.669 196.306C852.938 195.11 902.371 195.374 885.439 196.399ZM491.692 195.38C479.246 195.448 466.704 195.771 462.51 194.517C470.518 194.801 493.125 194.558 491.692 195.38ZM160.02 241.541C157.387 240.186 193.842 237.253 200.758 236.879C198.276 237.705 161.996 242.359 160.02 241.541ZM377.011 101.376C400.26 100.995 395.017 98.7107 409.823 99.4753C412.289 99.6028 419.992 104.417 394.656 103.092C390.071 102.85 407.976 101.303 377.011 101.376ZM1087.05 64.3439C1081.89 64.9869 1068.4 64.3213 1056.31 63.763C1054.19 63.6631 1052.13 63.5656 1050.2 63.4794C1050.94 63.3007 1053.24 63.2504 1056.33 63.2777C1065.51 63.3723 1080.35 64.0898 1087.05 64.3439ZM838.827 340.074C849.624 341.515 899.328 340.12 887.02 339.221C885.2 339.114 845.851 340.108 838.827 340.074ZM1229.21 346.887C1250.05 344.742 1207.05 346.417 1193.62 348.035C1199.7 347.737 1227.91 347.044 1229.21 346.887ZM85.5042 178.459C85.2233 178.44 80.1708 177.665 76.4969 176.838C75.7086 176.663 74.8155 176.443 74.3456 176.31C73.8807 176.182 73.6104 176.081 73.8348 176.145C73.8108 176.024 77.5703 177.708 78.1529 178.11C81.993 180.552 87.543 182.97 94.3212 195.029C99.9941 205.892 99.1465 216.099 99.2338 216.667C99.1178 218.01 100.237 210.123 97.0791 200.752C95.5244 195.997 92.7634 190.986 89.6836 187.224C88.9573 186.317 88.0105 185.26 87.4846 184.708C86.9599 184.152 86.4314 183.622 85.906 183.121C84.8548 182.119 83.8161 181.235 82.8322 180.468C80.9339 178.972 78.8773 177.733 77.9883 177.241C77.0042 176.688 76.18 176.287 75.5489 176C75.233 175.856 74.9646 175.741 74.7448 175.65C74.528 175.561 74.4316 175.521 74.3151 175.474C74.0998 175.388 73.9937 175.348 73.9997 175.344C74.0299 175.341 75.6114 175.755 77.1878 176.089C84.483 177.637 94.4416 179.201 85.5042 178.459ZM621.001 197.99C613.122 198.94 561.816 197.988 550.268 196.951C561.365 195.649 630.68 196.836 621.001 197.99ZM282.041 103.6C298.623 103.366 314.235 103.43 329.329 103.593C326.074 104.474 284.092 104.205 282.041 103.6ZM110.233 246.872C111.385 246.726 112.515 246.668 113.609 246.533C112.464 246.65 111.336 246.761 110.233 246.872ZM280.224 46.0599C293.902 46.6667 291.066 45.1341 290.233 45.0715C280.179 44.3827 264.447 45.3668 280.224 46.0599ZM712.804 340.982C717.55 342.313 740.645 341.276 753.925 341.572C750.07 340.531 723.49 340.847 712.804 340.982ZM1192.76 211.827C1180.75 212.007 1209.84 208.091 1233.46 205.423C1245 204.16 1255.56 203.12 1260.43 202.9C1261.03 203.238 1248.09 205.105 1233.61 206.934C1215.73 209.24 1194.2 211.827 1192.76 211.827ZM1165.05 347.52C1163.59 346.542 1134.03 348.832 1140.36 349.101C1144.43 349.281 1165.76 348.146 1165.05 347.52ZM1326.58 132.799C1319.56 120.606 1314.06 117.419 1309.85 113.877C1305.59 110.659 1302.22 108.587 1299.51 106.909C1294.19 103.669 1291.48 102.04 1294.98 103.376C1299.64 105.306 1305.63 108.66 1312.65 114.753C1316.12 117.802 1320.18 122.028 1323.46 127.021C1326.74 132.012 1328.35 136.443 1326.58 132.799ZM706.157 56.5581C709.025 56.7817 747.914 56.6467 731.886 55.1996C720.748 54.194 718.945 55.657 716.334 55.5992C713.433 55.5206 651.101 52.2221 706.157 56.5581ZM795.537 223.838C810.182 223.388 827.989 223.772 843.326 223.646C837.1 224.339 801.768 224.68 795.537 223.838ZM1280.24 341.702C1275.92 342.076 1178.37 346.277 1233.98 345.008C1236.96 345.106 1291.49 342.332 1280.24 341.702ZM377.011 101.376C374.096 101.423 370.747 101.439 366.895 101.412C370.719 101.378 374.075 101.381 377.011 101.376ZM121.741 106.823C122.456 106.548 122.176 106.442 121.282 106.465C120.88 106.47 120.319 106.513 119.925 106.546C119.739 106.56 119.587 106.573 119.609 106.55C119.642 106.522 119.819 106.478 120.605 106.224C120.323 106.291 120.156 106.341 120.438 106.223C120.765 106.058 121.358 105.935 123.913 104.478C125.226 103.67 127.093 102.633 130.356 99.6168C133.316 96.6973 139.36 90.7027 142.043 78.5391C144.71 66.2081 140.468 55.2453 138.025 51.0201C135.367 46.2963 133.752 44.785 132.809 43.6857C131.144 41.9073 130.448 41.4045 130.023 41.0358C129.614 40.7016 129.523 40.6332 129.54 40.6232C129.592 40.6226 130.059 40.8641 130.445 41.0221C130.735 40.9697 130.387 40.6154 130.062 40.2942C129.919 40.1479 129.786 39.9998 130.044 40.1426C130.357 40.3817 130.845 40.4718 133.415 43.1251C134.369 44.2198 135.985 45.7351 138.646 50.3873C141.067 54.5645 145.474 65.2319 143.05 77.8908C140.572 90.4447 134.277 96.9535 131.196 100.017C127.791 103.218 125.821 104.319 124.438 105.174C121.743 106.716 121.109 106.837 120.74 107.004C120.423 107.12 120.57 107.056 120.835 106.97C120.263 107.142 119.984 107.207 119.865 107.233C119.737 107.261 119.746 107.253 119.801 107.237C119.915 107.204 120.24 107.133 120.521 107.075C121.153 106.946 121.669 106.85 121.741 106.823ZM844.492 222.581C853.372 222.093 869.429 222.435 880.42 222.279C878.519 223.012 848.362 223.282 844.492 222.581ZM227.49 231.387C244.523 230.494 265.664 229.1 266.004 228.224C266.363 228.339 267.191 228.435 268.571 228.503C269.956 228.554 288.419 227.194 296.473 227.149C344.131 225.307 112.241 240.789 246.347 228.469C239.991 229.416 233.696 230.388 227.49 231.387ZM690.568 200.103C700.509 201.157 728.375 199.838 721.143 199.426C716.108 199.147 680.611 199.044 690.568 200.103ZM308.923 196.454C312.02 196.761 338.798 196.812 339.652 196.267C323.96 195.285 295.51 195.139 308.923 196.454ZM767.044 201.314C773.28 201.469 781.271 199.773 780.533 199.7C774.169 199.086 756.562 200.378 767.044 201.314ZM329.176 97.7026C319.829 97.3864 290.251 99.0269 283.624 100.204C282.406 100.001 279.1 99.7583 273.192 99.4781C273.21 99.4779 273.228 99.4777 273.246 99.4776C271.232 99.3671 250.973 99.4685 226.712 99.3963C163.278 98.661 75.8885 104.394 186.79 101.242C191.734 101.244 184.969 100.286 205.04 100.258C206.414 100.26 207.004 101.072 211.138 101.087C213.793 101.096 219.465 101.124 226.712 101.18C245.769 101.347 274.957 101.216 282.365 100.647C282.456 100.797 283.13 100.934 284.569 101.05C297.258 102.112 336.405 97.9645 329.176 97.7026ZM255.37 194.526C257.669 194.757 262.136 194.976 266.765 195.101C272.684 195.257 278.813 195.227 279.855 194.852C276.963 194.618 271.799 194.372 266.804 194.187C256.519 193.804 247.14 193.688 255.37 194.526ZM1276.99 338.964C1265.34 339.249 1236.82 341.811 1245.5 341.952C1250.62 342.169 1290.23 338.768 1276.99 338.964ZM427.857 198.94C364.216 197.022 412.643 198.762 402.877 199.658C411.183 199.431 419.616 199.192 427.857 198.94ZM625.585 93.8581C615.481 93.8452 627.265 91.484 638.524 92.365C642.055 92.6457 631.24 93.8614 625.585 93.8581ZM1085.34 86.7342C1076.65 84.8855 1119.06 85.9427 1102.53 87.2241C1101.76 87.2651 1085.96 86.8016 1085.34 86.7342ZM764.117 89.5383C757.273 90.9307 752.729 91.1626 733.235 91.2375C762.069 90.3152 735.384 89.7166 764.117 89.5383ZM265.814 228.099C265.925 228.144 266.019 228.176 266.004 228.224C265.881 228.185 265.826 228.144 265.814 228.099ZM827.211 200.953C835.224 202.018 857.701 201.937 851.007 200.862C850.381 200.761 830.47 200.161 827.211 200.953ZM283.624 100.204C284.708 100.383 284.156 100.513 282.365 100.647C282.28 100.505 282.741 100.365 283.624 100.204ZM706.693 201.877C707.486 201.081 673.365 200.76 671.982 200.85C652.386 202.217 692.591 201.929 706.693 201.877ZM1049.51 346.872C1047.79 347.005 1059.06 348.739 1066.14 347.721C1071.55 346.935 1056.05 346.368 1049.51 346.872ZM830.251 87.864C840.997 87.6904 856.268 87.4584 859.099 88.3954C851.805 88.3501 830.022 88.5834 830.251 87.864ZM1068.73 85.4278C1055.98 86.6063 1026.82 86.7301 1008.26 86.6713C1007.88 85.1448 1056.76 85.7935 1068.73 85.4278ZM358.672 97.7411C357.621 97.7062 330.71 97.7342 334.303 98.6806C339.703 100.082 366.382 98.1483 358.672 97.7411ZM1102.25 346.374C1114.45 345.29 1086.37 344.036 1073.64 346.068C1067.04 347.119 1100.34 346.559 1102.25 346.374ZM897.37 202.363C913.412 201.79 873.687 200.714 868.129 201.777C875.55 201.862 891.609 202.565 897.37 202.363ZM353.481 200.474C403.595 204.672 376.321 198.472 367.52 198.776C366.358 198.824 352.215 200.374 353.481 200.474ZM963.765 345.253C970.899 344.751 944.252 343.503 940.923 344.541C938.764 345.197 959.288 345.578 963.765 345.253ZM509.225 221.173C507.097 221.199 504.988 221.225 502.902 221.25C504.466 221.188 506.524 221.156 509.225 221.173ZM1042.99 207.025C1007.4 202.439 1011.1 205.82 1007.99 205.776C1001.29 205.69 985.825 204.446 973.19 204.591C987.699 204.16 1001.93 203.743 1016.51 203.349C1005.12 202.897 906.045 201.039 904.076 201.777C901.108 202.767 932.212 202.499 933.14 202.592C934.448 202.72 939.3 205.499 942.174 205.611C946.941 205.753 1029.69 206.166 1042.99 207.025ZM458.51 201.861C450.434 201.434 448.216 200.306 444.438 200.518C443.149 200.59 442.921 201.635 438.529 201.844C445.268 201.857 451.843 201.862 458.51 201.861ZM1106.84 203.859C1116.93 205.268 1071.66 204.184 1070.24 204.052C1062.5 203.096 1098.66 202.675 1106.84 203.859ZM723.742 202.803C725.382 202.879 759.996 203.264 759.714 202.554C750.554 202.02 704.292 201.874 723.742 202.803ZM433.121 201.839C421.092 201.552 398.108 200.093 400.743 201.713C400.761 201.713 400.779 201.713 400.797 201.714C411.557 201.775 422.384 201.817 433.121 201.839ZM1143.79 341.673C1121.28 339.927 1131.85 342.753 1152.03 342.857C1158.04 341.517 1147.6 341.951 1143.79 341.673ZM1071.52 342.117C1065.13 341.879 1000.49 344.194 1010.44 345.237C1013.94 345.62 1051.16 343.374 1052.85 343.41C1055.45 343.47 1043.63 345.287 1063.45 344.414C1062.28 343.951 1073.68 342.203 1071.52 342.117ZM1125.05 340.7C1102.67 339.524 1097.57 343.198 1114.54 342.666C1121.06 342.461 1128.29 340.867 1125.05 340.7ZM1216.98 337.534C1209.94 337.567 1194.08 337.843 1179.81 338.967C1177.25 339.174 1174.76 339.413 1172.42 339.686C1174.91 339.606 1177.38 339.525 1179.83 339.444C1197.48 338.854 1214.75 338.23 1232.22 337.486C1234.48 336.715 1224.1 337.518 1216.92 337.536C1216.94 337.536 1216.96 337.535 1216.98 337.534ZM1202.98 76.6933C1185.24 75.5641 1226.12 75.4873 1227.87 75.7653C1233 76.6257 1210.9 77.1908 1202.98 76.6933ZM1103.04 374.882C1107.95 375.179 1111.28 376.421 1122.09 375.503C1111.19 374.771 1100.1 374.033 1089.22 373.284C1080.76 375.667 1097.55 374.558 1103.04 374.882ZM1144.98 382.065C1143.45 382.152 1151.95 385.37 1131.91 383.545C1118.46 382.331 1191.74 379.14 1205.05 380.195C1190.38 381.335 1158.33 381.331 1144.98 382.065ZM1274.49 392.57C1275.25 392.903 1247.07 394.621 1243.86 394.492C1226.7 394.129 1269.51 391.607 1274.49 392.57ZM1184.94 395.18C1198.11 395.494 1169.08 396.687 1160.43 396.503C1159.49 395.897 1183 395.141 1184.94 395.18ZM1022.89 27.2845C1008.71 25.0532 996.112 30.1221 1017.86 28.9781C1018.9 28.9244 1023.49 27.3943 1022.89 27.2845ZM1246.96 397.332C1233.86 397.165 1262.87 395.679 1271.84 395.466C1272.53 396.125 1249.02 397.39 1246.96 397.332ZM1012.89 21.8317C994.114 20.2908 1000.72 25.8389 1003.1 26.0462C1012.72 26.8588 1046.02 24.4898 1052.75 23.9282C1003.03 24.9926 1021.75 22.5723 1012.89 21.8317ZM926.133 25.9639C908.68 26.7575 953.248 27.3946 961.799 25.7709C953.066 25.9238 931.126 25.7314 926.133 25.9639ZM820.188 25.6617C810.689 25.614 782.961 25.6231 778.191 26.5935C788.541 26.2406 816.147 26.6298 820.188 25.6617ZM798.863 23.3887C784.227 22.4511 780.798 25.9952 797.614 24.6604C798.268 24.6088 799.401 23.4457 798.863 23.3887ZM716.431 23.6984C706.717 22.5122 695.807 26.1126 711.433 25.8795C716.086 25.8046 717.46 23.8362 716.431 23.6984ZM989.271 15.9859C975.466 15.5005 957.766 18.0695 987.171 18.0877C976.817 18.5388 966.562 18.9986 956.166 19.4687C994.734 20.4635 991.87 17.1679 1002.98 17.22C1018.41 17.3122 1017.23 20.0882 1014.13 20.9741C1026.8 19.1826 1080.71 18.9164 1111.88 18.6306C1084.46 17.8978 1040.07 16.811 1013.02 16.5462C1005.33 16.4646 997.826 17.2759 991.236 17.2419C980.681 17.1846 990.045 16.0198 989.326 15.9854C989.308 15.9856 989.289 15.9857 989.271 15.9859ZM608.043 26.0206C579.816 25.1058 597.639 28.0781 613.672 27.1054C614.357 27.0432 608.745 26.0427 608.043 26.0206ZM1287.63 405.173C1244.8 406.908 1275.18 403.382 1195.23 408.841C1228.47 405.877 1197.04 407.344 1203.5 406.345C1208.73 405.56 1228.23 405.487 1216.87 404.542C1228.83 404.981 1262.28 405.007 1289.89 401.804C1293.53 401.106 1296.57 400.533 1298.68 400.159C1300.66 399.778 1302.44 399.642 1299.79 399.928C1299.95 399.917 1300.06 399.909 1300.18 399.899C1299.77 399.944 1299.13 399.994 1298.74 400.029C1298.35 400.064 1298.33 400.099 1298.34 400.146C1298.43 400.235 1298.01 400.381 1299.24 400.493C1301.84 400.626 1301.46 400.928 1300.83 401.435C1299.37 402.425 1295.83 403.796 1290.46 404.745C1289.4 404.942 1288.51 405.067 1287.63 405.173ZM819.905 16.8098C810.362 12.8599 806.725 19.4403 788.21 16.3629C763.618 21.7288 856.37 15.1893 867.714 19.255C766.787 20.2864 934.423 22.4218 863.927 17.1957C922.033 18.6586 882.951 16.1576 891.904 15.2364C901.405 14.2539 934.359 14.7917 932.637 13.2856C932.619 13.2858 932.601 13.286 932.583 13.2862C912.426 13.616 892.44 13.9767 872.301 14.3687C891.982 17.3938 851.006 16.977 836.993 14.5192C831.279 15.2809 825.633 16.0436 819.905 16.8098ZM933.585 18.3316C931.596 18.2651 887.945 19.2652 890.767 19.9008C896.556 20.2215 958.559 19.019 933.585 18.3316ZM1125.87 16.6206C1110.21 16.5867 1085.88 15.9675 1077.38 17.2348C1093.01 17.2041 1117.37 17.8506 1125.87 16.6206ZM319.085 29.5995C299.254 30.9488 360.462 30.2269 342.743 29.3155C341.999 29.2769 319.973 29.5435 319.085 29.5995ZM774.423 18.2272C754.098 17.3501 763.736 21.1651 778.802 19.8469C779.675 19.7695 775.363 18.2671 774.423 18.2272ZM1254.33 407.819C1253.03 408.97 1197.69 410.066 1188.11 410.262C1193.52 409.287 1255.86 406.771 1254.33 407.819ZM1153.51 13.0214C1122.24 9.37765 1079.88 13.5106 1075.25 13.4403C1070.62 13.3605 1077.88 11.8044 1076.82 11.7657C1074.37 11.6646 1025.21 11.9905 1022.8 12.1307C1021.1 12.2241 1030.01 14.3359 1019.86 15.0759C1039.69 13.6519 1129.67 14.2977 1134.3 14.1347C1137.93 13.955 1110.63 11.6112 1153.46 13.0212C1153.48 13.0212 1153.5 13.0213 1153.51 13.0214ZM1063.61 13.0002C1075.9 13.8672 1041.48 14.0913 1033.1 13.8104C1014.55 13.1523 1062.04 12.8801 1063.61 13.0002ZM980.699 12.6412C976.804 12.4606 941.209 12.6171 938.239 13.6674C955.044 14.786 989.636 13.0387 980.699 12.6412ZM585.786 19.6225C576.421 19.9698 551.332 19.7864 549.773 20.7059C559.105 20.3556 584.248 20.54 585.786 19.6225ZM1067 420.344C1082.33 420.791 1046.81 421.768 1036.48 421.592C1035.96 421.016 1065.63 420.31 1067 420.344ZM770.821 9.85834C765.469 9.63776 653.984 12.6056 638.428 13.4134C653.679 13.6937 764.141 11.4651 769.055 11.0983C770.515 10.9736 771.519 9.88763 770.821 9.85834ZM1011.84 6.32703C1022.04 4.96281 1028.73 6.48668 1030.02 6.49918C1042.73 6.624 1068.86 6.2464 1063.14 7.51702C1040.87 7.0588 991.514 9.03904 1011.84 6.32703ZM577.692 13.933C539.924 15.3016 612.535 14.9684 602.961 13.8372C602.33 13.769 581.676 13.7882 577.692 13.933ZM783.294 9.25151C791.498 7.98866 903.168 7.16268 920.963 7.04049C904.92 9.16546 892.041 7.85592 870.48 8.25944C864.683 8.37123 866.244 9.15464 865.622 9.16479C855.599 9.34831 863.093 8.30836 856.907 8.38561C852.859 8.40254 771.635 10.9173 783.294 9.25151ZM1017.66 5.39088C1023.9 4.56775 1093.58 4.01638 1096.36 4.25208C1117.31 5.6635 1023.11 5.54314 1017.66 5.39088ZM773.008 7.71797C785.059 5.23074 840.331 5.80513 802.46 7.56995C798.841 7.73367 783.572 7.02689 773.008 7.71797ZM581.696 11.6962C579.77 11.6734 540.449 12.1521 539.733 12.8861C545.485 13.0249 602.91 11.9265 581.696 11.6962ZM602.032 8.80122C601.095 8.84034 610.305 10.0053 591.921 10.2574C590.441 10.2759 587.396 8.79293 564.254 9.9059C559.598 10.1326 552.308 11.3315 552.826 11.383C576.914 13.2391 649.882 6.90059 602.032 8.80122ZM1018.93 4.12635C1015.17 3.49444 1024.2 1.49486 1032.39 2.43763C1035.91 2.8454 1029.36 4.04158 1018.93 4.12635ZM456.835 14.0094C479.659 12.3088 407.973 13.724 404.267 14.0857C406.776 14.7759 454.506 14.1853 456.835 14.0094ZM1031.3 430.098C1031.32 430.098 1031.33 430.098 1031.35 430.097C1026.57 430.116 1023.69 430.056 1022.06 429.955C1018.84 429.749 1020.69 429.38 1022.05 429.155C1022.73 429.044 1023.3 428.968 1023.07 428.965C1022.73 428.959 1022.38 428.953 1022.04 428.947C982.155 428.227 992.758 430.207 986.417 430.565C972.48 431.309 974.753 428.591 951.516 429.958C990.005 427.883 954.932 428.966 953.871 428.012C949.596 424.294 1001.2 428.916 1022.03 428.169C1022.84 428.142 1023.6 428.107 1024.31 428.064C1025.11 428.017 1023.92 427.903 1022.02 427.754C1017.7 427.402 1009.27 426.845 1014.12 426.516C1016.37 426.364 1019.07 426.275 1022 426.24C1048.76 425.91 1097.81 429.798 1031.3 430.098ZM1038.71 2.23518C1047.61 0.9995 1115.61 2.00691 1097.58 2.98711C1094.69 3.10059 1025.56 3.9513 1038.71 2.23518ZM267.136 141.326C283.732 139.431 245.178 140.342 238.089 141.679C234.638 142.273 259.931 142.111 267.136 141.326ZM91.7145 274.445C112.453 276.525 133.426 273.96 108.658 272.449C105.821 272.291 89.5291 273.647 91.7145 274.445ZM1268.34 111.382C1250.16 112.111 1251.06 114.697 1264.9 113.071C1269.49 112.479 1268.82 111.358 1268.34 111.382ZM503.978 133.729C501.948 133.642 478.498 134.027 479.365 134.658C488.041 134.944 517.114 134.289 503.978 133.729ZM1272.73 110.323C1271.69 110.594 1270.79 110.859 1270.6 111.039C1270.38 111.223 1270.83 111.327 1271.56 111.369C1272.27 111.417 1273.51 111.342 1273.7 111.399C1273.71 111.422 1273.63 111.459 1273.24 111.58C1272.84 111.713 1272.19 111.875 1270.43 112.538C1268.36 113.701 1266.14 112.958 1256.13 121.698C1251.44 125.73 1243.22 137.785 1242.51 150.247C1241.69 162.392 1244.67 168.234 1245.58 170.9C1249.66 180.111 1252.35 181.847 1253.83 183.634C1255.36 185.178 1256.02 185.687 1256.36 186.032C1256.99 186.638 1256.34 186.411 1255.46 186.274C1256.09 186.562 1256.72 187.013 1256.09 186.637C1255.75 186.407 1255.08 186.011 1253.5 184.546C1251.94 182.774 1249.09 181.244 1244.6 171.3C1243.66 168.68 1241.07 163.459 1241.28 152.456C1241.3 141.146 1247.94 128.363 1253.24 123.072C1263.63 112.687 1266.9 113.167 1269.03 111.845C1271.14 110.982 1271.94 110.766 1272.52 110.571C1273.07 110.399 1273.28 110.336 1273.38 110.295C1273.56 110.221 1273.36 110.241 1273.17 110.259C1273 110.276 1272.81 110.303 1272.73 110.323ZM731.085 2.4239C721.161 3.7523 692.654 3.9982 676.335 4.54852C674.595 3.11224 719.533 2.91148 731.085 2.4239ZM80.8229 157.472C65.8477 160.674 86.4286 157.944 95.3518 156.566C98.2604 156.083 100.032 155.642 99.0857 155.42C98.9332 155.418 97.3778 155.565 95.2469 155.776C89.9451 156.297 81.3229 157.351 80.8229 157.472ZM660.896 145.846C674.221 145.275 632.009 143.132 643.599 144.937C644.171 145.012 660.168 145.878 660.896 145.846ZM476.385 141.289C486.565 141.798 529.573 142.628 512.822 141.415C510.172 141.226 477.202 140.503 476.385 141.289ZM985.287 431.637C990.785 433.081 958.926 433.112 954.494 432.884C952.734 432.797 978.021 429.778 985.287 431.637ZM1140.66 123.467C1130.6 124.433 1104.04 125.63 1099.41 126.63C1111.86 125.892 1144.21 124.837 1140.66 123.467ZM165.878 146.702C149.368 146.771 121.804 150.428 128.896 151.696C159.371 147.86 124.803 150.076 165.878 146.702ZM1225.19 172.704C1225.4 172.774 1225.59 172.83 1225.75 172.872C1225.94 172.921 1226.09 172.955 1226.22 172.973C1226.47 173.009 1226.62 172.991 1226.67 172.916C1226.77 172.767 1226.45 172.375 1225.94 171.811C1224.86 170.66 1224.16 169.457 1224.52 169.657C1225.27 170.042 1226.1 170.454 1226.6 170.682C1227.15 170.941 1227.37 171.038 1227.39 171.092C1227.42 171.188 1226.56 171.099 1225.82 171.16C1224.1 171.211 1223.3 171.768 1225.19 172.704ZM720.08 132.259C719.607 131.382 692.734 131.812 696.323 132.373C697.494 132.562 720.483 132.97 720.08 132.259ZM379.193 9.84621C366.897 9.29605 404.315 7.74556 415.542 8.42636C421.032 9.66118 380.877 9.91373 379.193 9.84621ZM1005.88 156.28C1004.54 157.524 1046.38 158.283 1029.96 156.612C1026.08 156.196 1006.14 155.849 1005.88 156.28ZM604.412 147.234C632.604 146.296 514.402 142.599 545.428 145.218C547.599 145.4 601.948 147.307 604.412 147.234ZM411.288 142.119C416.064 142.391 413.797 146.726 393.526 144.612C390.879 144.338 403.304 143.439 401.146 143.129C399.831 142.95 356.066 141.421 354.179 141.484C352.026 141.555 354.552 143.013 352.327 143.124C349.73 143.246 322.875 141.451 308.797 141.142C282.068 140.558 279.47 141.67 277.153 141.625C270.614 141.494 260.34 140.446 247.206 140.164C237.756 139.963 226.905 139.75 216.322 139.547C199.274 139.212 181.037 138.699 162.223 137.645C152.739 137.105 143.234 136.447 133.281 135.452C128.336 134.953 123.175 134.364 117.703 133.553C114.905 133.133 112.01 132.664 108.589 131.975C106.814 131.613 105.013 131.228 102.557 130.589C101.386 130.281 99.9839 129.899 98.1081 129.292C96.1816 128.613 94.2243 128.15 88.8197 125.445C85.7778 123.851 82.6882 122.133 79.0458 119.794C75.2697 117.195 71.551 115.245 63.989 107.4C62.0484 105.2 59.3178 102.424 55.5712 95.6652C52.0575 89.4959 46.8367 75.17 50.2335 59.569C53.6084 44.1434 61.4113 35.9887 65.756 31.696C70.4641 27.2708 73.6816 25.3382 76.2673 23.7642C86.0143 18.3413 89.23 17.9478 93.0395 16.6371C101.147 14.321 104.106 14.137 107.907 13.5341C111.441 13.0477 114.458 12.7377 117.364 12.4736C123.215 11.9505 128.297 11.6663 133.231 11.4495C143.023 11.0333 151.645 10.9609 159.285 11.0433C149.851 11.1778 140.489 11.4812 130.719 12.1081C125.807 12.4288 120.857 12.8201 115.448 13.4209C112.77 13.7217 109.895 14.0808 106.672 14.5921C103.268 15.1874 100.287 15.5226 93.3277 17.5737C89.4945 18.9309 86.2762 19.3462 76.5467 24.8562C73.9624 26.4589 70.737 28.4315 66.0656 32.9362C61.735 37.2898 54.0432 45.7621 51.1196 60.9382C48.2114 76.2179 53.4014 89.5537 56.7513 95.4136C60.3627 101.822 62.9754 104.481 64.8567 106.596C72.401 114.365 76.0697 116.222 79.8121 118.755C83.4182 121.025 86.4683 122.679 89.4595 124.208C95.1396 127.024 96.8788 127.358 98.9318 128.066C100.763 128.637 102.169 129.006 103.404 129.314C105.832 129.914 107.787 130.306 109.524 130.633C113.047 131.289 116.012 131.722 118.904 132.109C124.658 132.869 129.847 133.377 135.028 133.826C145.317 134.703 155.266 135.272 165.145 135.753C151.334 137.799 234.474 136.561 185.892 137.654C190.371 137.707 201.332 137.998 216.352 138.223C275.375 139.109 398.592 141.417 411.234 142.118C411.252 142.119 411.27 142.119 411.288 142.119ZM170.203 282.033C158.069 282.865 219.85 286.05 225.099 284.462C216.972 283.886 171.933 282.035 170.203 282.033ZM205.617 136.343C211.443 135.636 216.791 132.089 247.302 131.618C247.33 131.616 247.358 131.614 247.386 131.612C256.313 131.499 246.234 132.83 247.865 132.985C248.45 133.026 276.234 132.897 253.243 134.454C218.213 137.037 249.816 132.453 231.091 133.675C228.763 133.749 193.372 138.202 195.467 138.439C195.666 138.455 206.349 137.195 208.127 137.203C214.899 137.197 211.667 138.377 212.622 138.343C215.717 138.015 271.597 132.865 279.75 134.005C282.468 133.911 190.711 141.025 186.999 141.714C184.738 141.785 185.444 139.17 183.05 139.151C181.836 139.047 144.839 143.996 140.115 144.429C138.726 144.529 137.659 144.585 136.873 144.621C142.469 144.691 109.399 148.807 110.349 147.828C110.841 147.395 133.602 144.692 134.449 144.673C134.811 144.654 135.127 144.651 135.422 144.64C130.395 143.943 208.638 135.836 191.65 136.232C214.348 133.443 188.6 138.568 205.617 136.343ZM314.101 128.476C311.781 128.831 309.486 129.187 307.216 129.544C342.539 127.543 382.589 127.528 423.046 127.1C427.54 127.052 432.054 126.998 436.581 126.934C447.979 126.779 434.853 125.321 449.768 125.574C461.751 125.779 474.949 127.158 468.466 127.563C466.874 127.659 442.586 126.955 430.368 127.244C427.681 127.306 425.251 127.371 423.051 127.439C395.616 128.305 403.271 129.4 401.322 129.463C398.93 129.54 376.449 129.011 363.872 129.392C332.653 130.374 318.435 131.558 275.406 132.506C300.151 130.4 286.5 128.99 314.101 128.476ZM828.804 155.005C827.386 155.846 801.978 154.406 792.872 154.307C794.297 153.459 819.686 154.893 828.804 155.005ZM585.571 264.951C577.922 266.591 636.183 265.427 620.798 264.627C617.457 264.444 592.972 264.761 585.571 264.951ZM847.667 259.33C855.453 258.74 824.035 258.468 824.121 259.583C824.174 259.941 846.664 259.407 847.667 259.33ZM816.365 125.317C817.824 125.269 839.237 125.476 839.881 125.542C854.093 127.012 783.615 126.466 816.365 125.317ZM1165.37 248.504C1152.62 249.411 1163.89 249.333 1176.36 248.955C1191.32 248.501 1208.2 247.601 1194.75 247.514C1193.82 247.518 1184.85 247.82 1176.33 248.11C1170.82 248.296 1165.9 248.466 1165.37 248.504ZM1276.7 242.763C1271.04 243.355 1242.48 244.53 1242.4 244.938C1241.64 245.744 1274.15 244.308 1276.7 242.763ZM1220.92 177.232C1221.71 178.269 1216.68 177.058 1207.55 175.619C1198.56 174.162 1186.72 172.642 1180.38 172.136C1177.57 170.106 1214.06 175.259 1220.92 177.232ZM1110.65 116.803C1266.59 102.951 1232.33 110.313 1101.36 118.109C1101.12 117.073 1100.78 117.44 1110.65 116.803ZM1243.62 190.51C1245.31 190.741 1248.4 191.821 1250.58 192.828C1251.61 193.284 1252.49 193.824 1251.88 193.436C1251.53 193.19 1250.83 192.788 1248.95 191.131C1247.09 188.93 1243.74 188.078 1237.34 174.259C1236.24 170.908 1231.9 162.633 1234.06 146.007C1236.46 128.974 1247.61 116.738 1252.98 112.582C1264.16 104.136 1266.37 104.864 1268.49 103.782C1270.41 103.133 1271.04 103.001 1271.47 102.882C1271.85 102.786 1271.92 102.773 1271.86 102.78C1271.86 102.72 1271.89 102.661 1271.79 102.635C1271.69 102.613 1271.5 102.603 1270.7 102.781C1270.24 102.89 1269.7 103.017 1268.54 103.386C1267.39 103.781 1265.85 104.23 1262.43 105.909C1259.3 108.102 1252.45 108.932 1240.98 125.731C1235.4 134.169 1232.14 148.412 1233.06 157.568C1233.77 167.09 1235.85 171.672 1236.88 174.45C1241.87 185.777 1245.41 188.193 1247.44 190.513C1249.5 192.525 1250.53 193.234 1251.12 193.678C1252.24 194.473 1251.69 194.065 1250.83 193.641C1248.99 192.684 1245.64 191.251 1243.62 190.51ZM515.913 264.678C526.094 263.04 570.782 263.414 562.876 264.181C561.122 264.333 512.132 265.501 515.913 264.678ZM829.792 123.858C826.061 122.312 874.183 122.634 877.84 122.927C892.697 124.223 833.672 123.522 829.792 123.858ZM1004.09 163.586C995.621 164.534 971.425 163.101 955.909 162.607C962.888 161.759 990.972 163.11 1004.09 163.586ZM1115.32 169.198C1114.28 169.169 1093.17 167.974 1092.01 167.879C1074.48 165.767 1135 169.207 1115.32 169.198ZM1058.25 441.515C1057.54 441.569 1041.03 441.793 1040.46 441.755C1025.73 440.835 1075.18 440.17 1058.25 441.515Z" fill="#0066FF"/>
</svg>
