<svg width="1631" height="719" viewBox="0 0 1631 719" fill="none" xmlns="http://www.w3.org/2000/svg">
<path d="M955.323 521.557C949.973 521.802 928.697 521.139 919.373 521.221C929.922 518.57 974.495 520.672 955.323 521.557ZM326.091 480.696C318.295 482.311 310.423 483.972 302.692 485.642C325.043 483.143 355.377 479.135 376.275 477.664C379.732 477.417 370.986 480.241 379.154 479.493C387.131 478.778 385.401 476.303 397.1 474.897C410.195 473.206 470.386 470.061 490.859 468.68C523.978 466.249 556.96 463.895 590.199 461.783C634.1 459.003 678.215 456.739 721.627 455.44C643 460.928 722.379 459.292 744.44 457.523C749.29 457.131 748.445 452.224 827.371 450.187C877.494 448.912 831.53 457.769 914.929 450.877C850.473 448.613 913.723 446.391 964.002 444.17C972.676 443.792 1042.73 441.63 1073.56 440.065C1084.15 439.532 1100.04 436.279 1114.11 435.582C1123.7 435.108 1131.11 436.173 1145.36 435.445C1204.42 432.423 1262.65 429.42 1320.66 426.021C1328.64 425.546 1335.44 425.151 1343.34 424.686C1304.94 433.776 1374.03 425.486 1377.11 425.541C1393.07 426.267 1321.54 431.556 1349.93 430.785C1369.82 429.365 1389.18 427.958 1408.79 426.371C1418.3 425.594 1428 424.768 1436.37 423.874C1438.3 423.667 1440.4 423.423 1441.77 423.239C1442.57 423.133 1443.09 423.056 1443.4 423.003C1443.65 422.965 1443.73 422.918 1442.36 423.183C1442.2 423.216 1442.01 423.254 1441.8 423.298C1441.58 423.346 1441.4 423.383 1441 423.473C1440.29 423.637 1439.38 423.854 1438.22 424.171C1437.64 424.33 1437 424.515 1436.28 424.734C1435.51 424.964 1434.14 425.401 1432.79 425.885C1431.39 426.383 1429.78 426.996 1427.89 427.806C1426.95 428.212 1425.94 428.668 1424.84 429.19C1423.48 429.834 1421.37 430.903 1419.31 432.082C1415.09 434.507 1409.87 437.844 1403.71 443.416C1396.53 449.601 1381.98 466.56 1377.04 488.666C1370.73 512.566 1378.17 539.061 1384.48 550.09C1389.96 560.541 1394.88 566.009 1398.28 569.761C1403.99 575.767 1406.24 577.217 1406.82 577.769C1407.46 578.278 1406.66 577.674 1404.82 576.137C1401.43 572.131 1391.44 568.836 1377.94 539.113C1371.52 523.936 1369 500.413 1374.87 480.831C1379.8 463.496 1388.04 452.288 1394.04 445.311C1399.11 439.496 1403.84 435.417 1407.98 432.236C1411.61 429.486 1413.87 428.03 1416.45 426.437C1421.85 423.188 1424.32 422.07 1427.25 420.678C1425.47 421.489 1423.64 422.377 1421.76 423.367C1419.52 424.54 1416.67 426.163 1413.9 427.96C1412.49 428.87 1411.05 429.855 1409.57 430.93C1407.97 432.079 1405.54 433.957 1403.42 435.794C1401.23 437.681 1398.96 439.802 1396.68 442.2C1395.53 443.4 1394.38 444.668 1393.24 446.011C1392.09 447.348 1390.21 449.688 1388.72 451.761C1382.32 460.985 1377.2 469.502 1373.27 486.449C1369.78 502.427 1371.23 518.657 1374.84 530.872C1382.89 555.751 1391.28 562.352 1395.67 567.926C1404.45 577.108 1405.49 577.185 1406.22 578.066C1406.5 578.347 1406.53 578.422 1406.53 578.477C1406.52 578.524 1406.49 578.558 1406.36 578.511C1406.01 578.321 1405.59 578.27 1401.29 574.588C1399 572.489 1396.11 570.168 1390.36 563.151C1385.37 556.446 1375.44 544.632 1371.08 519.268C1369.15 507.174 1369.79 492.628 1373.67 479.503C1377.2 467.53 1381.77 459.239 1387.01 451.69C1392.94 443.5 1395.61 441.055 1399.54 437.196C1403.04 433.845 1407.28 430.533 1409.41 429.001C1413.99 425.641 1418.86 422.808 1421.79 421.242C1424.69 419.678 1427.4 418.373 1429.98 417.223C1431.16 416.534 1432.36 415.817 1433.07 415.298C1433.41 415.046 1433.63 414.843 1433.51 414.816C1433.37 414.801 1432.93 414.918 1431.53 415.662C1430.03 416.551 1427.96 417.416 1421.8 422.51C1418.8 425.173 1414.25 428.876 1407.54 438.296C1401.48 447.033 1389.31 467.637 1391.89 497.902C1394.85 528.104 1410.23 545.773 1417.42 553.166C1425.41 561.094 1429.99 563.731 1433.3 565.891C1439.63 569.715 1441.31 570.188 1442.35 570.728C1435.92 568.003 1427.55 564.054 1417.28 555.495C1412.2 551.202 1406.69 545.649 1401.53 538.48C1396.42 531.847 1388.28 516.349 1385.76 502.612C1379.25 473.835 1390.52 446.842 1394.08 440.633C1399.17 430.743 1404 424.853 1407.85 420.459C1412.18 415.677 1413.64 414.47 1415.71 412.563C1417.63 410.846 1419.26 409.507 1420.69 408.38C1423.74 405.993 1425.07 405.1 1426.53 404.078C1429.39 402.125 1430.79 401.277 1431.9 400.575C1433.03 399.875 1433.59 399.529 1433.98 399.284C1435.28 398.576 1433.58 399.038 1426.99 404.595C1423.69 407.559 1418.4 412.187 1411.82 422.138C1404.91 432.514 1395.99 452.442 1397.63 476.654C1404 526.314 1426.78 535.242 1430.11 539.832C1424.83 536.314 1438.06 547.767 1444.47 550.584C1451.31 554.122 1452.97 554.188 1451.21 553.868C1447.5 552.955 1433.45 550.358 1416.73 548.191C1383.04 543.7 1337.8 539.672 1307.54 537.794C1294.58 536.958 1283.55 536.675 1278.72 536.962C1272.83 537.531 1310.59 539.899 1223.81 538.896C1214.39 538.881 1217.92 537.083 1212.93 537.328C1209.8 537.477 1192.18 543.364 1172.6 540.911C1165.32 540.169 1211.02 534.415 1111.07 540.031C1151.47 543.423 971.943 550.556 938.32 551.906C945.03 552.216 951.658 552.536 958.388 552.853C925.437 552.988 919.509 555.346 912.129 555.741C882.174 557.369 840.837 558.32 812.821 560.431C780.045 562.89 780.165 566.43 741.732 567.612C750.931 567.784 760.02 567.955 769.177 568.116C742.746 569.713 716.174 571.269 689.558 572.723C750.843 564.195 676.308 573.358 671.314 573.709C663.431 574.348 674.651 571.772 661.478 572.787C660.109 572.902 662.221 574.599 641.888 575.954C599.358 578.704 605.851 576.03 587.981 576.942C586.289 577.02 592.337 578.421 561.13 580.171C462.119 585.087 561.77 579.037 565.348 578.523C570.219 577.936 536.447 572.98 619.967 571.21C591.907 571.914 588.915 569.006 585.779 569.091C583.06 569.217 534.304 571.691 531.523 571.827C507.574 573.67 528.737 574.993 524.078 575.52C520.457 576.049 460.899 574.932 447.004 581.057C418.16 575.536 463.602 576.092 510.948 573.696C517.796 572.391 465.615 572.592 462.805 572.528C394.974 573.201 432.725 577.44 417.687 580.515C409.654 582.094 381.928 578.591 407.59 583.033C344.93 582.574 382.966 580.653 378.946 580.284C372.925 579.669 350.687 580.145 347.888 579.83C343.834 579.422 358.015 578.571 342.032 577.377C339.573 577.2 313.137 578.399 346.676 581.197C326.507 580.173 315.531 579.724 309.045 579.299C300.799 578.728 298.083 578.078 290.001 575.033C257.59 580.109 267.961 568.01 255.394 566.122C222.763 560.643 230.798 567.886 229.158 568.045C217.037 569.501 122.064 547.309 90.3285 528.762C105.392 533.672 173.808 559.604 188.441 560.427C213.549 563.944 196.184 560.207 177.276 554.877C157.941 549.487 136.438 541.305 156.023 544.146C140.24 541.304 123.414 537.41 105.695 531.337C90.6686 522.44 94.339 522.38 91.2151 520.074C89.4684 518.718 86.7129 517.267 77.4079 511.591C68.7573 504.858 53.6678 501.317 26.397 464.163C16.3728 451.082 35.5956 483.565 54.0061 496.898C72.0758 511.656 87.6819 518.762 79.0048 515.467C73.8507 513.084 57.5981 504.611 39.8371 486.78C21.5861 470.608 6.98799 434.827 7.13372 433.12C5.59091 431.888 17.1872 464.183 31.0391 479.05C44.2294 495.038 55.6135 502.974 50.8142 500.221C46.136 495.982 27.1063 486.409 8.80417 445.864C0.057518 425.905 -3.70848 393.497 4.74137 367.082C12.7658 340.436 27.1986 323.399 38.2086 312.729C60.9813 291.84 74.6056 288.097 71.9674 289.439C70.7312 290.49 65.1557 293.281 53.6631 302.007C43.529 311.604 19.386 324.129 5.54366 375.486C21.5267 318.677 51.2443 306.874 68.7573 296.057C87.8777 286.387 103.885 282.013 122.284 276.875C122.63 276.776 122.979 276.676 123.329 276.576C127.302 275.449 125.607 275.204 121.922 275.253C109.714 275.859 76.831 282.705 120.546 269.091C134.543 265.415 157.25 261.254 189.867 258.962C193.773 261.006 131.995 266.227 128.619 268.161C126.289 268.925 139.651 273.098 141.693 273.141C152.962 269.192 288.853 259.351 315.096 263.599C304.438 259.717 412.487 262.511 423.83 261.355C426.925 261.026 415.344 258.718 418.656 258.463C439.364 256.972 494.781 260.855 520.373 260.519C548.994 260.185 545.264 258.177 546.878 258.162C559.456 258.01 549.463 259.592 557.113 259.42C559.428 259.366 564.469 259.261 571.116 259.102C598.546 258.381 651.838 257.701 655.083 257.459C656.291 257.355 642.841 255.225 660.758 254.554C663.85 254.463 661.967 257.112 714.826 255.506C778.432 253.661 670.606 252.431 697.016 249.386C737.962 253.132 736.57 249.15 747.65 249.4C751.492 249.494 780.018 252.799 810.877 252.515C788.728 253.124 766.537 253.75 744.309 254.422C766.178 254.901 808.511 254.042 826.43 254.691C835.168 255.005 827.99 257.84 846.958 257.727C850.984 257.689 866.981 250.78 817.228 253.966C813.242 251.519 836.944 253.068 847.899 252.354C849.562 252.243 856.104 248.131 870.105 250.651C873.429 251.256 837 263.355 931.147 254.411C934.175 254.12 923.636 252.663 926.597 252.341C928.623 252.127 952.627 252.625 955.246 252.394C957.949 252.151 946.387 250.577 949.604 250.238C966.117 248.495 987.841 254.839 953.762 254.55C965.172 255.291 976.554 256.018 987.926 256.727C975.739 251.935 1005.75 255.218 1021.45 254.866C1121.74 252.36 1054.51 250.21 1071.71 248.294C1099.24 245.045 1078.42 253.975 1119.17 250.326C1122.43 250.003 1085.52 248.481 1139.34 247.353C1147.44 247.151 1157.43 246.935 1169.76 246.654C1159.71 247.193 1149.61 247.695 1139.37 248.166C1135.35 248.351 1131.3 248.531 1127.22 248.704C1129.4 249.868 1133.95 250.285 1139.44 250.25C1155.29 250.16 1179.38 246.308 1181.74 246.135C1219.39 243.557 1194.11 246.828 1249.6 240.892C1254.59 240.337 1265.4 240.753 1275.95 239.35C1319.53 233.619 1218.01 242.185 1214.95 240.032C1213.77 239.623 1322.97 231.779 1326.44 231.271C1342.45 231.796 1277.33 236.656 1289.96 237.921C1293.88 238.551 1388.16 228.872 1443.35 219.033C1445.29 218.723 1444.88 218.583 1442.67 219.576C1440.51 220.507 1436.75 222.793 1434 225.188C1422.34 234.235 1416.31 253.336 1417.1 260.352C1417.26 268.141 1418.94 271.129 1419.17 273.782C1421.57 283.612 1423.27 286.992 1423.93 289.726C1424.63 292.298 1424.47 293.481 1423.61 294.129C1428.87 299.663 1431.55 300.839 1433.11 301.874C1434.65 302.77 1435.07 303.033 1435.07 303.258C1435.03 303.631 1433.42 303.845 1432.82 303.368C1431.78 302.536 1430.34 301.486 1428.8 300.431C1434.18 303.935 1439.74 306.152 1442.81 307.09C1446 308.077 1447.29 308.224 1447.7 308.284C1448.42 308.333 1446.13 307.979 1443.9 307.79C1439.01 307.352 1433.28 307.09 1427.62 306.9C1415.95 306.513 1403.62 306.418 1380.24 306.105C1369.07 305.949 1359.79 303.513 1355.76 303.746C1353.46 303.889 1357.54 306.325 1346.42 306.662C1330.67 307.357 1236.8 300.464 1230.03 298.602C1223.24 296.974 1269.67 300.234 1261.4 297.681C1236.1 296.206 1211.59 295.011 1186.55 293.434C1178.97 292.958 1170.9 292.467 1162.9 291.97C1149.59 291.151 1156.5 290.064 1150.68 289.731C1148.02 289.5 1101.46 288.761 1103.3 289.427C1105.86 290.217 1153.53 292.14 1186.47 294.71C1213.42 296.728 1232 298.239 1214.8 298.341C1208.79 298.355 1192.88 295.563 1186.39 295.935C1184.47 296.079 1183.6 296.583 1184.54 297.671C1057.21 289.071 924.999 287.123 793.489 284.924C869.196 282.491 954.211 286.176 1032.74 287.958C1043.37 288.171 1079.73 289.704 1075.42 287.511C1008.9 284.731 925.406 284.482 860.795 282.44C858.726 282.372 866.341 280.598 858.597 280.218C844.085 279.496 796.897 282.067 788.933 281.237C787.583 281.043 814.479 278.822 806.32 277.195C785.369 273.021 779.966 281.83 761.916 281.59C747.977 281.385 654.049 276.512 630.566 279.056C605.643 281.776 699.861 281.18 692.896 283.489C629.142 285.445 564.652 282.535 504.008 282.151C502.951 282.146 512.131 284.097 498.709 284.203C475.026 284.373 469.099 281.662 457.507 281.077C445.454 280.483 401.112 280.039 395.495 278.926C394.75 278.786 403.612 276.38 404.975 276.334C424.358 275.659 430.743 279.122 432.565 279.201C439.115 279.442 445.616 278.255 451.472 278.422C461.166 278.697 466.796 279.974 479.515 280.245C488.403 280.435 479.84 278.033 488.434 278.245C491.716 278.343 525.472 283.949 528.668 278.625C529.145 277.456 416.217 275.6 325.716 271.854C276.47 269.749 235.771 269.091 226.099 269.474C248.899 270.419 272.12 271.641 295.332 273.016C247.995 269.802 192.446 273.769 188.588 267.591C175.597 267.605 162.626 267.76 150.475 268.185C144.416 268.398 138.437 268.686 133.048 269.076C130.376 269.269 127.863 269.488 125.589 269.731C124.41 269.857 123.525 269.962 121.281 270.232C120.971 270.268 120.633 270.308 120.253 270.351C119.849 270.397 119.263 270.462 118.633 270.526C117.495 270.635 115.383 270.872 111.765 270.995C109.492 271.062 106.693 271.087 102.907 270.821C98.2246 270.449 93.1718 269.876 85.6326 267.719C78.3687 265.642 70.7928 262.09 65.2935 258.613C59.6176 255.028 56.8267 252.588 54.6548 250.739C46.5994 243.031 39.1967 238.509 25.8703 216.265C16.9691 198.62 17.8372 194.117 16.6659 189.527C15.9633 185.181 15.78 182.697 15.6082 180.271C15.335 175.932 15.3652 172.978 15.4136 170.448C15.537 165.399 15.8562 161.692 16.2289 158.082C16.9959 150.955 18.0205 144.743 19.4815 137.983C20.9992 131.194 22.7305 124.265 26.3398 114.858C28.2374 110.084 30.4595 104.718 35.0446 97.0916C40.3242 89.7211 44.972 78.0731 70.4094 63.6171C66.248 65.7758 63.2545 67.7867 61.0475 69.3842C59.0426 70.8469 57.8462 71.846 56.8829 72.6649C55.9021 73.5073 55.4899 73.8948 55.1433 74.2154C54.8181 74.5191 54.6741 74.6613 54.6677 74.6686C54.6592 74.6887 56.0975 73.2571 57.6896 71.7317C61.0403 68.5102 65.1728 64.8494 69.3701 61.5511C77.7335 54.9591 86.1161 49.7417 93.959 45.5139C109.91 36.9996 123.734 32.014 137.247 27.8011C163.959 19.6836 188.226 15.5886 211.84 12.4924C258.845 6.58611 303.211 5.35456 347.519 5.47468C392.573 5.67767 438.791 5.6021 484.502 5.50625C516.475 5.87436 498.946 10.0374 551.194 8.55106C537.563 7.33781 524.241 6.12106 510.598 4.90269C537.375 5.67249 656.234 6.70783 675.482 5.7604C677.896 5.63672 681.616 1.93626 711.121 1.45056C737.603 1.02102 741.708 3.75438 755.839 4.20571C767.772 4.577 780.979 3.78787 784.485 3.92233C787.178 4.03052 788.244 5.70926 794.743 5.97077C815.283 6.77881 798.749 2.11584 818.978 7.46593C814.038 7.69643 809.183 7.92697 804.16 8.15877C828.764 8.82716 862.714 11.1544 826.209 12.5354C819.962 12.7746 825.319 11.1206 820.664 11.1448C638.011 12.3912 783.706 14.7614 847.965 11.9633C864.274 14.2897 956.592 12.513 959.662 12.9986C963.94 13.6774 948.107 15.6449 968.873 17.2615C973.118 17.5672 1096.54 16.1041 1052.14 19.3497C1042.93 20.0072 983.767 19.3938 969.597 19.5304C1003.09 24.5517 1081.7 17.1726 1090.58 17.3792C1126.26 18.186 1022.02 21.8012 1102.4 22.4142C1164.2 22.9307 1106.17 19.4532 1129.96 18.0216C1143.3 17.2014 1213.25 21.1569 1211.37 16.2907C1235.38 15.861 1221.32 18.3894 1224.28 18.5861C1227.18 18.7532 1274.41 17.5161 1289.73 18.6496C1291.59 18.7888 1285.72 21.2865 1287.64 21.5056C1291.35 21.8735 1336.95 21.6902 1338.75 21.4995C1339.91 21.3592 1329.09 19.056 1333.55 18.5529C1338.69 17.9625 1382.64 18.8761 1384.99 18.2751C1388.46 17.3375 1334.3 17.4873 1343.33 15.0908C1368.33 15.9111 1409.02 14.6727 1425.44 12.8764C1421.43 13.3972 1397.26 13.212 1388.81 12.9295C1392.86 9.32175 1444.76 9.96744 1426.96 12.6379C1438.32 11.229 1430.59 10.3171 1436.99 8.93731C1438.67 8.58722 1454.73 8.71534 1457.81 8.12901C1458.22 8.00758 1441.69 6.42368 1445.01 5.7288C1450.99 4.4549 1499.77 5.44817 1503.67 5.87544C1514.83 7.03789 1475.23 7.63026 1471.82 9.12598C1471.39 9.34829 1505.09 12.8529 1505.55 13.1329C1507.52 16.0015 1470 13.3917 1474.24 16.0213C1483.55 16.6943 1492.83 17.3735 1502.06 18.0593C1466.16 20.0617 1400.06 17.9658 1382.87 20.769C1435.93 20.3927 1491.58 21.331 1491.34 27.9792C1491.28 30.7743 1468.31 32.0837 1469.17 32.8105C1472.57 35.3974 1504.37 33.1058 1505.49 33.2647C1506.45 33.4351 1506.89 33.5932 1506.88 33.7402C1506.88 33.7403 1506.88 33.7404 1506.88 33.7404C1506.96 35.2197 1461.49 35.6247 1459.31 36.2897C1455.48 37.4462 1475.55 42.699 1475.53 43.8022C1474.76 44.0061 1442.6 44.7558 1453.43 46.8211C1464.3 48.8979 1492.68 49.3542 1493.61 49.5745C1499.01 50.805 1449.58 51.1609 1448.14 51.8435C1447.38 52.1765 1473.75 54.661 1474.57 55.2893C1475.19 55.9107 1455.08 56.973 1447.13 58.8139C1441.21 60.1783 1458.39 61.5051 1455.36 61.6922C1453.23 61.8007 1406.59 61.2185 1404.32 61.4598C1400.9 61.7973 1411.79 63.6376 1410.2 64.051C1407.95 64.644 1392.9 63.8634 1394.85 64.5216C1396.33 64.993 1454.58 71.6143 1454.16 73.2134C1453.53 75.8974 1391.68 68.9245 1449.12 80.3019C1449.53 80.3761 1463.48 79.8028 1463.86 79.8749C1472.46 81.9582 1427.62 84.357 1482.45 84.5939C1380.47 86.6377 1469.72 88.4725 1454.56 92.8256C1448.75 94.4889 1409.19 94.7414 1409.04 95.0105C1412.87 97.2721 1425.36 95.6932 1429.69 96.8348C1431.97 97.4643 1396.74 99.4162 1404.65 101.03C1408.73 101.851 1446.25 102.018 1447.79 102.199C1462.58 103.837 1444.4 105.157 1447.64 106.226C1449.81 106.939 1472.34 107.298 1472.98 107.435C1473.86 107.7 1443.24 110.068 1436.79 110.973C1431.91 111.664 1450.16 113.071 1446.76 113.357C1426.2 115.046 1382.95 109.577 1424.65 117.053C1427.21 117.511 1443.11 117.533 1443.56 117.626C1453.36 119.735 1424.06 119.54 1418.89 121.113C1409.89 123.809 1451.84 122.739 1416.96 124.301C1443.14 126.438 1457.57 126.541 1488.29 126.483C1403.52 126.724 1373.55 133.697 1467.56 134.682C1437.73 134.164 1440.95 138.314 1432.02 138.274C1426.41 138.235 1383.18 133.698 1402.95 143.045C1405.45 144.208 1431.71 143.061 1423.47 145.301C1360.33 144.009 1422.16 146.763 1422.18 147.081C1421.38 152.336 1266.89 146.622 1240.31 147.237C1209.47 147.808 1182.08 151.976 1175.38 151.964C1153.32 151.913 1171.63 149.804 1166.7 149.001C1161.71 148.192 1098.98 152.233 1095.88 152.018C1083.74 151.103 1096.07 148.557 1094.8 148.428C1079.73 146.838 995.494 148.907 971.947 148.388C972.63 150.037 1020.03 150.082 990.441 152.793C956.131 155.96 954.001 148.681 953.13 148.36C795.306 148.818 637.695 150.069 479.414 150.986C481.745 154.872 584.621 151.348 587.135 151.837C600.857 154.793 426.643 155.756 404.764 154.349C421.347 155.144 437.71 155.92 453.684 156.687C430.928 160.454 384.933 157.38 347.249 157.125C339.154 157.071 332.09 157.226 325.195 157.676C312.845 158.501 336.551 159.878 335.972 160.043C322.182 161.816 300.541 161.116 316.632 158.379C283.448 161.57 288.202 158.991 263.226 160.515C262.044 160.624 272.522 161.503 253.333 163.911C243.719 164.586 198.297 171.62 194.484 175.016C192.419 176.041 214.401 178.442 216.307 172.224C266.334 168.144 231.649 167.214 251.641 165.039C255.112 165.027 246.999 167.861 299.907 163.762C289.626 169.633 229.942 169.973 221.563 172.854C201.454 176.616 284.722 169.771 302.039 165.86C294.626 170.884 308.248 166.129 328.633 166.079C344.682 166.082 344.005 166.964 347.231 167.366C348.394 167.514 350.09 167.614 353.377 167.62C388.564 167.664 374.057 164.333 402.72 167.282C374.683 158.061 452.007 165.917 474.593 168.211C437.877 168.861 401.595 169.483 364.511 169.958C366.668 170.446 368.888 170.934 370.874 171.421C362.984 171.369 354.755 171.308 347.224 171.238C345.494 171.223 343.78 171.21 342.081 171.2C343.551 170.73 345.034 170.261 346.53 169.795C299.605 172.967 289.07 170.801 285.234 170.816C261.654 171.851 236.452 174.012 214.015 177.971C192.339 181.269 170.429 189.841 170.986 190.538C171.069 190.478 171.384 190.645 171.849 190.715C172.052 190.777 172.423 190.688 172.402 190.918C172.338 191.087 172.305 191.211 171.064 192.518C170.385 193.218 169.451 194.215 166.999 196.489C164.185 198.757 161.131 202.886 146.542 210.889C171.706 196.521 174.65 185.716 178.114 180.89C180.899 175.682 181.267 173.831 181.496 173.023C181.655 172.266 181.378 172.793 181.092 173.67C180.946 174.1 180.79 174.639 180.664 174.986C180.601 175.154 180.546 175.273 180.504 175.213C180.461 175.138 180.436 174.936 180.407 174.088C180.362 173.129 180.363 171.69 180.001 168.115C179.813 166.413 179.516 163.818 178.714 159.994C178.246 157.777 177.612 155.172 176.61 152.02C175.382 148.192 173.524 143.101 170.051 136.813C166.885 131.756 166.132 131.603 165.434 131.047C164.804 130.676 164.53 130.799 164.065 130.604C163.624 130.443 162.913 129.869 162.121 129.156C161.348 128.451 160.644 127.862 161.037 128.125C161.146 128.069 161.259 128.022 161.372 127.978C159.723 126.503 157.313 124.378 152.983 121.461C148.579 118.487 142.391 115.162 136.07 112.869C122.465 108.018 113.734 108.085 109.897 107.852C101.545 107.759 102.076 107.934 101.536 107.764C101.396 107.492 103.483 106.979 104.739 106.614C107.792 105.816 110.425 105.25 112.828 104.836C117.309 104.043 120.534 103.871 122.806 103.957C127.702 104.116 129.805 105.239 134.105 105.015C159.188 103.812 173.083 102.31 175.274 102.216C204.479 101.586 245.471 102.477 276.426 103.088C277.147 103.083 261.031 100.682 280.93 101.793C284.746 102.012 305.226 105.138 331.789 107.988C352.868 110.325 378.541 112.095 402.852 111.365C388.967 110.495 375.307 109.589 361.392 108.613C377.382 110.142 492.067 109.882 464.092 107.148C447.1 105.554 404.776 110.196 400.528 104.843C438.015 107.707 650.023 107.008 666.724 108.238C669.014 108.426 654.894 110.032 658.061 110.269C660.553 110.451 709.2 110.36 715.674 111.056C719.516 111.468 697.995 112.368 699.747 112.991C701.234 113.432 762.131 114.57 765.63 112.478C750.651 113.216 708.655 112.191 730.702 110.546C733.531 110.342 748.21 111.816 751.66 111.558C783.635 109.173 688.147 109.142 673.405 109.037C733.305 106.708 826.114 110.486 895.953 109.647C924.114 111.777 854.067 111.836 886 113.697C952.157 117.618 903.633 111.478 905.673 111.278C922.23 109.679 978.016 120.214 978.282 112.963C1002.21 114.549 994.562 115.274 1028.54 115.142C1024.04 114.523 1019.56 113.91 1015.14 113.301C1052.79 109.791 1133.28 123.457 1126.96 124.12C1110.89 125.557 1068.82 120.748 1065.49 120.759C1060.25 120.752 1045.29 127.539 988.021 119.715C964.27 124.082 1079.22 125.242 1026.84 127.322C1053.87 127.48 1144.98 132.207 1196.74 135.743C1212.34 136.737 1223.62 137.209 1228.54 136.99C1231.05 136.839 1219.8 131.289 1254.69 135.771C1271.29 137.886 1231.26 135.72 1238.73 137.257C1245.89 138.693 1279.26 141.225 1324.46 143.282C1347.06 144.312 1372.3 145.161 1399.04 145.813C1412.63 146.166 1425.98 146.396 1441.26 146.997C1457.27 149.75 1470.51 141.126 1516.7 165.765C1524.49 170.859 1532.42 176.39 1541.46 184.391C1545.98 188.452 1550.79 193.057 1556.31 199.831C1561.66 207.134 1568.64 214.11 1574.72 235.998C1584.83 271.122 1573.18 322.083 1542.09 348.312C1512.59 373.909 1487.7 377.69 1469.82 381.272C1453.97 383.937 1441.17 385.919 1432.95 387.135C1428.84 387.735 1430.17 385.995 1426.13 386.585C1413.83 388.504 1368.88 396.415 1346.76 397.793C1392.9 395.893 1303.85 405.335 1281.38 406.259C1247.17 408.255 1249.13 405.298 1234.36 405.647C1208.64 406.184 1176.73 408.498 1145.25 410.212C1107.24 412.299 1070.24 413.411 1046.29 410.497C1048.76 416.482 970.847 408.498 935.707 408.501C908.133 408.576 868.215 412.588 905.377 414.893C857.824 414.753 807.938 415.892 763.607 416.438C756.281 416.53 766.36 414.728 753.86 414.942C752.726 414.975 751.163 416.702 740.442 416.939C651.999 419.056 695.05 415.138 678.478 414.192C669.217 413.689 662.417 413.475 657.4 413.442C708.8 412.411 768.401 411.558 784.363 411.456C770.692 407.63 669.917 412.755 640.598 412.326C639.576 412.304 643.1 410.154 642.063 410.154C642.041 410.155 642.02 410.155 641.998 410.155C633 410.114 584.56 411.569 575.14 413.419C573.034 413.806 572.777 414.194 575.17 414.566C575.269 414.582 575.372 414.598 575.48 414.614C579.319 415.179 611.482 414.345 649.792 413.594C639.442 414.213 647.211 416.449 645.385 416.576C629.963 417.599 599.044 417.287 575.239 417.219C564.428 417.193 555.125 417.113 549.079 417.141C544.566 417.163 544.922 418.659 544.182 418.678C526.209 418.659 533.54 414.243 515.191 418.94C482.646 414.089 576.082 417.148 569.443 413.644C563.907 411.984 357.944 414.377 359.118 418.437C358.413 417.989 355.578 417.437 349.87 416.823C337.098 415.382 281.05 416.42 271.713 417.566C270.113 417.759 270.852 421.835 268.879 421.923C263.866 421.916 196.749 421.294 176.504 427.337C188.124 426.309 200.69 425.717 213.567 425.398C174.649 428.188 162.669 431.802 159.997 432.667C157.515 433.693 164.435 432.658 176.017 431.645C177.177 431.492 178.272 431.5 179.386 431.369C197.483 429.792 223.709 429.192 224.073 429.502C225.349 430.137 181.148 432.913 158.25 437.975C153.433 438.925 152.665 439.576 153.987 438.18C154.527 437.576 155.305 436.63 155.32 436.208C155.386 435.744 154.666 435.899 153.605 436.159C153.424 436.205 153 436.465 152.682 436.652C152.359 436.846 152.216 436.921 152.483 436.824C152.948 436.638 155.222 435.893 157.665 435.356C165.35 433.698 169.991 432.566 158.793 433.481C158.453 433.513 157.937 433.592 157.297 433.71C155.254 433.942 151.219 435.535 151.677 435.535C151.837 435.505 153.166 434.765 154.832 433.243C156.485 431.776 158.208 429.626 158.446 429.191C159.689 427.002 159.15 427.191 157.51 428.761C155.873 430.33 153.265 432.393 151.797 432.979C148.427 434.309 151.537 431.182 156.338 429.414C165.13 426.497 173.088 424.445 169.544 423.937C165.024 425.345 160.303 426.635 155.991 427.86C152.094 429.058 148.861 430.558 148.91 430.599C148.526 430.448 154.417 428.872 160.135 414.42C163.206 405.65 163.206 398.441 163.309 394.782C163.337 390.933 163.32 389.24 163.094 388.295C160.969 380.97 159.365 379.411 158.595 378.257C157.797 377.28 157.437 377.201 157.167 377.218C156.902 377.253 156.75 377.462 156.544 377.499C156.351 377.553 156.043 377.349 155.727 376.953C155.574 376.739 155.154 375.889 155.575 375.837C155.959 375.741 157.26 376.324 159.05 377.259C162.676 379.206 167.631 382.029 163.946 383.737C184.572 392.493 203.564 395.679 210.472 396.861C218.07 398.005 216.342 397.2 208.593 395.015C201.393 392.932 187.703 389.127 175.3 384.028C169.08 381.496 163.24 378.575 159.673 376.276C157.94 375.184 156.852 374.271 156.915 374.337C156.947 374.444 158.309 375.493 160.633 379.6C158.092 373.999 156.473 372.988 158.275 374.02C159.964 375.062 164.307 377.642 169.844 380.143C181.001 385.306 196.215 390.05 205.803 392.246C212.673 393.782 209.393 390.889 221.147 393.131C234.32 395.833 276.615 403.672 321.414 407.24C359.112 410.528 398.181 411.517 414.771 411.847C392.643 412.434 398.998 414.8 416.199 414.733C433.432 414.594 419.007 411.517 422.357 411.191C425.55 411.17 506.81 411.205 520.447 410.05C459.191 412.968 472.955 414.959 525.139 413.525C517.583 414.454 510.257 415.354 502.602 416.24C533.034 414.548 597.867 414.995 615.656 412.92C618.431 412.605 608.323 411.217 609.884 411.039C625.369 409.459 678.881 408.249 681.25 407.412C683.318 406.741 660.513 406.514 668.905 405.208C670.636 404.938 692.713 406.199 714.287 404.155C722.288 403.4 717.343 401.897 719.355 401.661C736.146 399.68 726.432 403.406 757.194 400.848C779.796 398.955 796.402 394.808 827.783 393.622C724.826 396.904 811.193 392.56 854.172 388.398C861.076 387.736 854.854 384.843 896.283 383.601C808.884 395.637 921.5 384.984 944.693 383.557C945.968 383.494 946.561 385.635 957.94 384.923C958.899 384.859 957.43 383.476 967.971 382.68C1068.26 375.338 1004.22 381.022 1023.39 381.289C1031.55 381.386 1080.28 376.602 1093.72 375.955C1096.75 375.805 1095.46 377.39 1107.16 376.787C1128.18 375.709 1146.75 373.371 1160.66 372.782C1162.34 372.738 1162.21 375.072 1188.74 373.589C1196.14 373.186 1204.35 372.159 1193.89 371.695C1158.76 370.091 1093.21 376.888 1054.21 376.847C1018.5 376.65 1130.69 370.557 1136.64 370.614C1138.79 370.518 1116.95 372.596 1139.18 371.944C1158.55 371.372 1193.1 366.084 1222.3 366.654C1224.35 366.665 1247.76 370.045 1246.64 370.28C1245.6 370.365 1210.19 371.513 1215.36 372.501C1215.99 372.585 1238.36 372.316 1241.44 373.092C1245.1 373.998 1254.77 383.088 1259.47 383.342C1272.03 383.978 1263.88 381.849 1271.95 382.067C1279.79 382.284 1297.25 383.215 1313.33 384.182C1332.29 385.289 1349.25 386.104 1350.46 384.47C1340.6 383.805 1331.16 383.207 1321.41 382.632C1375.44 384.643 1352.23 382.38 1359.9 382.12C1368.56 381.947 1365.89 384.53 1384.22 385.903C1387.35 385.612 1466.72 392.255 1467.03 392.225C1420.02 387.839 1438.7 387.245 1436.23 386.715C1428.04 385.653 1418.23 386.711 1408.36 385.915C1337.27 380.834 1409.24 382.534 1392.48 380.651C1386.82 380 1375.06 380.939 1372.84 380.734C1365.05 380.022 1364.91 377.87 1359.52 377.761C1347.74 377.567 1361.27 381.295 1360.43 381.414C1349.83 382.696 1307.39 378.585 1333.78 376.375C1323.74 375.17 1319.09 376.424 1313.6 376.868C1310.72 377.112 1307.58 377.126 1303.08 376.428C1284.17 373.602 1300.08 373.756 1313.71 374.13C1318.83 374.271 1323.55 374.415 1326.26 374.385C1362.98 374.179 1373.09 375.703 1426.66 379.622C1445.91 381.105 1470.72 382.371 1482.75 384.821C1484.23 385.116 1487 385.848 1492.67 387.539C1494 387.946 1495.42 388.393 1496.92 388.886C1498.59 389.427 1500.62 390.101 1502.62 390.821C1506.41 392.234 1511.6 394 1519.78 398.193C1524.18 400.578 1528.86 402.922 1537.06 409.639C1543.29 415.451 1559.42 427.734 1565.15 458.632C1570.03 489.981 1555.14 512.412 1548.74 520.321C1541.04 529.769 1536.28 533.062 1532.57 536.021C1525.22 541.484 1521.41 543.47 1520.31 544.335C1520.09 544.502 1520.12 544.531 1520.63 544.25C1520.9 544.093 1521.32 543.843 1521.93 543.45C1522.57 543.029 1523.2 542.63 1524.7 541.505C1526.11 540.436 1527.95 538.984 1530.48 536.58C1533.08 533.944 1538.97 528.587 1545.06 516.695C1547.39 512.139 1553.16 499.115 1552.89 482.565C1553.43 466.557 1544.3 445.946 1537.98 438.549C1525.24 422.143 1513.82 417.476 1507.1 414.386C1513.63 417.643 1521.85 416.326 1543.4 437.933C1554.13 448.498 1564.82 474.639 1563.73 492.442C1563.31 510.198 1559.88 517.554 1559.78 520.42C1551.72 539.312 1543.92 545.77 1539.03 550.791C1533.96 555.54 1530.13 558.213 1527.17 560.201C1521.09 564.2 1517.15 566.065 1513.57 567.725C1506.58 570.868 1501.36 572.523 1496.19 574.089C1498.04 573.057 1499.54 572.573 1506.08 568.194C1508.38 566.546 1514.83 562.13 1521.57 553.902C1526.24 548.221 1531.45 540.144 1534.93 529.64C1539.43 516.6 1539.95 500.412 1536.63 487.554C1528.96 460.952 1518.69 454.97 1515.31 450.973C1511.29 447.355 1510.16 446.798 1512.22 448.509C1513.19 449.38 1515.59 451.272 1519.67 455.554C1523.88 462.041 1534.84 465.557 1540.85 502.312C1545.26 540.23 1515.51 568.188 1511.18 570.34C1502.91 576.718 1495.89 579.602 1493.72 580.535C1490.57 581.847 1488.04 582.692 1485.84 583.356C1483.83 583.951 1482.83 584.186 1481.52 584.501C1480.28 584.79 1479.15 585.025 1478.09 585.229C1477.51 585.343 1477.19 585.393 1476.81 585.456C1476.44 585.517 1476.08 585.575 1475.72 585.629C1474.3 585.844 1472.97 586.017 1471.73 586.157C1470.75 586.252 1469.8 586.333 1468.86 586.406C1466.85 586.568 1465.44 586.617 1463.94 586.675C1463.19 586.704 1462.44 586.73 1461.68 586.756C1460.98 586.775 1460.4 586.777 1459.75 586.788C1449.44 586.927 1441.49 586.854 1434.27 587.568C1415.68 589.347 1421.95 592.597 1420.19 592.887C1417.59 593.33 1395.1 594.652 1388 595.66C1379.12 596.896 1383.8 598.022 1369.94 599.538C1335.33 603.286 1336.58 599.327 1332.75 599.331C1332.43 599.33 1332.12 599.329 1331.81 599.328C1291.52 599.106 1309.74 603.338 1300.63 604.332C1292.02 605.434 1173.01 609.451 1148.31 611.834C1158.33 610.603 1168.6 609.354 1178.63 608.107C1160.38 606.58 1141.31 611.357 1140.76 607.083C1137.32 614.188 1099.75 611.227 1088.47 611.889C1084.01 612.156 1084.44 613.321 1078.9 613.611C1057.21 614.763 1008.37 615.864 996.669 616.942C946.003 621.623 1076 620.529 1086.28 620.293C1065.79 621.145 950.082 627.483 1003.43 628.611C1011.66 628.786 1026.15 625.076 1030.75 624.761C1062.01 622.645 1037.51 626.46 1039.97 626.621C1044.19 626.872 1064.62 623.315 1070.1 623.398C1071.92 623.421 1060.36 626.445 1090.2 625.206C1075.62 628.309 991.654 629.835 980.698 630.844C976.794 631.207 1001.54 635.423 929.649 633.285C930.5 633.735 931.352 634.185 932.204 634.635C892.304 636.459 852.418 638.273 812.669 640.124C816.906 638.831 839.138 635.667 811.074 637.307C794.8 638.26 806.95 640.241 805.466 640.375C796.363 641.24 688.998 645.276 600.713 650.048C549.358 652.82 504.227 655.942 486.353 657.406C469.81 658.651 423.857 664.613 420.466 665.042C399.517 666.882 326.56 674.112 311.467 676.677C302.13 678.107 311.324 678.973 302.925 680C295.101 680.956 302.924 677.88 300.594 678.108C298.024 678.355 293.16 678.973 286.52 679.863C275.674 681.32 260.071 683.561 243.054 686.314C234.593 687.687 225.698 689.204 217.668 690.765C213.737 691.528 209.786 692.368 207.619 692.918C207.105 693.048 206.722 693.155 206.667 693.179C206.642 693.19 206.858 693.161 208.192 692.739C208.925 692.501 209.768 692.234 211.646 691.511C213.331 690.825 216.068 689.848 221.705 686.773C223.44 685.81 225.436 684.636 227.791 683.079C230.351 681.331 232.12 680.248 237.225 675.928C241.776 671.956 247.391 666.562 253.502 657.715C261.662 646.122 271.85 624.022 270.099 597.605C269.1 570.884 253.173 546.615 244.999 538.526C236.982 529.873 229.995 525.067 224.473 521.654C215.28 516.21 211.236 514.945 207.044 513.37C221.656 518.364 227.355 519.534 234.265 520.407C241.447 521.306 251.836 521.647 258.107 522.076C252.828 521.881 241.319 521.973 233.79 521.487C226.725 521.127 219.471 519.942 206.133 515.963C208.44 516.785 211.189 517.851 214.612 519.474C216.323 520.288 218.205 521.246 220.291 522.423C222.957 523.925 226.576 526.157 230.413 529.051C234.291 531.979 238.677 535.724 243.341 540.863C247.496 545.253 256.368 556.844 261.173 569.785C272.821 597.282 266 632.32 255.699 648.794C238.22 676.666 229.314 677.622 224.926 681.518C219.548 684.869 217.293 685.826 215.134 686.856C212.945 687.855 211.757 688.309 210.715 688.706C209.695 689.09 208.832 689.383 208.339 689.538C207.235 689.889 206.617 690.041 206.297 690.105C205.61 690.241 205.813 690.107 206.143 689.962C206.521 689.802 207.092 689.602 207.809 689.376C210.625 688.485 214.387 687.504 217.481 686.696C223.752 685.07 227.995 683.96 227.469 683.734C227.121 683.473 202.883 686.468 205.005 687.049C204.983 686.939 205.046 686.838 205.387 686.676C205.705 686.516 206.352 686.299 208.023 685.679C209.023 685.299 209.996 684.945 212.197 683.982C214.671 682.794 216.878 682.134 224.535 677.173C227.551 675.011 234.237 670.978 243.497 659.91C251.51 653.668 275.405 606.046 256.068 567.536C252.236 558.771 247.319 551.527 242.87 546.208C239.583 542.268 236.363 539.081 233.365 536.436C227.413 531.197 222.05 527.847 218.279 525.719C212.411 522.439 208.174 520.795 204.858 519.595C210.095 521.051 216.298 522.168 220.844 522.675C225.491 523.219 228.665 523.294 231.542 524.083C231.981 524.202 231.206 524.879 232.119 525.829C233.238 526.748 234.946 528.105 245.997 528.802C253.234 529.371 278.203 526.876 305.559 529.081C316.79 528.593 341.47 528.332 371.879 528.525C440.576 527.265 557.582 529.735 565.598 527.888C566.222 527.725 537.092 526.135 556.653 525.155C575.852 524.21 568.127 526.919 575.021 528.833C577.224 529.513 580.99 530.09 589.285 530.354C593.491 530.58 677.002 530.893 679.709 530.51C704.967 527.449 632.193 525.451 633.113 525.046C635.818 524.139 696.187 524.116 698.847 524.345C701.358 524.603 651.457 528.557 711.083 527.382C704.148 526.809 697.777 526.238 690.705 525.659C718.465 524.868 721.548 527.895 728.098 528.128C749.308 528.857 771.947 524.42 805.888 530.246C814.744 531.791 799.964 533.385 801.035 533.616C811.797 535.691 825.466 530.35 841.622 534.449C842.911 534.751 805.249 537.024 870.949 537.284C866.491 536.882 861.887 536.478 857.357 536.074C866.649 535.258 933.2 534.943 942.118 535.154C968.264 535.803 945.481 538.536 971.746 538.249C954.896 534.429 1034.8 534.022 1030.21 537.28C1041.39 533.183 1109.25 536.33 1141.16 536.337C1161.22 536.357 1202.44 534.41 1208.63 534.585C1216.37 534.806 1214.17 537.624 1228.2 538.176C1231.92 538.335 1274.16 536.061 1310.61 538.592C1317.38 539.086 1332.93 543.669 1319.46 545.007C1297.12 547.3 1253.97 543.766 1254.72 546.566C1255.13 549.589 1312.99 547.354 1328.48 547.531C1399.58 548.387 1358.84 552.116 1360.36 553.087C1365.66 555.396 1403.84 554.556 1405.57 554.664C1412.26 555.441 1385.09 557.97 1384.63 559.387C1384.26 560.714 1402.98 562.368 1410.3 563.461C1413.91 563.918 1415.52 564.307 1412.87 564.568C1412.11 564.643 1411.26 564.708 1410.34 564.763C1397.05 565.636 1366.5 563.693 1364.3 563.842C1335.86 566.083 1374.94 569.837 1385.8 571.708C1389.19 572.295 1375.76 573.63 1378.59 573.765C1417.53 575.692 1391.11 568.391 1410.42 567.541C1411.64 567.485 1413.01 567.45 1414.55 567.44C1435.06 567.357 1417.37 569.77 1410.51 570.767C1409.22 570.978 1408.39 571.117 1408.55 571.141C1408.71 571.161 1409.43 571.166 1410.53 571.16C1418 571.069 1440.28 570.841 1444.53 571.669C1445.65 571.892 1428.46 573.485 1410.66 575.661C1391.8 578.023 1371.58 580.472 1373.39 581.747C1385.79 581.246 1398.94 580.689 1410.79 580.06C1422.99 579.441 1434.62 578.922 1446.85 578.499C1448.68 581.391 1418.8 580.187 1410.8 580.424C1410.16 580.437 1409.67 580.46 1409.39 580.496C1406.61 580.846 1408.17 581.235 1410.83 581.642C1415.29 582.216 1422.32 582.86 1421.81 583.48C1421.57 583.843 1413.99 584.915 1410.96 585.878C1409.75 586.31 1409.42 586.716 1410.99 587.016C1412.33 587.238 1414.91 587.394 1419.1 587.468C1426.57 587.627 1442.37 584.875 1470.07 587.141C1374.1 591.309 1440.82 592.214 1443.54 593.256C1446.13 594.356 1400.88 597.768 1456.09 596.468C1458.55 602.74 1454.86 598.419 1439.18 599.772C1421.92 601.356 1456.57 602.339 1411.45 602.628C1407.17 602.667 1401.26 602.706 1394.56 602.705C1395.43 603.654 1403.45 604.104 1411.5 604.281C1429.65 604.545 1455.58 604.197 1457.67 604.367C1460.28 604.553 1447.64 606.119 1452.17 606.565C1504.97 612.063 1468.79 609.583 1483.9 613.231C1485.39 613.412 1534.83 615.926 1497.14 615.596C1456.14 615.545 1429.26 615.159 1411.85 616.401C1406.41 616.827 1401.47 617.449 1397.31 618.428C1393.53 619.399 1390.65 620.726 1388.32 622.572C1395.75 623.012 1404.6 623.17 1412.05 623.147C1456.86 622.772 1502.78 619.318 1515.94 619.779C1539.54 620.502 1514.91 621.4 1517.91 622.031C1518.91 622.183 1539.17 622.922 1539.47 623.13C1553.7 629.891 1449.04 620.402 1415.97 623.54C1424.85 624.312 1433.71 625.135 1442.61 626.014C1432.44 626.206 1422.47 626.469 1412.16 626.805C1410.4 626.863 1408.59 626.92 1406.72 626.976C1408.73 626.995 1410.53 627.012 1412.16 627.028C1446.43 627.418 1429.56 627.656 1412.25 629.883C1405.94 630.769 1397.91 631.961 1394.41 633.553C1390.8 634.879 1429.47 631.849 1385.97 636.283C1401.63 636.366 1407.91 636.661 1412.45 636.714C1417.55 636.75 1422.01 636.483 1436.17 635.44C1435.92 636.306 1426.1 637.372 1412.5 638.619C1391.31 640.582 1360.61 642.245 1345.29 643.135C1397.95 643.839 1403.1 641.353 1412.54 639.931C1419.77 638.913 1429.64 638.092 1461.64 639.621C1475.93 636.794 1439.21 637.607 1442.16 637.181C1452.88 635.406 1478.15 637.583 1508.61 632.695C1513.6 631.925 1492.67 628.368 1523.74 629.524C1527.13 629.622 1546.81 633.116 1546.44 633.316C1543.74 635.02 1524.21 633.352 1523.5 634.169C1522.66 634.846 1544.32 635.438 1544.48 635.716C1544.93 638.112 1526.4 635.685 1529.03 636.587C1534.97 638.427 1611.89 647.948 1510.91 641.233C1595.15 642.598 1521.95 638.184 1488.89 639.186C1480.35 639.362 1478.22 640.772 1466.32 641.287C1450.84 641.96 1432.82 641.615 1424.69 642.084C1416.88 642.534 1455.69 644.344 1412.7 645.26C1408.13 645.377 1401.28 645.498 1394.01 645.552C1399.24 645.959 1406.55 646.136 1412.72 646.19C1449.46 646.289 1499.25 644.018 1528.68 647.507C1598.27 656.041 1479.71 650.786 1466.93 652.614C1463.62 652.744 1474.72 654.673 1472.5 654.795C1470.01 654.863 1435.87 654.661 1413 655.72C1403.68 656.122 1395.04 656.563 1393.36 657.081C1390.98 657.697 1393.46 657.804 1397.54 657.751C1402.15 657.686 1408.45 657.448 1413.05 657.407C1417.23 657.364 1420.45 657.483 1421.09 657.963C1421.38 658.188 1418.18 658.535 1413.1 658.971C1393.37 660.702 1347.67 662.787 1383.91 662.771C1388.25 662.756 1392.9 662.64 1397.57 662.459C1402.81 662.265 1408.18 661.999 1413.18 661.703C1442.3 659.945 1474.5 658.406 1481.48 662.081C1458.83 662.135 1436.22 662.679 1413.23 663.553C1390.26 664.413 1366.77 664.977 1344.2 665.479C1366.8 666.85 1390.31 668.159 1413.4 669.17C1415.83 669.277 1418.23 669.388 1420.59 669.503C1418.22 669.593 1415.82 669.681 1413.42 669.768C1363.95 671.43 1321.13 669.959 1274.05 672.879C1392.35 677.755 1235.75 677.983 1233.87 678.595C1233.06 679.042 1280.14 683.556 1287.5 684.359C1246.09 686.635 1120.67 687.919 1194.12 693.614C1180.58 692.33 1148.47 695.734 1148.89 695.981C1153.09 698.617 1223.42 696.645 1211.87 699.056C1198.81 701.87 1179.94 698.209 1159.52 698.565C1054.54 700.332 1083.33 714.016 978.05 711.764C980.143 712.255 982.236 712.746 984.329 713.237C869.978 712.286 755.568 711.088 640.857 709.157C625.293 710.457 599.816 711.46 571.622 711.955C519.307 712.849 458.497 712.92 422.376 713.915C415.443 714.06 391.011 713.719 371.879 712.955C359.014 712.454 348.581 712.049 346.72 711.9C338.962 711.174 382.145 710.774 362.614 709.434C358.686 708.938 262.162 709.258 267.837 711.419C279.88 711.671 313.855 709.99 319.346 710.506C330.07 711.501 314.919 712.197 285.899 712.818C270.92 713.007 253.497 713.711 227.497 712.227C201.149 711.258 164.911 702.218 143.577 694.149C138.683 692.314 134.317 690.945 124.408 685.034C118.583 681.401 111.335 676.336 103.177 667.33C94.1167 658.096 78.8935 633.076 78.7379 606.283C77.7554 580.244 88.8517 558.351 96.3 548.228C102.467 539.588 108.118 534.264 112.785 530.275C113.959 529.283 115.08 528.383 116.152 527.555C116.962 526.929 117.681 526.392 118.409 525.862C119.853 524.812 121.202 523.889 122.469 523.059C125.005 521.402 127.217 520.111 129.203 519.02C135.506 515.598 139.478 514.073 142.179 512.999C145.245 511.818 147.07 511.211 149.013 510.575C156.109 508.32 159.875 507.474 163.781 506.535C171.165 504.822 177.005 503.714 182.655 502.669C193.799 500.635 203.817 499.056 213.236 497.616C232.102 494.753 248.425 492.538 261.306 490.765C275.868 488.757 286.074 487.249 288.452 486.676C281.625 486.815 274.886 486.956 268.199 487.085C286.954 484.94 306.49 482.693 326.091 480.696ZM878.325 527.995C889.745 525.685 918.265 527.535 935.168 526.911C958.465 526.044 998.109 517.04 981.035 526.092C946.797 526.761 912.603 527.395 878.325 527.995ZM376.942 522.058C395.551 523.043 386.398 526.912 371.879 526.79C369.039 526.765 366.079 526.614 363.156 526.295C361.27 526.078 347.268 521.071 371.879 521.831C373.46 521.883 375.153 521.958 376.942 522.058ZM618.968 525.137C617.978 525.196 598.347 524.801 597.626 524.706C579.995 522.434 639.487 523.638 618.968 525.137ZM890.822 632.445C865.514 633.695 884.066 637.55 899.688 635.017C900.672 634.856 892.48 632.367 890.822 632.445ZM872.812 633.057C853.002 629.734 813.841 639.717 845.199 637.583C848.238 637.373 873.736 633.22 872.812 633.057ZM458.45 522.856C455.885 524.399 430.244 524.002 420.364 523.923C420.209 522.467 447.947 523.014 458.45 522.856ZM490.565 655.085C491.375 653.598 411.176 660.336 406.179 662.732C418.481 660.606 489.648 656.136 490.565 655.085ZM698.929 641.381C696.735 641.259 668.608 642.904 669.405 643.97C683.301 644.741 708.291 641.927 698.929 641.381ZM1118.6 623.796C1120.13 623.446 1098.44 617.454 1149.33 619.742C1156.83 620.073 1130.23 623.113 1132.93 623.239C1138.47 623.477 1142.92 623.502 1146.43 623.382C1122.81 625.045 1098.35 626.386 1095.95 626.067C1084.75 624.557 1117.86 623.949 1118.6 623.796ZM1340.5 606.953C1344.95 605.531 1376.59 604.057 1383.43 604.049C1384.6 604.056 1379.73 607.394 1393.59 606.213C1404.94 605.231 1387.88 603.373 1409.94 602.288C1432.26 601.138 1402.38 605.53 1404.58 605.513C1407.24 605.573 1441.85 601.532 1441.44 603.282C1440.31 604.788 1402.83 606.734 1393.75 607.597C1382.34 608.745 1396.39 609.991 1376.97 610.837C1364.68 611.366 1371.19 607.052 1368.56 607.032C1366.61 607.019 1323.96 612.019 1340.57 606.961C1340.55 606.958 1340.52 606.955 1340.5 606.953ZM1152.8 622.919C1151.03 623.131 1148.96 623.296 1146.43 623.382C1148.57 623.232 1150.7 623.073 1152.8 622.919ZM812.019 529.421C800.064 528.172 835.679 526.812 848.891 528.423C849.181 529.688 813.831 529.619 812.019 529.421ZM1174.57 618.749C1209.73 618.031 1183.96 620.63 1152.8 622.919C1162.57 621.738 1162.81 618.979 1174.57 618.749ZM205.005 687.049C205.09 687.323 205.586 687.661 205.778 688.375C205.109 688.128 205.231 687.779 205.224 687.531C205.251 687.275 205.056 687.157 205.005 687.049ZM274.016 677.14C300.573 671.231 246.016 678.823 246.859 680.47C247.011 681.02 272.905 677.349 274.016 677.14ZM923.29 631.345C920.728 631.228 960.163 622.822 902.716 630.263C933.521 629.812 901.096 631.872 901.589 632.447C902.951 634.104 954.518 630.361 966.025 630.628C974.86 627.204 931.782 631.727 923.356 631.342C923.334 631.343 923.312 631.344 923.29 631.345ZM1293.9 359.525C1297.69 358.713 1305.56 358.612 1314.28 358.877C1323.18 359.147 1332.41 359.698 1339.95 360.089C1335.44 360.991 1325.62 360.771 1314.23 360.314C1307.32 360.034 1300.08 359.71 1293.9 359.525ZM300.307 101.792C312.235 101.983 322.259 102.262 331.988 102.634C400.899 104.915 404.537 110.096 331.867 105.891C328.856 105.706 325.762 105.509 322.594 105.3C320.808 105.16 293.924 102.322 300.307 101.792ZM1184.77 120.218C1194.58 123.988 1161.45 122.505 1140.12 120.265C1135.3 119.744 1117.23 115.732 1137.99 116.014C1137.18 119.821 1168.73 122.784 1184.77 120.218ZM1194.32 615.762C1204.26 613.162 1236.13 613.081 1252.63 612.51C1242.7 614.802 1208.9 615.731 1194.32 615.762ZM635.901 111.406C646.728 111.719 654.024 108.996 652.164 108.754C643.841 107.644 623.541 109.747 635.901 111.406ZM1092.82 620.082C1091.33 618.884 1132.9 615.82 1135.89 618.816C1127.04 618.996 1093.89 620.836 1092.82 620.082ZM1323.72 361.466C1326.59 361.865 1321.75 362.041 1314.16 362.039C1304.65 362.032 1290.5 361.898 1284.58 361.444C1284.99 360.475 1302.92 360.444 1314.2 360.906C1318.87 361.085 1322.47 361.296 1323.72 361.466ZM810.517 111.692C820.228 112.014 844.588 112.324 847.267 111.235C850.649 109.864 814.936 109.995 810.517 111.692ZM1134.19 163.834C1135.39 164.335 1097.97 167.918 1081.28 167.005C1049.65 165.242 1132.85 163.456 1134.19 163.834ZM533.555 112.032C503.16 109.095 536.93 111.985 535.602 109.195C515.111 108.921 464.097 108.148 499.218 111.302C505.867 111.91 524.163 111.765 533.555 112.032ZM561.673 113.214C564.914 112.344 587.01 109.689 567.943 109.738C559.145 109.764 545.081 112.788 561.673 113.214ZM901.984 165.35C874.581 162.97 1000.13 163.919 1003.75 164.379C1005.67 164.603 1006.92 164.815 1007.63 164.996C1012.24 164.209 1035.9 164.041 1038.67 166.008C1031.54 165.851 1012.17 166.049 1009.93 165.835C1008.96 165.743 1008.23 165.657 1007.73 165.569C999.292 167.27 907.286 165.779 901.984 165.35ZM693.914 163.827C725.079 160.024 730.872 166.153 728.117 166.366C693.896 169.08 716.2 164.412 715.132 164.205C712.724 163.864 688.63 166.112 694.014 163.826C693.98 163.827 693.947 163.827 693.914 163.827ZM859.342 164.498C860.594 164.412 886.958 164.499 888.078 164.594C909.652 166.579 835.147 166.342 859.342 164.498ZM1556.68 450.251C1540.93 423.84 1532.14 422.287 1526.98 417.82C1521.73 414.388 1518.8 412.929 1516.6 411.757C1512.26 409.527 1510.66 408.793 1509.65 408.213C1517.59 411.363 1523.9 415.716 1523.53 415.342C1523.47 415.201 1517.07 410.766 1509.84 407.759C1511.18 408.137 1513.37 408.755 1518.58 411.195C1521.36 412.556 1524.61 414.091 1530.53 418.081C1536.21 422.751 1545.77 426.571 1559.26 450.723C1565.57 462.422 1570.31 482.332 1568.03 499.355C1566 516.637 1559.83 528.479 1555.06 536.112C1545.11 551.103 1538.79 555.224 1534.11 559.247C1524.88 566.341 1520.54 568.302 1516.5 570.432C1515.45 570.954 1513.11 571.434 1514.87 569.868C1515.86 568.999 1517.46 567.963 1522.55 564.677C1525.33 562.776 1528.48 561.066 1536.13 554.583C1539.94 550.989 1545.36 547.107 1554.02 533.517C1558.24 526.415 1563.74 515.944 1565.83 499.415C1568.17 483.233 1563.64 462.583 1556.68 450.251ZM576.716 112.726C580.967 113.219 692.831 115.569 686.109 112.097C676.53 112.461 549.719 109.806 576.716 112.726ZM1413.72 135.052C1393.98 134.532 1415.33 131.818 1426.39 133.344C1430.43 133.908 1418.7 135.178 1413.72 135.052ZM1036.64 619.553C1016.24 622.183 1020.22 616.063 1038.07 617.355C1038.77 617.405 1037.44 619.45 1036.64 619.553ZM1258.69 127.296C1325.68 128.633 1309.23 138.496 1222.5 130.047C1225.29 129.76 1228.05 129.469 1230.78 129.174C1215.27 128.02 1204.87 127.173 1197.34 126.549C1177.78 124.965 1183.58 125.24 1197.37 126.079C1212.82 127.053 1237.19 128.534 1248.59 128.904C1257.88 129.202 1250.09 127.062 1258.62 127.281C1258.64 127.286 1258.67 127.291 1258.69 127.296ZM1575.99 210.133C1579.04 216.167 1582.25 223.495 1584.59 233.602C1589.3 260.917 1585.55 271.923 1585.54 270.154C1584.93 268.308 1585.92 254.33 1581.06 234.458C1569.93 198.411 1557.65 192.035 1548.15 181.525C1538.31 172.368 1529.29 165.857 1520.5 159.952C1479.48 136.589 1463.08 142.426 1450.51 139.99C1437.89 139.18 1428.75 138.983 1422.05 138.948C1439.82 138.04 1461.76 137.621 1481.1 140.877C1485.45 141.587 1488.86 142.345 1489.55 142.346C1490.34 142.39 1488.18 141.539 1483.77 140.334C1474.47 137.705 1458.89 135.401 1441.98 134.001C1452.56 134.445 1462.47 134.85 1475.68 136.929C1487.99 138.703 1508.46 144.538 1523.74 154.978C1544.75 169.182 1550.39 176.587 1548.3 175.151C1546.45 174.164 1539.36 169.044 1541.22 170.688C1543.98 173.11 1550.16 177.867 1557.32 185.117C1564.31 191.898 1572.98 203.795 1575.99 210.133ZM1345.45 133.323C1341.84 133.428 1313.93 130.856 1303.72 130.611C1317.8 128.85 1370.34 132.759 1345.45 133.323ZM475.428 166.791C477.705 164.835 483.696 163.377 506.192 163.981C499.533 164.994 484.616 165.913 475.428 166.791ZM899.959 538.294C915.361 538.482 946.284 539.283 936.812 537.218C935.834 537.045 899.943 537.15 899.959 538.294ZM902.047 116.943C905.399 117.159 991.125 118.769 961.577 116.119C952.657 115.251 874.571 114.446 902.047 116.943ZM460.381 112.808C467.605 112.945 496.23 112.942 496.98 112.485C498.837 110.927 463.597 111.348 460.381 112.808ZM978.065 540.456C980.103 540.666 1027.42 540.351 1022.21 539.401C1012.36 537.617 971.069 539.753 978.065 540.456ZM1465.32 381.719C1460.75 381.105 1454.71 378.204 1453.36 378.017C1448.7 376.695 1372.18 371.744 1401.56 371.222C1404.26 371.277 1429.09 372.787 1459.59 376.997C1467.54 378.138 1475.28 379.352 1484.86 381.361C1494.93 383.978 1501.9 383.781 1524.76 395.019C1527.92 396.757 1530.71 398.303 1535.77 401.931C1540.65 405.634 1544.61 408.443 1552.16 417.296C1555.53 421.378 1558.88 426.199 1561.82 431.774C1565.41 438.527 1568.41 446.603 1570.03 455.016C1573.65 471.73 1570.24 491.42 1565.54 502.272C1555.21 525.584 1546.74 530.553 1541.63 535.782C1536.19 540.51 1532.76 542.751 1530.07 544.565C1524.86 547.955 1522.13 549.431 1523.22 548.766C1524.16 547.951 1525.29 548.117 1533.92 540.151C1535.96 538.149 1540.55 533.587 1545.23 526.279C1547.61 522.539 1550.2 517.86 1552.51 511.819C1555.65 503.697 1558.49 491.519 1557.53 478.1C1556.74 464.669 1551.76 450.641 1545.16 440.548C1540.35 433.051 1535.36 427.805 1530.7 423.687C1521.33 415.581 1514.11 412.327 1508.88 410.082C1511.71 411.272 1514.86 412.729 1517.7 414.216C1522.67 417.635 1514.9 413.63 1508.4 411.229C1513.14 413.262 1519.52 416.181 1527.83 422.919C1531.94 426.308 1536.52 430.753 1540.94 436.697C1544.69 441.312 1552.4 454.938 1554.63 466.882C1560.51 492.599 1550.28 515.067 1547.02 520.602C1542.39 529.038 1538.17 533.746 1535 537.13C1525.44 546.528 1523.97 546.305 1522.74 547.353C1521.05 548.374 1523.46 546.981 1527.56 544.412C1532 540.975 1537.77 539.835 1552.86 521.689C1559.54 513.108 1574 490.204 1569.24 458.481C1563.71 427.122 1547.33 413.647 1540.39 407.224C1536.48 403.867 1532.44 401.072 1529.49 399.232C1526.88 397.586 1524.43 396.215 1522.11 395.019C1517.03 392.434 1514.59 391.45 1511.39 390.161C1508.18 388.904 1505.96 388.136 1503.8 387.417C1501.67 386.71 1499.45 386.039 1497.69 385.533C1494.45 384.595 1491.48 383.841 1488.84 383.231C1486.62 382.713 1484.74 382.326 1483.26 382.059C1480.53 381.612 1478.25 383.467 1465.36 381.712C1465.35 381.714 1465.34 381.716 1465.32 381.719ZM592.934 164.07C595.793 162.209 681.383 160.468 680.217 162.711C651.344 163.159 621.747 163.618 592.934 164.07ZM549.501 164.026C531.278 162.83 573.858 162.147 586.504 162.644C586.491 163.884 552.364 164.201 549.501 164.026ZM621.354 121.27C629.882 120.878 603.696 118.007 609.555 117.525C613.294 117.227 632.371 118.365 638.528 117.564C640.256 117.309 620.715 114.65 615.123 114.72C607.139 114.81 614.915 116.854 606.133 116.805C577.168 116.64 551.357 115.013 524.358 114.774C521.939 114.756 540.863 116.352 519.962 116.12C516.706 116.085 497.275 113.8 472.475 113.773C423.728 118.773 386.617 113.936 331.622 112.507C323.655 112.281 316.031 112.166 307.465 112.16C308.887 112.473 319.098 113.269 331.56 114.173C346.273 115.297 363.659 116.328 365.331 116.408C423.173 119.238 527.95 120.472 589.477 120.907C605.228 121.03 597.593 119.601 604.401 119.6C609.781 119.601 603.421 122.097 621.354 121.27ZM891.706 539.673C899.121 542.233 925.01 540.701 941.516 540.866C935.738 538.567 907.854 540.287 891.706 539.673ZM188.869 177.153C186.099 177.957 180.428 179.5 176.446 180.957C172.348 182.427 170.015 183.653 169.936 184.119C169.756 184.793 172.3 183.805 177.234 182.016C182 180.253 188.479 178.146 188.869 177.153ZM1041.42 376.01C1040.64 376.118 1020.53 377.155 1019.75 377.128C1001.65 376.145 1061.98 373.054 1041.42 376.01ZM565.546 405.647C550.573 406.638 535.787 408.001 530.62 406.131C540.259 406.114 567.133 404.154 565.546 405.647ZM230.643 428.495C227.339 425.821 270.776 425.899 279.284 426.112C276.007 427.256 232.622 430.167 230.643 428.495ZM472.154 158.347C499.769 158.368 494.315 154.311 511.763 156.064C514.666 156.359 523.996 164.811 493.43 161.791C487.937 161.246 509.349 159.119 472.154 158.347ZM1208.35 129.088C1206.01 129.531 1202.05 129.618 1197.15 129.483C1187.36 129.213 1173.37 128.133 1163.34 127.516C1165.84 126.652 1183.99 127.569 1197.22 128.42C1201.75 128.706 1205.68 128.953 1208.35 129.088ZM1063.5 542.542C1076.61 545.067 1136.76 543.109 1121.88 541.467C1119.85 541.261 1071.99 542.641 1063.5 542.542ZM1265.17 603.985C1289.89 600.644 1238.32 602.863 1222 605.59C1229.33 605.107 1263.52 604.219 1265.17 603.985ZM168.586 392.959C168.827 393.347 170.512 408.355 165.555 419.429C160.878 430.402 156.631 433.166 156.599 433.559C155.445 435.045 155.2 435.472 155.277 435.656C155.371 435.807 155.814 435.647 156.758 434.915C158.333 433.568 163.375 429.496 167.573 418.359C171.991 407.197 170.463 392.804 168.688 388.138C167.912 385.665 167.335 384.622 167.324 385.115C167.274 385.677 167.909 387.539 168.586 392.959ZM721.019 400.096C711.762 402.377 649.667 404.92 635.899 404.003C648.918 400.981 732.574 397.346 721.019 400.096ZM356.922 159.823C377.269 159.752 395.68 160.216 414.384 160.865C410.112 162.269 359.483 160.875 356.922 159.823ZM176.017 431.645C177.177 431.492 178.272 431.5 179.386 431.369C178.218 431.465 177.133 431.546 176.017 431.645ZM227.867 113.277C244.631 114.058 241.521 111.519 240.326 111.414C227.527 110.37 208.217 112.446 227.867 113.277ZM910.693 543.464C916.462 545.752 944.434 544.06 960.567 544.627C955.865 542.828 923.693 543.265 910.693 543.464ZM1507.37 376.661C1491.12 380.6 1506.67 379.02 1536.9 356.462C1551.74 345.011 1569.26 322.492 1575.61 298.325C1582.33 274.149 1580.57 252.912 1576.46 235.577C1569.73 211.861 1562.96 206.078 1558.5 199.46C1553.87 193.53 1550.53 190.064 1548.16 187.5C1548.05 187.111 1550.43 188.896 1555.22 193.879C1557.64 196.454 1560.66 199.773 1564.57 205.299C1568.36 211.135 1573.6 217.681 1578.37 235.111C1586.21 260.344 1584.46 307.422 1557.67 339.411C1532.08 370.002 1508.9 375.318 1507.37 376.661ZM1187.42 604.545C1185.59 602.862 1149.86 606.687 1157.52 607.168C1162.46 607.48 1188.4 605.609 1187.42 604.545ZM1470.76 145.855C1456.3 144.305 1436.66 142.126 1443.97 141.3C1448.75 140.834 1455.54 141.752 1461.48 143.047C1467.33 144.309 1472.61 146.05 1470.76 145.855ZM743.553 123.66C747.054 123.95 794.202 122.482 774.744 120.518C761.24 119.154 759.074 121.713 755.896 121.697C752.333 121.656 676.745 118.002 743.553 123.66ZM1004.46 417.566C1022.35 416.71 1044.03 417.228 1062.82 416.843C1055.21 418.116 1012.05 418.984 1004.46 417.566ZM1326.25 596.517C1321.76 596.288 1203.39 602.299 1270.7 600.856C1274.74 600.832 1339.62 597.907 1326.25 596.517ZM472.154 158.347C468.814 158.343 464.46 158.279 459.754 158.125C464.426 158.173 468.789 158.272 472.154 158.347ZM180.301 175.134C182.155 173.869 177.646 174.797 173.128 176.426C168.476 178.073 165.117 180.101 164.748 180.791C164.989 181.615 166.111 181.016 170.178 179.209C173.969 177.496 180.108 175.279 180.301 175.134ZM1064.22 415.011C1075.1 414.082 1094.71 414.459 1108.25 414.003C1105.98 415.304 1068.96 416.184 1064.22 415.011ZM312.044 420.053C332.956 420.539 358.892 420.145 359.349 418.669C359.794 418.897 360.824 419.138 362.51 419.379C364.173 419.614 386.927 418.878 396.803 419.365C455.071 421.749 171.088 423.011 335.27 417.153C327.501 418.104 319.837 419.067 312.044 420.053ZM805.237 397.878C817.376 398.837 850.916 394.25 842.124 394.155C835.992 394.099 793.077 396.912 805.237 397.878ZM349.589 415.596C352.844 416.161 384.399 415.862 385.259 414.859C367.259 413.621 334.241 413.385 349.589 415.596ZM897.955 393.556C905.528 393.307 915.004 389.765 914.11 389.7C906.308 389.17 885.145 392.823 897.955 393.556ZM414.285 150.794C402.529 150.012 367.288 152.158 358.878 154.05C357.473 153.694 353.714 153.234 347.257 152.674C346.994 152.652 346.727 152.629 346.456 152.607C346.477 152.607 346.499 152.607 346.52 152.607C341.845 152.075 269.722 151.924 226.929 158.648C205.303 161.698 191.814 165.53 191.813 165.939C192.297 166.564 204.755 162.483 248.411 158.818C254.057 158.438 246.032 157.251 268.785 155.791C270.278 155.71 271.071 157.048 275.788 156.818C284.443 156.188 326.268 155.363 347.252 155.184C351.631 155.103 355.211 154.972 357.355 154.781C357.462 155.041 358.268 155.288 360.008 155.515C375.447 157.562 422.962 151.411 414.285 150.794ZM288.498 411.333C294.71 412.571 314.005 413.743 316.315 412.639C306.476 411.439 274.517 408.632 288.498 411.333ZM1322.27 591.691C1308.39 591.569 1274.14 595.422 1284.59 595.835C1290.91 596.141 1338.12 591.881 1322.27 591.691ZM489.644 415.78C414.023 415.808 471.547 416.286 460.002 418.324C469.802 417.529 479.899 416.673 489.644 415.78ZM773.404 153.498C761.041 153.146 775.524 149.497 789.094 151.368C793.364 151.962 780.247 153.689 773.404 153.498ZM1330.94 152.404C1320.42 149.147 1371.85 151.436 1351.78 153.441C1350.83 153.504 1331.68 152.529 1330.94 152.404ZM941.405 150.406C933.063 152.587 927.578 152.856 903.936 152.403C938.913 151.681 906.559 149.874 941.405 150.406ZM359.118 418.437C359.255 418.524 359.371 418.588 359.349 418.669C359.196 418.59 359.129 418.515 359.118 418.437ZM970.961 388.114C980.779 389.301 1008.18 387.465 999.909 386.136C999.156 386.006 974.78 386.507 970.961 388.114ZM358.878 154.05C360.186 154.378 359.513 154.589 357.355 154.781C357.255 154.537 357.81 154.307 358.878 154.05ZM824.94 399.547C825.811 398.122 784.501 400.449 782.873 400.716C759.385 404.695 807.882 400.823 824.94 399.547ZM1047.23 603.357C1045.11 603.589 1058.98 606.525 1067.43 604.782C1073.94 603.432 1055.19 602.479 1047.23 603.357ZM1021.61 149.363C1034.67 149.348 1053.2 149.335 1056.56 151.005C1047.81 150.75 1021.32 150.589 1021.61 149.363ZM1310.82 149.961C1295.33 151.813 1260.02 151.599 1237.47 151.18C1237.07 148.579 1296.3 150.45 1310.82 149.961ZM449.843 151.626C449.031 151.528 415.672 150.881 420.35 152.594C426.753 155.117 459.186 152.528 449.843 151.626ZM1111.23 602.458C1125.94 600.612 1091.86 598.458 1076.46 601.95C1068.53 603.746 1108.79 602.774 1111.23 602.458ZM1056.61 385.359C1076.15 383.278 1027.51 384.178 1020.87 386.428C1029.91 386.028 1049.59 386.092 1056.61 385.359ZM401.625 421.689C460.876 427.109 428.574 417.458 418.114 418.327C416.569 418.461 400.161 421.565 401.625 421.689ZM1214.99 552.623C1223.57 551.859 1191.55 549.375 1187.26 551.117C1184.77 552.211 1209.4 553.115 1214.99 552.623ZM657.4 413.442C654.839 413.492 652.301 413.544 649.792 413.594C651.672 413.483 654.149 413.42 657.4 413.442ZM1235.92 386.065C1191.73 379.166 1196.41 385.027 1192.63 385.022C1184.42 385.126 1165.15 383.672 1149.69 384.572C1167.34 383.101 1185.29 381.743 1202.93 380.56C1188.66 379.77 1067.05 382.262 1064.73 383.904C1061.14 385.777 1099.27 383.291 1100.35 383.422C1101.98 383.559 1108.04 388.014 1111.64 388.033C1117.45 387.761 1219.28 384.515 1235.92 386.065ZM526.398 418.928C516.712 418.71 513.953 416.916 509.53 417.507C507.996 417.707 507.791 419.506 502.554 420.125C510.65 419.748 518.394 419.354 526.398 418.928ZM1316.01 380.564C1319.44 381.288 1317.78 381.593 1313.42 381.65C1302.02 381.723 1271.18 380.718 1269.92 380.581C1260.8 379.072 1299.97 378.215 1313.48 380.154C1314.47 380.282 1315.32 380.419 1316.01 380.564ZM845.671 399.696C847.674 399.682 889.609 397.458 889.21 396.275C877.996 396.115 822.023 399.741 845.671 399.696ZM496.096 420.432C481.751 420.658 454.337 419.309 457.573 421.938C457.594 421.938 457.615 421.937 457.637 421.937C470.365 421.523 483.321 421.012 496.096 420.432ZM1161.43 594.484C1133.93 591.46 1146.99 596.294 1171.41 596.533C1178.65 594.263 1166 594.971 1161.43 594.484ZM1073.73 595.2C1066.05 594.778 987.761 598.896 999.81 600.66C1004.07 601.298 1049.08 597.372 1051.15 597.436C1054.31 597.534 1040.04 600.656 1064.05 599.134C1062.61 598.345 1076.35 595.346 1073.73 595.2ZM1138.65 592.784C1111.34 590.754 1105.46 597.029 1125.93 596.133C1133.86 595.788 1142.58 593.076 1138.65 592.784ZM1249.87 587.864C1240.17 587.815 1213.88 588.332 1196.03 591.198C1220.16 590.193 1244.12 589.14 1268.33 587.979C1271.02 586.696 1258.64 587.903 1249.81 587.868C1249.83 587.867 1249.85 587.865 1249.87 587.864ZM1473.69 136.233C1452.13 134.219 1501.84 134.277 1503.82 134.744C1509.99 136.232 1483.36 137.126 1473.69 136.233ZM1383.65 605.597C1389.91 606.148 1393.25 608.338 1406.76 606.813C1392.97 605.529 1380.16 604.119 1366.96 602.685C1356.65 606.637 1376.97 604.988 1383.65 605.597ZM1434.45 618.208C1432.58 618.353 1442.93 623.901 1418.69 620.597C1402.19 618.158 1491.08 614.056 1507.21 617.7C1489.5 618.327 1450.43 617.053 1434.45 618.208ZM1587.96 648.545C1588.18 649.088 1555.34 646.759 1551.6 646.327C1531.96 643.162 1581.54 645.326 1587.96 648.545ZM1482.21 641.968C1497.81 643.216 1463.26 643.672 1452.95 643.23C1452.01 642.109 1479.85 641.724 1482.21 641.968ZM1256.15 49.9083C1239.01 45.8672 1223.61 54.3172 1250.03 52.7225C1251.29 52.6477 1256.88 50.1057 1256.15 49.9083ZM1554.78 651.618C1539.63 649.377 1573.11 651.114 1584.03 652.899C1584.49 654.028 1557.01 651.846 1554.78 651.618ZM1244.11 40.4258C1221.31 37.477 1229.3 47.0691 1232.15 47.4652C1243.88 49.0281 1284.18 45.4932 1292.4 44.6199C1232.1 45.7035 1254.85 41.8266 1244.11 40.4258ZM1138.89 45.843C1117.74 46.8283 1171.78 48.8648 1182.12 46.2407C1171.6 46.3364 1144.9 45.5553 1138.89 45.843ZM1010.5 42.7821C999.035 42.4535 965.379 41.7044 959.605 43.2245C972.076 42.9184 1005.65 44.3334 1010.5 42.7821ZM984.709 38.3222C966.96 36.3164 962.731 42.2779 983.172 40.4616C983.967 40.3913 985.362 38.4345 984.709 38.3222ZM884.796 36.4629C873.054 34.1399 859.769 39.9569 878.703 40.0383C884.34 40.0524 886.04 36.7297 884.796 36.4629ZM1215.59 30.0275C1198.88 28.9499 1177.34 33.0091 1213.01 33.5826C1200.48 34.1674 1187.94 34.7595 1175.41 35.3582C1222.13 37.8034 1218.73 32.0894 1232.15 32.3766C1250.91 32.795 1249.4 37.5156 1245.63 38.9802C1261.01 36.144 1326.35 36.4794 1364.14 36.292C1330.91 34.7654 1277.11 32.3045 1244.35 31.3932C1235 31.127 1225.92 32.3847 1217.95 32.2094C1205.17 31.9226 1216.52 30.0994 1215.65 30.0278C1215.63 30.0277 1215.61 30.0276 1215.59 30.0275ZM753.383 36.9843C719.261 34.4894 740.752 40.1591 760.176 39.0233C761.006 38.9394 754.233 37.0451 753.383 36.9843ZM1607.89 672.026C1599.24 672.711 1595.55 672.134 1592.15 671.875C1588.85 671.545 1586.57 671.199 1584.48 670.873C1580.48 670.227 1577.58 669.646 1575.31 669.157C1570.62 668.161 1567.65 667.416 1563.25 666.8C1554.28 665.697 1539.89 664.337 1493.6 665.913C1532.34 663.321 1495.89 663.443 1503.41 662.228C1509.45 661.205 1532.26 662.996 1519.05 660.279C1525.54 661.416 1540.18 662.481 1555.88 663.926C1563.83 664.643 1571.81 665.45 1580.16 666.261C1584.37 666.655 1588.55 667.072 1593.88 667.319C1599.36 667.332 1606.13 668.405 1619.71 664.363C1623.43 663.164 1626.51 662.192 1628.44 661.622C1629.39 661.341 1630.06 661.161 1630 661.199C1629.95 661.22 1629.7 661.303 1628.96 661.483C1628.26 661.656 1626.8 661.964 1625.2 662.178C1625.65 662.12 1626.09 662.056 1626.4 662.006C1625.19 662.219 1623.26 662.458 1621.78 662.565C1620.28 662.674 1619.84 662.713 1619.83 662.79C1619.81 662.863 1619.78 662.949 1619.85 663.046C1619.91 663.137 1620.6 663.269 1622.32 663.29C1630.54 663.002 1630.59 662.929 1630.65 663.677C1630.22 665.032 1626.73 667.37 1621.3 669.234C1616.25 670.907 1611.51 671.692 1607.89 672.026ZM1010.32 27.645C998.847 20.6392 994.327 31.7924 971.902 26.0196C941.986 34.5262 1054.58 25.8668 1068.22 33.0402C945.886 32.2826 1149.05 40.0889 1063.65 29.428C1134.02 33.3129 1086.71 28.1064 1097.58 26.7452C1109.17 25.2941 1149 26.926 1146.97 24.3102C1146.95 24.3101 1146.93 24.3101 1146.9 24.31C1122.55 24.4503 1098.26 24.6144 1073.87 24.7994C1097.68 30.4424 1048.01 28.7493 1031.08 24.1764C1024.14 25.3311 1017.22 26.4874 1010.32 27.645ZM1148.04 32.955C1145.66 32.8123 1092.69 33.55 1096.13 34.6916C1103.16 35.399 1178.32 34.6572 1148.04 32.955ZM1381.11 32.9965C1362.15 32.7934 1332.68 31.4527 1322.33 33.5077C1341.3 33.6575 1370.79 35.0214 1381.11 32.9965ZM402.909 34.1463C378.78 35.9649 453.16 36.2497 431.616 34.2503C430.513 34.1604 404.165 34.0656 402.909 34.1463ZM955.19 28.8185C930.561 26.738 942.187 33.5371 960.466 31.7107C961.524 31.6032 956.328 28.9134 955.19 28.8185ZM1561.29 670.594C1559.71 671.633 1496.79 667.522 1485.24 667.91C1491.96 665.846 1563.36 668.217 1561.29 670.594ZM1414.68 27.0855C1376.79 20.6264 1325.45 27.1816 1319.81 26.9947C1314.21 26.7992 1323.02 24.232 1321.74 24.1522C1318.81 23.967 1259.18 23.8208 1256.28 24.0044C1254.22 24.1368 1264.98 27.8885 1252.67 28.9916C1276.7 26.947 1385.75 29.1214 1391.39 28.8261C1395.77 28.5477 1362.74 24.3109 1414.62 27.0848C1414.64 27.085 1414.66 27.0853 1414.68 27.0855ZM1305.73 26.09C1320.62 27.7391 1278.85 27.6546 1268.73 27.0362C1246.27 25.6309 1303.82 25.8797 1305.73 26.09ZM1205.26 24.1553C1200.49 23.7842 1157.43 23.3548 1153.77 25.0796C1174.15 27.3499 1216.07 25.0007 1205.26 24.1553ZM726.5 25.3149C715.211 25.5983 684.68 24.4502 682.828 25.9695C694.228 25.6814 724.615 26.8326 726.5 25.3149ZM1339.8 682.773C1358.82 683.796 1315 684.863 1302.82 684.346C1302.07 683.359 1338.54 682.697 1339.8 682.773ZM950.975 14.4123C944.469 13.9344 809.35 15.596 790.453 16.4296C808.959 17.4449 942.832 17.018 948.811 16.4811C950.583 16.3098 951.82 14.4823 950.975 14.4123ZM1243.08 13.9061C1255.48 11.7429 1263.54 14.45 1265.11 14.4916C1280.46 14.9077 1312.2 14.618 1305.23 16.7111C1278.22 15.6486 1218.4 18.2034 1243.08 13.9061ZM716.813 15.3227C671.08 16.4073 759.061 18.2474 747.463 15.9946C746.746 15.8576 721.592 15.2083 716.813 15.3227ZM966.095 13.7278C976.113 11.8648 1111.28 13.2945 1132.96 13.3868C1113.49 16.6701 1097.91 14.1428 1071.76 14.3133C1064.72 14.3639 1066.6 15.7405 1065.85 15.7427C1053.67 15.8106 1062.78 14.2173 1055.28 14.1964C1050.48 14.162 951.867 16.2722 966.095 13.7278ZM1250.16 12.4013C1257.71 11.1331 1342.18 11.1457 1345.54 11.5443C1370.91 14.2348 1256.73 12.8177 1250.16 12.4013ZM953.663 10.8163C968.236 6.92268 1035.3 9.38708 989.353 11.3834C984.953 11.5655 966.473 9.93674 953.663 10.8163ZM721.699 11.6327C719.422 11.5305 671.65 11.0403 670.844 12.2703C677.715 12.701 747.414 12.7304 721.699 11.6327ZM746.433 7.35719C745.3 7.39291 756.414 9.68836 734.178 9.51198C732.39 9.49429 728.603 6.86127 700.646 7.99318C695.068 8.22533 686.01 10.0327 686.693 10.1377C715.931 14.1187 804.389 5.68096 746.433 7.35719ZM1251.72 10.2603C1247.18 9.11923 1258.14 5.84905 1268.05 7.58564C1272.3 8.33575 1264.34 10.2834 1251.72 10.2603ZM570.287 11.4644C597.944 9.28452 511.055 9.42251 506.518 9.95475C509.176 11.1996 567.85 11.6785 570.287 11.4644ZM1296.36 698.786C1296.39 698.786 1296.41 698.786 1296.43 698.785C1273.09 698.527 1287.54 696.728 1286.43 696.685C1236.47 694.602 1249.77 698.273 1241.86 698.778C1225.33 699.839 1227.74 695.217 1199.7 697.254C1246.35 694.215 1203.69 695.598 1202.53 693.958C1197.1 687.292 1264.57 696.803 1287.91 695.172C1291.21 694.953 1267.2 693 1275.53 692.328C1302.54 690.193 1386.65 699.575 1296.36 698.786ZM1275.69 7.33515C1286.54 5.39452 1368.89 7.94126 1347.04 9.39595C1343.55 9.59385 1259.72 10.0943 1275.69 7.33515ZM366.107 270.437C385.945 268.68 339.966 266.796 331.335 268.207C327.058 268.884 357.449 271.193 366.107 270.437ZM40.6861 481.469C60.2479 502.106 78.1163 509.323 86.5298 512.418C94.3414 514.56 94.3348 513.996 73.7642 501.427C71.2598 499.799 63.3063 495.982 54.7241 490.333C46.8706 485.468 38.7518 478.581 40.6861 481.469ZM1434.47 292.973C1439.72 298.051 1439.72 297.767 1440.46 297.187C1440.99 296.569 1441.85 295.534 1437.97 292.796C1435.13 290.864 1434.09 292.64 1434.47 292.973ZM649.834 263.989C647.384 263.844 618.749 264.606 619.799 265.684C630.411 266.122 665.853 264.899 649.834 263.989ZM1443.54 298.255C1441.26 297.288 1439.37 296.197 1438.41 295.513C1437.44 294.817 1437.31 294.517 1437.85 294.592C1438.81 294.707 1443.18 296.419 1446.36 297.08C1453.57 298.373 1447.27 296.737 1439.95 298.212C1443.56 298.255 1448.47 298.946 1449.19 299.374C1449.57 299.572 1448.76 299.615 1447.25 299.309C1445.82 299.037 1443.97 298.446 1443.54 298.255ZM902.954 0.544083C890.879 2.52062 856.374 2.06806 836.558 2.49091C834.465 -0.0134354 888.927 1.04081 902.954 0.544083ZM129.457 279C126.317 279.838 124.309 280.482 123.187 280.92C121.001 281.696 121.368 281.873 123.35 281.649C130.615 280.683 159.403 276.536 155.338 275.528C154.678 275.342 130.96 278.429 129.457 279ZM690.205 277.697C706.352 276.304 655.144 273.962 669.222 276.684C669.905 276.796 689.309 277.775 690.205 277.697ZM465.81 274.896C478.061 275.6 530.618 276.016 510.183 274.333C507.065 274.088 466.789 273.554 465.81 274.896ZM1240.46 700.593C1247.19 703.137 1208.55 702.729 1203.26 702.293C1200.96 702.118 1232.08 697.293 1240.46 700.593ZM1413.67 235.764C1401.73 237.927 1370.52 241.328 1365.16 243.259C1379.94 241.358 1417.93 237.925 1413.67 235.764ZM243.355 267.782C223.155 265.543 186.889 268.486 196.094 271.508C235.593 268.721 191.512 268.041 243.355 267.782ZM1388.95 300.597C1399.12 301.073 1407 297.751 1405.88 297.558C1395.03 295.714 1378.58 298.957 1388.95 300.597ZM912.276 261.277C911.688 259.781 879.19 260.544 883.526 261.499C884.966 261.823 912.753 262.494 912.276 261.277ZM476.166 1.97158C461.3 0.675865 506.739 -0.8946 520.253 0.624748C526.765 2.89708 477.97 2.12506 476.166 1.97158ZM1106.43 286.336C1104.87 288.44 1154.61 289.426 1135.18 286.688C1130.32 285.979 1106.97 285.597 1106.43 286.336ZM621.666 281.804C655.908 279.413 512.235 276.416 549.962 280.02C552.555 280.297 618.821 282.021 621.666 281.804ZM386.011 277.195C392.048 277.619 388.797 285.083 364.127 281.533C360.869 281.071 376.242 279.502 373.546 278.975C372.521 278.77 341.697 277.288 325.547 276.421C320.049 276.138 316.297 275.972 315.685 275.994C313.097 276.102 316.047 278.608 313.427 278.785C310.782 278.977 278.35 275.799 261.743 275.41C230.319 274.656 227.053 276.732 224.493 276.681C216.819 276.6 204.615 275.045 189.68 275.094C178.105 275.138 165.335 275.335 152.929 275.827C146.681 276.076 140.468 276.405 134.84 276.841C131.969 277.063 129.418 277.3 127.029 277.57C125.761 277.714 124.907 277.824 122.851 278.084C122.2 278.165 121.668 278.234 120.427 278.374C119.143 278.507 117.701 278.702 113.933 278.913C110.271 278.904 103.423 280.044 87.5102 276.509C69.7501 272.737 52.9169 260.249 49.3936 256.791C40.9721 248.743 33.2355 244.25 18.7605 220.183C8.95867 200.751 9.93196 195.846 8.64677 190.836C7.87837 186.09 7.67974 183.404 7.49162 180.777C7.19307 176.092 7.22278 172.931 7.27018 170.24C7.39396 164.864 7.72372 160.967 8.10818 157.175C8.90001 149.694 9.95911 143.209 11.4851 136.12C13.0735 128.995 14.8811 121.72 18.7408 111.689C20.7756 106.591 23.1503 100.86 28.1384 92.6017C33.8614 84.6389 38.9948 71.9841 66.6293 56.3049C61.7658 58.8293 58.3323 61.1702 55.8334 63.0008C53.6803 64.5895 52.2599 65.7842 51.2219 66.68C49.3143 68.3485 48.9333 68.7784 48.9361 68.769C49.0229 68.6989 50.7455 66.9881 52.4838 65.3412C56.2093 61.7871 60.9633 57.6634 65.4324 54.2354C74.6143 47.1623 83.5431 41.8089 91.7084 37.5475C108.234 29.0117 122.275 24.2218 135.191 20.4039C160.766 13.06 181.649 10.1778 198.522 8.54704C176.089 11.4085 153.044 15.7248 127.754 24.2713C114.992 28.672 101.522 34.1177 86.5998 42.7967C79.2148 47.1197 71.2935 52.4378 63.4537 58.9747C59.67 62.1129 55.6786 65.8219 52.9544 68.539C52.2382 69.2486 51.6855 69.8077 51.2929 70.2077C50.8728 70.636 50.6846 70.8297 50.9159 70.6202C51.2472 70.3304 51.7132 69.8388 53.9185 67.9901C55.9253 66.3967 59.7154 63.077 67.9067 58.7758C41.0295 74.0801 36.1146 86.3947 30.579 94.1601C25.7647 102.211 23.4839 107.81 21.5321 112.797C17.8317 122.611 16.1208 129.756 14.6208 136.754C13.1814 143.718 12.1924 150.1 11.4605 157.442C11.1057 161.162 10.8036 164.983 10.7001 170.224C10.6623 172.836 10.642 175.927 10.9358 180.45C11.1214 183.006 11.3127 185.575 12.0558 190.171C13.2975 194.99 12.327 199.687 21.8125 218.501C23.7498 221.994 25.5631 224.825 27.2607 227.304C23.7301 222.777 22.0702 220.231 22.4507 221.344C22.7939 222.344 25.0624 226.434 28.1339 230.762C34.4438 239.743 42.7882 248.213 50.9436 255.008C54.0226 257.593 60.1818 262.989 71.3816 268.315C76.7321 270.838 82.6974 272.896 88.1937 274.195C93.1784 275.382 97.4919 275.969 101.211 276.286C114.222 277.097 116.651 276.121 118.912 276.028C122.863 275.556 123.206 275.419 124.348 275.233C126.172 274.9 127.596 274.632 129.276 274.362C132.531 273.833 135.642 273.421 137.522 273.217C139.257 273.024 139.65 273.035 137.784 273.395C135.893 273.768 131.448 274.475 125.765 275.878C133.474 272.233 251.919 271.595 325.599 275.009C357.035 276.169 380.192 276.78 385.944 277.194C385.966 277.194 385.989 277.195 386.011 277.195ZM163.05 548.352C145.94 547.541 230.909 565.605 237.744 562.185C227.067 560.99 165.841 549.633 163.05 548.352ZM292.668 255.365C299.698 254.836 306.481 249.652 343.028 251.99C343.061 251.99 343.095 251.99 343.128 251.99C353.767 252.682 341.675 253.954 343.608 254.38C344.297 254.545 377.496 256.92 349.938 257.416C307.889 258.254 346.041 253.7 323.471 253.797C320.858 253.757 277.761 257.047 280.209 257.656C280.472 257.714 293.507 256.916 295.625 257.14C303.755 257.955 299.829 259.572 300.974 259.631C304.848 259.662 372.022 256.655 381.562 259.012C384.988 259.634 274.686 262.005 269.661 262.133C266.865 261.954 267.933 257.593 265.039 257.24C263.668 256.933 217.474 260.273 211.033 260.477C209.215 260.472 207.806 260.437 206.785 260.401C214.275 261.086 170.319 264.474 171.097 263.161C172.094 262.297 202.796 260.02 203.627 260.194C204.099 260.206 204.511 260.24 204.894 260.256C199.483 258.237 296.934 255.049 275.764 253.4C303.481 251.549 271.914 257.015 292.668 255.365ZM422.701 252.019C419.961 252.482 417.168 252.944 414.415 253.406C461.204 252.191 514.542 254.133 567.396 252.775C568.922 252.737 570.075 252.671 570.946 252.585C577.981 251.917 567.16 250.069 583.387 250.347C598.05 250.605 614.281 252.889 606.346 253.619C604.815 253.76 586.137 253.127 570.961 253.172C566.934 253.179 563.173 253.222 560.085 253.331C517.719 254.745 528.369 256.833 525.915 256.967C523.23 257.091 496.31 255.779 481.627 255.958C444.63 256.439 427.739 257.909 376.508 256.092C406.075 254.457 389.944 251.075 422.701 252.019ZM893.517 288.104C891.727 289.58 861.211 287.877 850.069 287.989C851.863 286.495 882.399 288.174 893.517 288.104ZM478.915 470.131C469.525 473.206 541.282 468.908 522.249 468.153C517.99 467.956 487.905 469.462 478.915 470.131ZM799.015 454.807C808.441 453.729 770.285 453.547 770.383 455.46C770.505 456.066 797.762 454.946 799.015 454.807ZM1028.25 249.02C1030.05 248.932 1055.7 249.098 1056.48 249.197C1073.56 251.603 989.02 251.234 1028.25 249.02ZM1184.03 435.39C1151.38 438.621 1249.86 434.434 1219.63 433.876C1218.23 433.858 1185.58 435.245 1184.03 435.39ZM1320.16 427.464C1312.7 428.06 1277.75 429.331 1277.5 430.082C1276.72 431.369 1316.67 429.811 1320.16 427.464ZM1381.77 309.736C1385.51 312.653 1338.41 309.165 1322.07 308.797C1318.09 305.897 1365.33 309.72 1381.77 309.736ZM1377.08 225.961C1403.55 222.3 1425.18 218.802 1442.84 215.894C1445.08 215.525 1443.26 215.476 1438.77 217.925C1434.3 220.267 1427.87 225.545 1423.67 231.117C1415.08 242.757 1414.68 249.405 1415.05 248.358C1415.67 247.925 1418.21 238.943 1427.73 228.947C1432.3 224.163 1437.9 220.587 1441.19 219.164C1444.53 217.677 1445.33 217.932 1443.23 218.28C1422.32 221.745 1396.71 225.486 1366.28 228.656C1365.84 226.904 1365.51 227.547 1377.08 225.961ZM1423.56 312.558C1426.94 311.774 1433.83 311.665 1440.08 311.956C1446 311.973 1451.72 313.907 1441.83 311.365C1442.62 311.966 1445.62 312.982 1446.64 313.278C1447.73 313.608 1446.63 313.454 1443.95 313.289C1438.45 312.915 1428.62 312.551 1423.56 312.558ZM392.556 473.566C405.106 469.963 460.548 468.147 450.809 469.91C448.605 470.164 388.179 475.115 392.556 473.566ZM1044.33 246.414C1039.91 243.832 1097.39 243.849 1101.77 244.248C1119.57 246.268 1049.07 245.862 1044.33 246.414ZM1104.06 298.839C1093.68 300.537 1065.18 298.46 1046.42 297.918C1055.09 296.331 1088.3 298.157 1104.06 298.839ZM1238.54 307.803C1237.27 307.829 1210.67 306.079 1209.33 305.885C1187.45 302.529 1263.23 307.482 1238.54 307.803ZM1329.28 718.805C1328.37 718.888 1308.16 718.965 1307.55 718.887C1289.58 717.041 1349.97 716.815 1329.28 718.805Z" fill="#EAF0F6"/>
</svg>
